<svg xmlns="http://www.w3.org/2000/svg" fill="none" viewBox="0 0 31 29">
  <path d="M13.465 25.901a7.742 7.742 0 01-12.25-4.328 7.744 7.744 0 013.076-8.146l12.891-9.478a7.749 7.749 0 119.173 12.491l-12.89 9.461z" fill="#C8E6F0"/>
  <path d="M17.076 17.09h-.23l-.042-.047.272.048z" fill="#4D5662"/>
  <path d="M24.367 7.677c.64 1.398-1.152 2.219-2.23.758-1.37-1.867 1.1-4.096 3.078-2.72a5.781 5.781 0 11-4.587-1.131" fill="#fff"/>
  <path d="M24.367 7.677c.64 1.398-1.152 2.219-2.23.758-1.37-1.867 1.1-4.096 3.078-2.72a5.781 5.781 0 11-4.587-1.131" stroke="#4D5662" stroke-width="1.067" stroke-linecap="round" stroke-linejoin="round"/>
  <path d="M19.582 9.299a.32.32 0 100-.64.32.32 0 000 .64zm3.515 2.485a.32.32 0 100-.64.32.32 0 000 .64zm-2.487.533a.704.704 0 01-1.157-.757l1.157.757z" stroke="#4D5662" stroke-width=".533" stroke-linecap="round" stroke-linejoin="round"/>
  <path d="M5.501 9.677L3.485 7.635m10.242-4.267L13.743 1M9.15 5.816L6.949 2.643m18.884 17.141l2.016 2.043M17.61 26.099l-.016 2.368m4.591-4.822l2.203 3.179" stroke="#FF8979" stroke-width="1.067" stroke-miterlimit="10" stroke-linecap="round"/>
  <path d="M22.532 18.445l-8.704 7.136A7.37 7.37 0 015.108 13.7l8.389-5.83c-.325 1.003-.181 4.331-.283 8.187 0 0 1.211 7.93 2.63 8.144 0 0-3.008-5.733-2.23-7.6 0 0 5.062 1.739 8.918 1.845z" fill="#fff"/>
  <path d="M14.19 6.221s-3.462 9.211 1.53 17.952m-2.601-8.416a30.518 30.518 0 0010.885 2.39" stroke="#4D5662" stroke-width="1.067" stroke-linecap="round" stroke-linejoin="round"/>
  <path d="M13.465 25.901a7.742 7.742 0 01-12.25-4.328 7.744 7.744 0 013.076-8.146l12.891-9.478a7.749 7.749 0 119.173 12.491l-12.89 9.461zm1.21-1.136a7.397 7.397 0 01-4.57-1.301M8.77 10.163s-1.76 1.989-1.44 3.845" stroke="#4D5662" stroke-width="1.067" stroke-linecap="round" stroke-linejoin="round"/>
</svg>
