<svg xmlns="http://www.w3.org/2000/svg" fill="none" viewBox="0 0 32 23">
  <path fill-rule="evenodd" clip-rule="evenodd" d="M26.541.667H.668V22h30.666V5.5L26.542.667z" fill="#fff"/>
  <path fill-rule="evenodd" clip-rule="evenodd" d="M0 .667C0 .298.298 0 .667 0H26.54c.178 0 .349.071.474.197l4.792 4.834A.667.667 0 0132 5.5V22a.667.667 0 01-.667.667H.667A.667.667 0 010 22V.667zm1.333.666v20h29.334V5.775l-4.403-4.442H1.334z" fill="#4F5661"/>
  <path fill-rule="evenodd" clip-rule="evenodd" d="M26 0c.368 0 .667.298.667.667v4.666h4.666a.667.667 0 110 1.334H26A.667.667 0 0125.333 6V.667c0-.369.299-.667.667-.667zM4 16.933c0-.368.298-.666.667-.666H14a.667.667 0 110 1.333H4.667A.667.667 0 014 16.933zM17.333 13.6c0-.368.299-.667.667-.667h7.333a.667.667 0 010 1.334H18a.667.667 0 01-.667-.667zm0 3.333c0-.368.299-.666.667-.666h9.333a.667.667 0 110 1.333H18a.667.667 0 01-.667-.667zM4 13.6c0-.368.298-.667.667-.667H12a.667.667 0 010 1.334H4.667A.667.667 0 014 13.6z" fill="#4F5661"/>
  <path fill-rule="evenodd" clip-rule="evenodd" d="M15.762 4.667H4.905c-.5 0-.905.298-.905.666V10c0 .369.404.667.905.667h10.857c.5 0 .905-.298.905-.667V5.333c0-.368-.405-.666-.905-.666z" fill="#CFE6F0"/>
</svg>
