<svg xmlns="http://www.w3.org/2000/svg" fill="none" viewBox="0 0 79 71">
  <path d="M19.494 39.633c.576-1.222.128-2.315-1.462-3.542-1.387-1.066-1.355-1.445-1.152-1.872.203-.426.875-.592 1.573-.26.678.326 1.213.89 1.505 1.583l.16.341 1.397-.736-.15-.314a4.357 4.357 0 00-1.557-1.835l.464-.987a.534.534 0 00-.245-.688l-.464-.218a.533.533 0 00-.688.245l-.48.992a2.517 2.517 0 00-2.987 1.285c-.746 1.6.288 2.667 1.515 3.616 1.323 1.008 1.29 1.371 1.067 1.803-.246.533-.934.635-1.67.288a3.392 3.392 0 01-1.776-1.968l-.139-.347-1.434.656.133.32c.33.844.883 1.58 1.6 2.134l-.49 1.034a.533.533 0 00.245.688l.47.224a.533.533 0 00.687-.25l.459-.966c1.466.496 2.821.016 3.419-1.226z" fill="#fff"/>
  <path opacity=".5" d="M24.762 18.433c-.363-1.014-1.227-1.382-2.816-1.179-1.381.176-1.6-.059-1.701-.41-.102-.353.165-.827.746-1.03a2.448 2.448 0 011.729.037l.282.102.373-1.2-.26-.09a3.477 3.477 0 00-1.91-.16l-.288-.828a.415.415 0 00-.534-.25l-.383.138a.41.41 0 00-.251.534l.299.842a2.005 2.005 0 00-.982 2.411c.464 1.307 1.659 1.344 2.886 1.19 1.311-.171 1.493.053 1.6.41.106.357-.166.885-.78 1.099a2.666 2.666 0 01-2.132-.112l-.273-.118-.442 1.174.256.106c.66.288 1.386.393 2.101.304l.304.86a.412.412 0 00.534.255l.389-.139a.415.415 0 00.25-.533l-.282-.805c1.141-.534 1.653-1.563 1.285-2.608zm53.84 46.922c-.459-1.306-1.6-1.776-3.616-1.52-1.776.23-2.027-.074-2.187-.533-.16-.459.208-1.067.955-1.323a3.142 3.142 0 012.224.048l.357.134.49-1.542-.335-.122a4.513 4.513 0 00-2.459-.208l-.373-1.067a.533.533 0 00-.678-.325l-.496.176a.534.534 0 00-.32.677l.379 1.067a2.582 2.582 0 00-1.259 3.098c.598 1.686 2.134 1.734 3.734 1.536 1.69-.224 1.925.064 2.085.534.197.533-.219 1.141-1.003 1.418a3.45 3.45 0 01-2.709-.149l-.352-.15-.565 1.537.33.138a5.14 5.14 0 002.699.39l.395 1.104a.534.534 0 00.672.325l.501-.176a.534.534 0 00.32-.677l-.368-1.035c1.397-.688 2.053-2.01 1.579-3.355z" fill="#fff"/>
  <path d="M5.317 21.446c-.128-1.067-.896-1.6-2.486-1.765-1.386-.128-1.525-.4-1.6-.774-.074-.373.342-.768.95-.842.6-.079 1.208.067 1.706.41l.251.16.63-1.066-.235-.16a3.461 3.461 0 00-1.83-.57l-.096-.87a.41.41 0 00-.458-.358l-.411.048a.41.41 0 00-.357.46l.106.884A2 2 0 00.01 19.137c.165 1.376 1.323 1.674 2.555 1.792 1.317.117 1.45.373 1.493.752.043.378-.357.826-1.003.906a2.713 2.713 0 01-2.048-.57l-.24-.17-.682 1.066.224.16c.586.42 1.275.675 1.994.736l.112.906a.416.416 0 00.459.363l.405-.053a.41.41 0 00.363-.459l-.107-.848c1.206-.283 1.915-1.173 1.782-2.272zm5.238-16.533c.053-.838-.448-1.37-1.643-1.718-1.04-.298-1.109-.533-1.066-.82.042-.289.373-.534.848-.502.464.03.901.231 1.226.565l.171.155.64-.736-.16-.15A2.72 2.72 0 009.259.998l.027-.656a.32.32 0 00-.299-.341h-.32a.32.32 0 00-.341.298l-.048.7A1.552 1.552 0 006.832 2.41c-.08 1.067.763 1.478 1.686 1.75.922.272 1.066.496 1.034.794-.032.3-.394.582-.901.534a2.101 2.101 0 01-1.467-.736l-.16-.166-.682.667.149.155c.383.41.87.71 1.408.87l-.048.708a.315.315 0 00.293.342h.32a.32.32 0 00.342-.299l.048-.667a1.6 1.6 0 001.701-1.45z" fill="#CFE6F0"/>
</svg>
