<svg xmlns="http://www.w3.org/2000/svg" fill="none" viewBox="0 0 37 35">
  <path d="M11.18 13.726s10.182-2.545 18.326-12.217M25.943 1h4.072v4.072M13.928 29.506h21.178" stroke="#4F5661" stroke-width="1.8" stroke-linecap="round" stroke-linejoin="round"/>
  <path fill-rule="evenodd" clip-rule="evenodd" d="M9.187 26.452h3.564v-4.073H9.187v4.073z" fill="#CFE6F0"/>
  <path clip-rule="evenodd" d="M9.187 26.452h3.564v-4.073H9.187v4.073z" stroke="#CFE6F0" stroke-width="1.8" stroke-linejoin="round"/>
  <path fill-rule="evenodd" clip-rule="evenodd" d="M11.18 28.997a5.09 5.09 0 11-10.18 0 5.09 5.09 0 0110.18 0z" fill="#53C27C"/>
  <path clip-rule="evenodd" d="M11.18 28.997a5.09 5.09 0 11-10.18 0 5.09 5.09 0 0110.18 0z" stroke="#53C27C" stroke-width="1.8" stroke-linecap="round" stroke-linejoin="round"/>
  <path fill-rule="evenodd" clip-rule="evenodd" d="M8.152 30.2c0-.959-1.004-1.389-1.874-1.678-.727-.245-1.058-.482-1.058-.831 0-.238.277-.52.789-.52.492 0 1.175.371 1.246.408.108.06.242 0 .314-.089l.341-.423c.062-.074.035-.2-.054-.245a3.623 3.623 0 00-1.32-.46v-.705c0-.124-.1-.223-.223-.223h-.445c-.124 0-.223.1-.223.223v.696c-1.122.136-1.6.805-1.6 1.397 0 .876.843 1.32 1.686 1.603.753.253 1.138.512 1.138.89 0 .32-.35.572-.815.572-.584 0-1.31-.437-1.355-.46-.08-.051-.232-.051-.304.052l-.323.46c-.081.119-.036.157.045.223.154.122.669.461 1.528.554v.694c0 .122.1.222.223.222h.445c.123 0 .223-.1.223-.222v-.7c1.003-.144 1.616-.768 1.616-1.438z" fill="#fff"/>
  <path d="M5.582 5.581v15.644" stroke="#4F5661" stroke-width="1.8" stroke-linecap="round" stroke-linejoin="round"/>
</svg>
