<svg xmlns="http://www.w3.org/2000/svg" fill="none" viewBox="0 0 64 64">
  <path fill-rule="evenodd" clip-rule="evenodd" d="M63.761 31.88c0 17.608-14.273 31.881-31.88 31.881C14.273 63.761 0 49.488 0 31.881 0 14.273 14.273 0 31.88 0c17.608 0 31.881 14.273 31.881 31.88z" fill="#D52B1E"/>
  <path fill-rule="evenodd" clip-rule="evenodd" d="M24.796 43.57c-3.684-2.621-7.155-5.455-10.556-8.43a108.034 108.034 0 00-3.33 8.36c5.384 4.533 12.54 9.776 17.499 12.752 6.376-16.578 16.365-27.347 25.93-34.928-1.205-2.62-2.905-4.959-4.889-6.942A88.398 88.398 0 0024.796 43.57z" fill="#fff"/>
</svg>
