<svg xmlns="http://www.w3.org/2000/svg" fill="none" viewBox="0 0 20 14">
  <path fill-rule="evenodd" clip-rule="evenodd" d="M14.855 5.318h3.555c.646 0 1.169.523 1.169 1.169v3.57c0 .645-.523 1.168-1.169 1.168h-3.555c-.646 0-.728-.523-.728-1.168v-3.57c0-.646.082-1.169.728-1.169z" fill="#CFE6F0"/>
  <path clip-rule="evenodd" d="M14.855 5.318h3.555c.646 0 1.169.523 1.169 1.169v3.57c0 .645-.523 1.168-1.169 1.168h-3.555c-.646 0-.728-.523-.728-1.168v-3.57c0-.646.082-1.169.728-1.169z" stroke="#4F5661" stroke-width=".8"/>
  <path fill-rule="evenodd" clip-rule="evenodd" d="M2.169 5.318h3.555c.646 0 .728.523.728 1.169v3.57c0 .645-.082 1.168-.728 1.168H2.17A1.168 1.168 0 011 10.057v-3.57c0-.646.523-1.169 1.169-1.169z" fill="#CFE6F0"/>
  <path clip-rule="evenodd" d="M2.169 5.318h3.555c.646 0 .728.523.728 1.169v3.57c0 .645-.082 1.168-.728 1.168H2.17A1.168 1.168 0 011 10.057v-3.57c0-.646.523-1.169 1.169-1.169z" stroke="#4F5661" stroke-width=".8"/>
  <path fill-rule="evenodd" clip-rule="evenodd" d="M5.582 2.364h9.415c.903 0 1.636.733 1.636 1.636v7.901c0 .904-.733 1.636-1.636 1.636H5.582A1.636 1.636 0 013.946 11.9V4c0-.904.732-1.637 1.636-1.637z" fill="#fff" stroke="#4F5661" stroke-width=".8"/>
  <path d="M2.24 3.733v-2.4" stroke="#4F5661" stroke-width=".8" stroke-linecap="round"/>
  <path fill-rule="evenodd" clip-rule="evenodd" d="M2.157 0c.64 0 1.158.52 1.158 1.16A1.159 1.159 0 111 1.16C1 .52 1.518 0 2.157 0z" fill="#8D9096"/>
  <path d="M18.189 3.733v-2.4" stroke="#4F5661" stroke-width=".8" stroke-linecap="round"/>
  <path fill-rule="evenodd" clip-rule="evenodd" d="M18.157 0c.64 0 1.158.52 1.158 1.16a1.159 1.159 0 11-2.315 0C17 .52 17.518 0 18.157 0z" fill="#8D9096"/>
  <path fill-rule="evenodd" clip-rule="evenodd" d="M12.649 6.767a.797.797 0 01-.804-.79c0-.437.36-.791.804-.791.444 0 .803.354.803.79 0 .437-.36.791-.803.791zm-4.719 0a.797.797 0 01-.803-.79c0-.437.36-.791.804-.791.444 0 .803.354.803.79 0 .437-.36.791-.803.791z" fill="#4F5661"/>
  <path d="M12.638 8.918a2.714 2.714 0 01-2.338 1.446 2.715 2.715 0 01-2.36-1.446" stroke="#4F5661" stroke-width=".8" stroke-linecap="round"/>
</svg>
