<svg xmlns="http://www.w3.org/2000/svg" fill="none" viewBox="0 0 44 55">
  <path d="M11.719 31.286l4.712.473v2.366l-7.54 2.84-4.241 2.839-2.828 4.258 6.127 6.152 6.126 2.84 8.954.946 6.126-.946 6.598-2.367 4.57-4.187 2.5-2.438-5.5-3.562-3.926-4.482-5.184-1.893v-2.84h2.828l5.183-1.892-.942-4.259.471-5.679.471-6.151-.47-5.206-2.357-2.839H31.04l-1.886-1.42L25.385 1H19.73l-5.184 1.42-3.77 4.259-1.885 5.678v6.152l.471 6.152-1.885 4.732 4.242 1.893z" fill="#fff"/>
  <path d="M1.33 44.569s6.639 7.586 13.277 8.534l-3.793-9.482 1.896-3.793h-1.897l1.328-4.05a12.384 12.384 0 00-8.098 4.998L1.33 44.569z" fill="#CFE6F0"/>
  <path d="M14.996 54.051a.949.949 0 01-.863-.559L9.95 44.009a.948.948 0 01.104-.948l1.707-2.276h-.948a.947.947 0 01-.929-.748.948.948 0 01.009-.428l.948-3.793a.947.947 0 011.148-.73.948.948 0 01.692 1.147l-.654 2.646h1.63a.948.948 0 01.76 1.517l-2.514 3.348 3.964 8.97a.948.948 0 01-.484 1.252.948.948 0 01-.388.085z" fill="#4F5661"/>
  <path d="M43.188 44.569s-6.638 7.586-13.275 8.534l3.793-9.482-1.897-3.793h1.897l-1.328-4.05a12.385 12.385 0 018.098 4.998l2.712 3.793z" fill="#CFE6F0"/>
  <path d="M29.524 54.052a.947.947 0 01-.872-1.328l3.963-8.97-2.513-3.357a.949.949 0 01.76-1.518h1.63l-.654-2.617a.95.95 0 111.84-.455l.948 3.793a.948.948 0 01-.171.815.95.95 0 01-.75.36h-.947l1.706 2.277a.948.948 0 01.114.948l-4.191 9.483a.948.948 0 01-.863.569z" fill="#4F5661"/>
  <path d="M34.796 49.993a26.382 26.382 0 01-9.094 2.892l2.845-17.467 3.376 1.204.237.19c.141.12.317.194.503.209a8.345 8.345 0 012.2.56.952.952 0 10.692-1.774 10.916 10.916 0 00-2.39-.636l-.18-.085a.871.871 0 00-.332-.18l-3.916-1.432v-5.121c.227-.199.455-.407.664-.625a10.63 10.63 0 003.271-7.359v-8.098a.743.743 0 000-.19 1.23 1.23 0 000-.18.72.72 0 00-.076-.104.947.947 0 00-.132-.2l-.152-.094a.51.51 0 00-.152-.095.699.699 0 00-.237 0 .471.471 0 00-.123 0 1.47 1.47 0 00-.2 0h-.17a14.168 14.168 0 01-8.895.417 15.76 15.76 0 01-5.083-2.418.948.948 0 00-.701-.17.948.948 0 00-.617.379 9.018 9.018 0 01-3.698 2.712.948.948 0 00-.702.948v7.112a10.63 10.63 0 003.281 7.377l.493.465a.953.953 0 00-.047.237v5.036l-3.594 1.384a.873.873 0 00-.332.18l-.161.123a11.74 11.74 0 00-7.027 3.888L.232 43.327a1.176 1.176 0 00-.076.114.559.559 0 00-.095.16 1.202 1.202 0 00-.057.171c-.005.06-.005.12 0 .18a1.042 1.042 0 000 .171c-.005.06-.005.12 0 .18a.559.559 0 00.095.162.25.25 0 00.095.104l.113.142c.124.152.238.294.342.398a28.299 28.299 0 007.472 6.145l.105.057A28.449 28.449 0 0022.194 55h.132a28.448 28.448 0 0013.362-3.338.948.948 0 00.162-1.568.947.947 0 00-1.054-.1zM26.84 34.062l-1.052 6.486a6.827 6.827 0 01-3.594 1.176 9.131 9.131 0 01-3.699-1.28l-1.137-6.391v-4.41a9.34 9.34 0 004.836 1.65 9.303 9.303 0 004.646-1.527v4.296zM13.63 20.369v-6.477a11.058 11.058 0 003.348-2.446 17.485 17.485 0 004.95 2.21 16.68 16.68 0 008.829-.048v6.761a8.772 8.772 0 01-2.722 6.031c-1.754 1.783-4.106 2.997-5.841 2.997-1.736 0-4.078-1.195-5.823-2.969a8.78 8.78 0 01-2.74-6.059zM9.05 49.623a26.296 26.296 0 01-6.846-5.613l3.547-3.68a9.758 9.758 0 016.106-3.347.882.882 0 00.503-.209l.247-.199 3.072-1.176 3.11 17.448a26.465 26.465 0 01-9.634-3.167l-.104-.057zm14.708 3.48h-3.006l-1.81-10.326a8.602 8.602 0 003.28.844 8.819 8.819 0 003.205-.702l-1.669 10.184z" fill="#4F5661"/>
  <path d="M19.748 24.703c.716.504 1.57.776 2.446.777a4.191 4.191 0 002.437-.825 4.333 4.333 0 001.195-1.327.948.948 0 00-.35-1.29.95.95 0 00-1.3.341c-.163.29-.386.543-.654.74a2.38 2.38 0 01-2.712 0 2.313 2.313 0 01-.673-.75.95.95 0 00-1.3-.34.948.948 0 00-.35 1.29 4.38 4.38 0 001.26 1.384z" fill="#4F5661"/>
  <path d="M37.764 29.264c0-.048-2.485-4.258-1.622-8.013 1.783-7.729 1.508-12.897-.806-15.362a5.035 5.035 0 00-4.277-1.517C29.201 2.096 26.792 0 21.244 0c-4.523 0-8.145 1.48-10.43 4.267C7.74 7.88 6.915 13.58 8.29 21.213a11.228 11.228 0 01-1.565 7.975.948.948 0 000 1.11.948.948 0 00.294.265 14.223 14.223 0 006.582 1.678.949.949 0 000-1.896A12.553 12.553 0 018.86 29.34a13.143 13.143 0 001.3-8.478c-1.271-7.036-.58-12.214 2.057-15.381 1.982-2.38 5.026-3.584 9.027-3.584 5.463 0 7.312 2.351 8.658 4.068a.948.948 0 00.901.35 3.29 3.29 0 013.148.873c1.044 1.11 2.475 4.362.342 13.646-.768 3.328.55 6.78 1.327 8.42a15.087 15.087 0 01-4.741 1.09.948.948 0 100 1.897 19.343 19.343 0 006.439-1.63.947.947 0 00.512-.58.95.95 0 00-.066-.767z" fill="#4F5661"/>
</svg>
