<svg xmlns="http://www.w3.org/2000/svg" fill="none" viewBox="0 0 113 46">
  <g opacity=".35" fill-rule="evenodd" clip-rule="evenodd">
    <path d="M60 15.055h-7.5L60 7.97v7.085zm0 15.055h-7.5l7.5-7.085v7.086zm0 15.058h-7.5l7.5-7.085v7.085z" fill="#FF8979"/>
    <path d="M67.5 7.972H60l7.5 7.085V7.972zm-60 15.054H0l7.5 7.085v-7.085zm60 0H60l7.5 7.085v-7.085zm-60 15.057H0l7.5 7.085v-7.086zm60 0H60l7.5 7.085v-7.086zm-45-30.111H15l7.5 7.085V7.972zm60 0H75l7.5 7.085V7.972zm-60 15.054H15l7.5 7.085v-7.085zm60 0H75l7.5 7.085v-7.085zm-60 15.057H15l7.5 7.085v-7.086zm60 0H75l7.5 7.085v-7.086zm-45-30.111H30l7.5 7.085V7.972zm60 0H90l7.5 7.085V7.972zm-60 15.054H30l7.5 7.085v-7.085zm60 0H90l7.5 7.085v-7.085zm-60 15.057H30l7.5 7.085v-7.086zm60 0H90l7.5 7.085v-7.086zm-45-30.111H45l7.5 7.085V7.972zm0 15.054H45l7.5 7.085v-7.085zm60 0H105l7.5 7.085v-7.085zm-60 15.057H45l7.5 7.085v-7.086z" fill="#F25A52"/>
    <path d="M15 15.055H7.5L15 7.97v7.085zm60 0h-7.5L75 7.97v7.085zM15 30.11H7.5l7.5-7.085v7.086zm60 0h-7.5l7.5-7.085v7.086zM15 45.168H7.5l7.5-7.085v7.085zm60 0h-7.5l7.5-7.085v7.085zM30 15.055h-7.5L30 7.97v7.085zm60 0h-7.5L90 7.97v7.085zM30 30.11h-7.5l7.5-7.085v7.086zm60 0h-7.5l7.5-7.085v7.086zM30 45.168h-7.5l7.5-7.085v7.085zm60 0h-7.5l7.5-7.085v7.085zM45 15.055h-7.5L45 7.97v7.085zm60 0h-7.5L105 7.97v7.085zM45 30.11h-7.5l7.5-7.085v7.086zm59.999 0h-7.5l7.5-7.085v7.086zM45 45.168h-7.5l7.5-7.085v7.085z" fill="#FF8979"/>
    <path d="M60 0h7.5L60 7.97V0zm0 15.055h7.5L60 23.026v-7.97zM0 30.11h7.5L0 38.08v-7.97zm60 0h7.5L60 38.082v-7.97z" fill="#F25A52"/>
    <path d="M67.5 7.972H75L67.5 0v7.97zm-60 15.054H15l-7.5-7.97v7.97zm60 0H75l-7.5-7.97v7.97zm-60 15.057H15l-7.5-7.971v7.97zm60 0H75l-7.5-7.971v7.97zm-45-30.111H30L22.5 0v7.97zm60 0H90L82.5 0v7.97zm-60 15.054H30l-7.5-7.97v7.97zm60 0H90l-7.5-7.97v7.97zm-60 15.057H30l-7.5-7.971v7.97zm60 0H90l-7.5-7.971v7.97zm-45-30.111H45L37.5 0v7.97zm60 0h7.499L97.499 0v7.97zm-60 15.054H45l-7.5-7.97v7.97zm60 0h7.499l-7.5-7.97v7.97zm-60 15.057H45l-7.5-7.971v7.97zm60 0h7.499l-7.5-7.971v7.97zm-45-30.111H60L52.5 0v7.97zm0 15.054H60l-7.5-7.97v7.97zm0 15.057H60l-7.5-7.971v7.97z" fill="#FF8979"/>
    <path d="M75 0h7.5L75 7.97V0zM15 15.055h7.5L15 23.026v-7.97zm60 0h7.5L75 23.026v-7.97zM15 30.11h7.5L15 38.082v-7.97zm60 0h7.5L75 38.082v-7.97zM30 0h7.5L30 7.97V0zm60 0h7.5L90 7.97V0zM30 15.055h7.5L30 23.026v-7.97zm60 0h7.5L90 23.026v-7.97zM30 30.11h7.5L30 38.082v-7.97zm60 0h7.5L90 38.082v-7.97zM45 0h7.5L45 7.97V0zm0 15.055h7.5L45 23.026v-7.97zm60 0h7.499L105 23.026v-7.97zM45 30.11h7.5L45 38.082v-7.97zm59.999 0h7.5l-7.5 7.971v-7.97z" fill="#F25A52"/>
  </g>
</svg>
