<svg xmlns="http://www.w3.org/2000/svg" fill="none" viewBox="0 0 22 26">
  <path d="M1.376 21.693l3.5-7 1.5-2 6.5-.5 3 2.5 3.5 7-2.5-.5-1 3-5-8.5-5 9-1.5-3.5-3 .5z" fill="#fff"/>
  <path fill-rule="evenodd" clip-rule="evenodd" d="M20.934 21.243c-3.302-2.475-4.818-10.76-4.834-10.844a.94.94 0 00-1.087-.767.953.953 0 00-.754 1.107c.053.294 1.073 5.876 3.448 9.623l-.75-.188a.937.937 0 00-1.13.69l-.41 1.644c-1.102-1.739-2.686-4.685-3.23-7.944a.935.935 0 00-1.078-.779.892.892 0 00-.451.237.895.895 0 00-.452-.237.934.934 0 00-1.079.779c-.54 3.25-2.127 6.2-3.227 7.942l-.412-1.642a.936.936 0 00-1.13-.69l-.75.188c2.375-3.747 3.395-9.329 3.448-9.623a.952.952 0 00-.754-1.107.94.94 0 00-1.087.767C5.2 10.482 3.683 18.767.38 21.242a.961.961 0 00-.292 1.17.93.93 0 001.07.52l2.746-.685.682 2.728a.945.945 0 00.906.717.928.928 0 00.726-.35c.142-.177 3.188-4.035 4.44-8.994 1.251 4.959 4.297 8.817 4.44 8.994a.928.928 0 001.631-.367l.682-2.728 2.746.685a.926.926 0 001.07-.52.96.96 0 00-.293-1.17z" fill="#4F5661"/>
  <path fill-rule="evenodd" clip-rule="evenodd" d="M18.794 7.577c-.295-.229-.742-.575-.814-.75-.082-.202-.01-.767.044-1.181.114-.892.256-2.001-.474-2.744-.73-.742-1.823-.597-2.698-.481-.406.054-.96.128-1.161.044-.173-.073-.513-.527-.737-.827C12.407.908 11.726 0 10.658 0 9.59 0 8.91.908 8.363 1.638c-.226.3-.565.754-.739.827-.2.084-.754.01-1.16-.044-.88-.118-1.969-.26-2.699.481-.73.743-.586 1.852-.472 2.744.052.413.124.98.042 1.18-.071.176-.518.522-.813.75-.718.557-1.61 1.25-1.61 2.335 0 1.087.892 1.779 1.61 2.334.295.229.742.575.813.75.082.202.01.768-.042 1.181-.114.892-.258 2.001.472 2.744.731.741 1.82.598 2.699.482.406-.054.96-.13 1.16-.044.174.072.513.527.739.826.546.73 1.226 1.64 2.295 1.64 1.068 0 1.75-.91 2.296-1.64.224-.3.564-.754.737-.826.2-.085.755-.01 1.16.044.879.116 1.97.259 2.7-.482.729-.743.587-1.852.473-2.744-.054-.413-.126-.979-.044-1.18.072-.176.519-.522.814-.75.718-.556 1.611-1.248 1.611-2.335 0-1.086-.894-1.778-1.611-2.334z" fill="#D52B1E"/>
</svg>
