<svg xmlns="http://www.w3.org/2000/svg" fill="none" viewBox="0 0 24 24">
  <path fill-rule="evenodd" clip-rule="evenodd" d="M8.942 1.6c-.773 0-1.4.678-1.4 1.515V5.28H2.76a2 2 0 00-2 2v2.061a2 2 0 001.052 1.762c-.136.27-.212.574-.212.897v6.2a2 2 0 002 2h15.2a2 2 0 002-2V12c0-.303-.068-.591-.189-.849a2 2 0 001.149-1.81V7.28a2 2 0 00-2-2h-4.618V3.115c0-.837-.627-1.515-1.4-1.515h-4.8zm5 3.68V3.115c0-.12-.09-.216-.2-.216h-4.4c-.11 0-.2.097-.2.216V5.28h4.8z" fill="#fff"/>
  <path fill-rule="evenodd" clip-rule="evenodd" d="M4.96 19.786a2.658 2.658 0 00-2.66-2.655v2.655h2.66zm12.16-6.827h3.8V11.82h-3.8v1.138z" fill="#CFE6F0"/>
  <path d="M14.84 3.097a1.14 1.14 0 00-1.14-1.138H9.14c-.628 0-1.14.51-1.14 1.138v1.896h.76V3.097c0-.21.17-.38.38-.38h4.56c.21 0 .38.17.38.38v1.896h.76V3.097zm-5.32.379v1.896c0 .21-.17.38-.38.38H7.62a.38.38 0 01-.38-.38V3.097A1.9 1.9 0 019.14 1.2h4.56a1.9 1.9 0 011.9 1.897v2.275c0 .21-.17.38-.38.38H13.7a.38.38 0 01-.38-.38V3.476h-3.8z" fill="#4F5661"/>
  <path d="M5.72 11.062H1.54a.382.382 0 01-.38-.38v-4.55c0-.208.172-.38.38-.38H21.3c.208 0 .38.172.38.38v4.552c0 .207-.172.38-.38.38h-4.18a.38.38 0 100 .758h4.18c.628 0 1.14-.511 1.14-1.138V6.13c0-.627-.512-1.138-1.14-1.138H1.54A1.142 1.142 0 00.4 6.131v4.552c0 .627.512 1.138 1.14 1.138h4.18a.38.38 0 100-.759z" fill="#4F5661"/>
  <path d="M14.84 11.062H8a.38.38 0 100 .759h6.84a.38.38 0 100-.759z" fill="#4F5661"/>
  <path d="M9.9 11.062H8a.38.38 0 100 .759h1.9a.38.38 0 100-.759zm4.94 0h-1.9a.38.38 0 100 .759h1.9a.38.38 0 100-.759zM2.3 11.82h3.42a.38.38 0 100-.758h-3.8a.38.38 0 00-.38.38v7.965c0 .625.495 1.138 1.113 1.138h11.169a.38.38 0 100-.759H2.653c-.192 0-.353-.167-.353-.38v-7.585zm18.24 2.25a.38.38 0 00.76 0v-2.629a.38.38 0 00-.38-.379h-3.8a.38.38 0 100 .759h3.42v2.249z" fill="#4F5661"/>
  <path fill-rule="evenodd" clip-rule="evenodd" d="M2.3 12.959h3.42V11.82H2.3v1.138zm5.7 0h6.84V11.82H8v1.138z" fill="#CFE6F0"/>
  <path d="M7.62 10.303H6.1v2.276h1.52v-2.276zm.095 3.035h-1.71c-.395 0-.665-.36-.665-.759v-2.276c0-.399.27-.758.665-.758h1.71c.395 0 .665.36.665.758v2.276c0 .4-.27.759-.665.759z" fill="#4F5661"/>
  <path fill-rule="evenodd" clip-rule="evenodd" d="M22.82 19.028a3.797 3.797 0 01-3.8 3.793 3.797 3.797 0 01-3.8-3.793 3.797 3.797 0 013.8-3.793c2.098 0 3.8 1.698 3.8 3.793z" fill="#8D9096"/>
  <path d="M22.44 19.028a3.417 3.417 0 00-3.42-3.414 3.417 3.417 0 00-3.42 3.414 3.417 3.417 0 003.42 3.413 3.417 3.417 0 003.42-3.413zm.76 0a4.176 4.176 0 01-4.18 4.172 4.176 4.176 0 01-4.18-4.172 4.176 4.176 0 014.18-4.173 4.176 4.176 0 014.18 4.173z" fill="#8D9096"/>
  <path d="M16.74 10.303h-1.52v2.276h1.52v-2.276zm.095 3.035h-1.71c-.395 0-.665-.36-.665-.759v-2.276c0-.399.27-.758.665-.758h1.71c.395 0 .665.36.665.758v2.276c0 .4-.27.759-.665.759z" fill="#4F5661"/>
  <path fill-rule="evenodd" clip-rule="evenodd" d="M20.559 19.924c0-.714-.75-1.035-1.4-1.25-.541-.183-.79-.36-.79-.62 0-.177.208-.387.59-.387.368 0 .877.276.93.304.08.044.181 0 .234-.066l.255-.316c.047-.055.027-.149-.04-.182a2.71 2.71 0 00-.986-.343v-.526a.166.166 0 00-.166-.166h-.332a.166.166 0 00-.167.166v.52c-.837.1-1.194.6-1.194 1.04 0 .653.629.985 1.258 1.195.563.188.85.382.85.664 0 .238-.26.426-.608.426-.436 0-.978-.326-1.012-.343-.06-.039-.174-.039-.227.039l-.241.343c-.06.088-.027.116.033.166.115.09.5.343 1.141.412v.517c0 .091.075.166.167.166h.332a.166.166 0 00.166-.166v-.522c.749-.107 1.207-.572 1.207-1.071z" fill="#fff"/>
</svg>
