<svg xmlns="http://www.w3.org/2000/svg" fill="none" viewBox="0 0 40 40">
  <path d="M8.333 22l3.334.333V24l-5.334 2-3 2-2 3 4.334 4.333 4.333 2 6.333.667 4.334-.667 4.666-1.666 3.334-2L30.333 31 28 28l-4.333-2.667L20 24v-2h2l3.667-1.333-.667-3 .333-4 .334-4.334-.334-3.666-1.666-2H22l-1.333-1-2.667-2h-4l-3.667 1-2.666 3-1.334 4V13l.334 4.333-1.334 3.334 3 1.333z" fill="#fff"/>
  <path d="M.953 31.333s4.667 5.334 9.334 6L7.62 30.667 8.953 28H7.62l.933-2.847a8.708 8.708 0 00-5.693 3.514L.953 31.333z" fill="#C9E6F1"/>
  <path d="M10.56 38a.667.667 0 01-.607-.393l-2.94-6.667a.667.667 0 01.074-.667l1.2-1.6H7.62a.667.667 0 01-.653-.526.667.667 0 01.006-.3l.667-2.667a.667.667 0 01.807-.513.667.667 0 01.486.806l-.46 1.86H9.62a.667.667 0 01.533 1.067l-1.766 2.353 2.786 6.307a.666.666 0 01-.34.88.665.665 0 01-.273.06z" fill="#4F5763"/>
  <path d="M30.38 31.333s-4.667 5.334-9.333 6l2.666-6.666L22.38 28h1.333l-.933-2.847a8.708 8.708 0 015.693 3.514l1.907 2.666z" fill="#C9E6F1"/>
  <path d="M20.773 38a.667.667 0 01-.613-.933l2.787-6.307-1.767-2.36a.666.666 0 01.533-1.067h1.147l-.46-1.84a.667.667 0 111.293-.32l.667 2.667a.666.666 0 01-.354.76.667.667 0 01-.293.067h-.666l1.2 1.6a.667.667 0 01.08.666L21.38 37.6a.667.667 0 01-.607.4z" fill="#4F5763"/>
  <path d="M24.48 35.147a18.546 18.546 0 01-6.393 2.033l2-12.28 2.373.847.167.133a.62.62 0 00.353.147 5.87 5.87 0 011.547.393.669.669 0 10.486-1.247 7.67 7.67 0 00-1.68-.446l-.126-.06a.615.615 0 00-.234-.127l-2.753-1.007v-3.6c.16-.14.32-.286.467-.44a7.473 7.473 0 002.3-5.173V8.627a.531.531 0 000-.134.864.864 0 000-.126.513.513 0 00-.054-.074.668.668 0 00-.093-.14l-.107-.066a.359.359 0 00-.106-.067.493.493 0 00-.167 0 .333.333 0 00-.087 0 1.033 1.033 0 00-.14 0h-.12a9.96 9.96 0 01-6.253.293 11.079 11.079 0 01-3.573-1.7.667.667 0 00-.494-.12.667.667 0 00-.433.267 6.34 6.34 0 01-2.6 1.907.667.667 0 00-.493.666v5a7.473 7.473 0 002.306 5.187l.347.327a.663.663 0 00-.033.166v3.54l-2.527.974a.613.613 0 00-.233.126l-.114.087a8.254 8.254 0 00-4.94 2.733L.18 30.46a.853.853 0 00-.053.08.393.393 0 00-.067.113.842.842 0 00-.04.12.72.72 0 000 .127.733.733 0 000 .12.707.707 0 000 .127.38.38 0 00.067.113.18.18 0 00.066.073l.08.1c.087.107.167.207.24.28a19.894 19.894 0 005.254 4.32l.073.04a20 20 0 009.82 2.594h.093a20 20 0 009.394-2.347.666.666 0 00-.377-1.25.667.667 0 00-.25.077zm-5.593-11.2l-.74 4.56a4.8 4.8 0 01-2.527.826 6.422 6.422 0 01-2.6-.9l-.8-4.493v-3.1a6.567 6.567 0 003.4 1.16 6.54 6.54 0 003.267-1.073v3.02zM9.6 14.32V9.767a7.772 7.772 0 002.353-1.72 12.296 12.296 0 003.48 1.553c2.035.547 4.179.535 6.207-.033v4.753a6.167 6.167 0 01-1.913 4.24c-1.234 1.253-2.887 2.107-4.107 2.107-1.22 0-2.867-.84-4.093-2.087A6.173 6.173 0 019.6 14.32zM6.38 34.887a18.485 18.485 0 01-4.813-3.947l2.493-2.587A6.86 6.86 0 018.353 26a.62.62 0 00.354-.147l.173-.14 2.16-.826 2.187 12.266a18.608 18.608 0 01-6.774-2.226l-.073-.04zm10.34 2.446h-2.113l-1.274-7.26c.722.35 1.506.55 2.307.594a6.2 6.2 0 002.253-.494l-1.173 7.16z" fill="#4F5763"/>
  <path d="M13.9 17.367a2.994 2.994 0 001.72.546 2.947 2.947 0 001.713-.58c.342-.25.628-.567.84-.933a.667.667 0 00-.493-.992.666.666 0 00-.667.325 1.64 1.64 0 01-.46.52 1.674 1.674 0 01-1.906 0 1.627 1.627 0 01-.474-.526.666.666 0 00-.913-.24.666.666 0 00-.247.906c.222.385.525.717.887.974z" fill="#4F5763"/>
  <path d="M26.567 20.573c0-.033-1.747-2.993-1.14-5.633 1.253-5.433 1.06-9.067-.567-10.8a3.54 3.54 0 00-3.007-1.067c-1.306-1.6-3-3.073-6.9-3.073-3.18 0-5.726 1.04-7.333 3-2.16 2.54-2.74 6.547-1.773 11.913a7.893 7.893 0 01-1.1 5.607.667.667 0 00.206.967 10 10 0 004.627 1.18.667.667 0 000-1.334 8.827 8.827 0 01-3.333-.706 9.24 9.24 0 00.913-5.96C6.267 9.72 6.753 6.08 8.607 3.853 10 2.18 12.14 1.333 14.953 1.333c3.84 0 5.14 1.654 6.087 2.86a.667.667 0 00.633.247 2.313 2.313 0 012.214.613c.733.78 1.74 3.067.24 9.594-.54 2.34.386 4.766.933 5.92a10.605 10.605 0 01-3.333.766.667.667 0 000 1.334 13.602 13.602 0 004.526-1.147.666.666 0 00.36-.407.668.668 0 00-.046-.54z" fill="#4F5763"/>
  <path d="M32.873 39.333c5.4-1.646 6.667-5.193 6.667-5.193v-8l-6.667-2.8-6.666 2.8v8s1.26 3.913 6.666 5.193z" fill="#53C27C"/>
  <path d="M37.213 29.24l-.933-.907-4.307 4.414-2.146-2.02-.867.966 2.713 2.527.347.333 5.193-5.313z" fill="#fff" stroke="#fff" stroke-linejoin="round"/>
</svg>
