<svg xmlns="http://www.w3.org/2000/svg" fill="none" viewBox="0 0 36 37">
  <path d="M12.666 24.333H9c-.534 0-1.778.8-2.333 1.25v6.06c0 1.01 2.333 2.69 3.666 2.69h10.333l2.667-.666L35 25.581 33.333 24l1-1c-1.333-2.155-3.333-2.131-4-1.795-1.551.455-2.338.74-3.666 1.347.11-.224.8-1.28 1.333-2.357 1.333-3.367-.667-7.744-2.334-10.1-1.333-1.886-3-2.807-3.666-3.031v-3.03L23.666.667H14l1.666 3.367v3.03c-.11.112-.933.875-3.333 3.03-3 2.694-3.333 7.744-2.667 10.101.534 1.886 2.223 3.577 3 4.138z" fill="#fff"/>
  <path fill-rule="evenodd" clip-rule="evenodd" d="M25.326 26.513c-1.527.779-3.802 1.212-6.506 1.229-2.704-.017-4.98-.45-6.506-1.23-1.758-.89-2.54-2.24-1.859-3.932.32.896.963 1.009 1.86 1.608 1.525 1.029 3.801 1.602 6.505 1.62 2.704-.018 4.98-.591 6.506-1.62.896-.6 1.538-.712 1.86-1.608.681 1.693-.102 3.042-1.86 3.933zM6.378 24.9v9.01c0 .54-.401 1.01-.971 1.139l-4.77 1.08V23.226l4.617.51c.641.071 1.124.571 1.124 1.165z" fill="#CFE6F0"/>
  <path d="M5.268 34.42c.287-.066.472-.282.472-.51V24.9c0-.252-.227-.486-.555-.522l-3.91-.433v11.379l3.993-.905zm1.747-9.52v9.01c0 .853-.616 1.576-1.469 1.769l-4.769 1.08a.64.64 0 01-.777-.63V23.226a.64.64 0 01.707-.642l4.616.51c.954.106 1.692.871 1.692 1.807z" fill="#4F5661"/>
  <path d="M34.012 25.565l.044.058-10.98 7.373c-.465.307-1.684.565-2.52.565l-9.704-.016c-1.232 0-2.222-.42-3.01-1.126-.324-.292-1.142-1.451-1.465-1.451a.642.642 0 00-.637.645c0 .356.285.645.637.645-.646-.38-.646-.38-.54-.3l.056.097a5.91 5.91 0 001.103 1.33c1.01.905 2.294 1.45 3.855 1.45l9.705.017c1.062 0 2.508-.306 3.222-.779l11.551-7.756a.65.65 0 00.154-.93l-.466-.617a3.592 3.592 0 00-4.524-.958l-.057.034-6.832 4.65a.65.65 0 00-.173.896.633.633 0 00.885.175l6.803-4.63a2.322 2.322 0 012.893.628z" fill="#4F5661"/>
  <path d="M32.654 23.497a.65.65 0 00-.205.889c.187.303.58.395.879.207l1.454-.916a.65.65 0 00.195-.904l-.613-.936c-1.134-1.464-3.081-1.876-4.654-1.018a.65.65 0 00-.259.874c.167.314.554.43.864.262a2.37 2.37 0 013.016.637l.221.34-.898.565zm-25.639 3.6c0-1.07.856-1.936 1.914-1.936a.642.642 0 00.637-.645.642.642 0 00-.637-.645c-1.762 0-3.19 1.444-3.19 3.226 0 .356.286.645.639.645a.642.642 0 00.637-.645zm7.66 3.871h5.74c.704 0 1.275.577 1.275 1.29 0 .713-.571 1.29-1.276 1.29h-7.653a.641.641 0 00-.637.645c0 .357.285.646.637.646h7.653c1.41 0 2.551-1.156 2.551-2.581s-1.142-2.58-2.55-2.58h-5.74a.641.641 0 00-.638.644c0 .357.285.646.638.646z" fill="#4F5661"/>
  <path fill-rule="evenodd" clip-rule="evenodd" d="M22.328 18.494c0-1.425-.911-2.262-2.954-2.715-1.783-.387-1.92-.767-1.92-1.261 0-.565.56-.958 1.363-.958.775 0 1.449.258 2.12.813l.3.25.99-1.33-.283-.231c-.727-.591-1.442-.921-2.287-1.045v-1.149c0-.3-.241-.546-.538-.546h-.538a.543.543 0 00-.538.546v1.184c-1.343.284-2.258 1.274-2.258 2.572 0 1.838 1.46 2.413 3.038 2.762 1.697.364 1.825.722 1.825 1.226 0 .606-.595 1.03-1.446 1.03-.978 0-1.717-.312-2.547-1.074l-.287-.264-1.056 1.268.272.246c.764.693 1.564 1.117 2.46 1.306v1.208c0 .301.24.546.537.546h.538a.542.542 0 00.538-.546v-1.129c1.592-.183 2.67-1.24 2.67-2.709z" fill="#53C27C"/>
  <path d="M18.986 26.452v-1.29h-.332v1.29c.073 0 .12-.001.166-.004.046.003.093.004.166.004zm-.16-1.297l.073.005.087.001v1.29h-.332v-1.29l.087-.001.074-.005h.01zm-7.793-1.31a7.54 7.54 0 01-2.298-3.704c-.518-1.882-.368-4.048.467-6.386.609-1.706 1.665-3.24 3.038-4.6a17.1 17.1 0 013.243-2.509c.15-.088.26-.148.322-.18l.584 1.146a6.702 6.702 0 00-.265.15 15.835 15.835 0 00-2.992 2.316c-1.245 1.233-2.193 2.609-2.73 4.116-.75 2.098-.881 3.992-.437 5.604a6.252 6.252 0 001.912 3.08c1.61 1.443 4.042 2.251 6.943 2.277 2.901-.026 5.333-.834 6.945-2.278a6.253 6.253 0 001.911-3.082c.443-1.609.312-3.503-.438-5.602-.522-1.465-1.372-2.805-2.46-4.012a15.346 15.346 0 00-2.113-1.937c-.251-.19-.483-.354-.69-.49a6.141 6.141 0 00-.247-.156l.638-1.118c.22.129.592.373 1.064.731.78.592 1.56 1.293 2.29 2.1 1.195 1.325 2.134 2.807 2.718 4.444.835 2.338.985 4.504.468 6.382a7.541 7.541 0 01-2.297 3.707c-1.854 1.661-4.573 2.568-7.751 2.6a.46.46 0 01-.076 0c-3.178-.032-5.897-.939-7.75-2.598z" fill="#4F5661"/>
  <path fill-rule="evenodd" clip-rule="evenodd" d="M21.845 7.49a8.645 8.645 0 01-3.025.549c-.717 0-1.796-.09-3.025-.55V4.74c.679.254 1.725.55 3.025.55.717 0 1.796-.09 3.025-.55v2.75z" fill="#CFE6F0"/>
  <path d="M21.207 5.621a9.13 9.13 0 01-2.387.314 9.127 9.127 0 01-2.387-.314v1.406c.824.26 1.62.367 2.387.367.863 0 1.654-.136 2.387-.367V5.621zm.859 2.473a9.17 9.17 0 01-3.246.59 9.168 9.168 0 01-3.246-.59l-.416-.155V3.814l.858.32c.85.318 1.776.51 2.804.51a7.92 7.92 0 002.804-.509l.859-.321v4.125l-.417.155z" fill="#4F5661"/>
  <path d="M19.156 1.29c.85 0 .85-1.29 0-1.29h-.672c-.85 0-.85 1.29 0 1.29h4.163c-.116.182-.23.367-.34.553-.19.32-.362.632-.51.931-.377.763-.59 1.41-.59 1.951h1.276c0-.29.16-.776.455-1.374.133-.267.288-.55.462-.844a19.37 19.37 0 01.972-1.475C24.687.607 24.387 0 23.862 0h-5.378v1.29h.672V0H13.78c-.526 0-.826.607-.51 1.032a19.31 19.31 0 01.972 1.475c.173.294.329.577.461.844.295.598.456 1.084.456 1.374h1.275c0-.541-.213-1.188-.59-1.95-.148-.3-.32-.611-.51-.932-.11-.186-.224-.371-.34-.553h4.163z" fill="#4F5661"/>
</svg>
