<svg xmlns="http://www.w3.org/2000/svg" fill="none" viewBox="0 0 39 36">
  <path fill-rule="evenodd" clip-rule="evenodd" d="M7.349 4h24.646l5.995 6.322c.105 1.187-.578 3.441-3.99 3.508v20.837H5.333v-20.85h-.648c-1.222-.098-3.597-.874-3.331-3.204L7.349 4z" fill="#fff"/>
  <path fill-rule="evenodd" clip-rule="evenodd" d="M32.328 4.417H6.973V.63c0-.348.284-.631.634-.631h24.087c.35 0 .634.283.634.631v3.786z" fill="#FF8979"/>
  <path fill-rule="evenodd" clip-rule="evenodd" d="M4.417 35.333c-2.055 0-6.169-.58-3.597-1.74.756-.342 2.364-.598 4.25-.784v2.524m29.732 0c1.798 0 5.398-.58 3.147-1.74-.661-.342-2.068-.598-3.72-.784v2.524" fill="#CFE6F0"/>
  <path d="M5.705 34.071V15.786a.632.632 0 00-.634-.63.632.632 0 00-.634.63v18.916c0 .349.284.631.634.631H34.23c.35 0 .633-.282.633-.63v-18.93a.632.632 0 00-.633-.63.632.632 0 00-.634.63v18.298H5.705z" fill="#4F5661"/>
  <path d="M27.89 26.5v1.893c0 .348.285.63.635.63.35 0 .634-.282.634-.63V26.5a.632.632 0 00-.634-.63.632.632 0 00-.634.63z" fill="#4F5661"/>
  <path d="M23.453 35.333a.632.632 0 01-.633-.63V20.19c0-.348.284-.63.633-.63h7.607c.35 0 .634.282.634.63v14.512a.632.632 0 01-.634.631h-7.607zm6.973-1.262v-13.25h-6.339v13.25h6.34z" fill="#4F5661"/>
  <path fill-rule="evenodd" clip-rule="evenodd" d="M8.874 27.762H19.65V20.19H8.874v7.572z" fill="#CFE6F0"/>
  <path d="M8.874 28.393a.632.632 0 01-.634-.631V20.19c0-.348.284-.63.634-.63H19.65c.35 0 .634.282.634.63v7.572a.632.632 0 01-.634.63H8.874zm10.142-1.262v-6.31H9.508v6.31h9.508zM1.902 10.737c-.005.595.24 1.173.696 1.632.556.557 1.364.881 2.216.881 1.108 0 2.104-.54 2.6-1.396l.55-.944a.635.635 0 011.097 0l.549.945c.496.854 1.494 1.395 2.609 1.395 1.108 0 2.104-.54 2.6-1.396l.55-.944a.635.635 0 011.097 0l.549.944c.496.855 1.494 1.396 2.609 1.396 1.109 0 2.104-.54 2.601-1.396l.55-.944a.635.635 0 011.097 0l.548.945c.496.854 1.494 1.395 2.609 1.395 1.109 0 2.104-.54 2.602-1.396l.548-.944a.635.635 0 011.098 0l.548.945c.496.854 1.495 1.395 2.61 1.395 1.619 0 2.91-1.15 2.913-2.577l.016-.193-5.663-6.063H7.6l-5.7 6.107v.213zm6.61 1.75c-.73 1.255-2.148 2.025-3.698 2.025-1.184 0-2.318-.454-3.116-1.255-.691-.694-1.072-1.594-1.064-2.525v-.456a.63.63 0 01.17-.43l6.056-6.49a.635.635 0 01.464-.201h24.653c.176 0 .344.073.464.201l6.043 6.47a.63.63 0 01.167.482l-.037.418c0 2.105-1.89 3.786-4.18 3.786-1.555 0-2.977-.77-3.706-2.026-.73 1.256-2.149 2.026-3.7 2.026-1.555 0-2.977-.77-3.705-2.026-.73 1.255-2.149 2.026-3.7 2.026-1.555 0-2.976-.77-3.706-2.026-.73 1.255-2.148 2.026-3.698 2.026-1.556 0-2.978-.77-3.707-2.026z" fill="#4F5661"/>
</svg>
