<svg xmlns="http://www.w3.org/2000/svg" fill="none" viewBox="0 0 37 26">
  <path fill-rule="evenodd" clip-rule="evenodd" d="M31.914 16.671c0-1.312-1.373-1.902-2.563-2.299-.994-.335-1.447-.66-1.447-1.138 0-.326.38-.712 1.079-.712.674 0 1.607.508 1.705.559.147.082.33 0 .429-.122l.466-.58c.086-.101.049-.274-.073-.335a4.957 4.957 0 00-1.806-.63v-.967a.305.305 0 00-.304-.305h-.61a.305.305 0 00-.304.305v.955c-1.533.185-2.189 1.103-2.189 1.914 0 1.2 1.153 1.809 2.306 2.196 1.03.345 1.557.701 1.557 1.22 0 .437-.478.783-1.116.783-.797 0-1.79-.6-1.852-.63-.11-.072-.318-.072-.416.07l-.442.632c-.11.162-.05.212.061.304.211.167.915.631 2.091.759v.95c0 .168.136.305.305.305h.609a.305.305 0 00.304-.306v-.957c1.372-.198 2.21-1.053 2.21-1.971z" fill="#CFE6F0"/>
  <path d="M4.817 16.889h5.42a.603.603 0 000-1.207h-5.42a.603.603 0 000 1.207zm0 3.016h7.226a.603.603 0 000-1.207H4.818a.603.603 0 000 1.207zm10.839-3.016h5.42a.603.603 0 000-1.207h-5.42a.603.603 0 000 1.207zm0 3.016h7.226a.603.603 0 000-1.207h-7.226a.603.603 0 000 1.207z" fill="#4F5661"/>
  <path d="M30.07 0c.16 0 .313.064.426.177l5.457 5.466a.604.604 0 01.177.427v18.66c0 .333-.27.603-.602.603H.602A.603.603 0 010 24.73V.603C0 .27.27 0 .602 0H30.07zm-.25 1.206H1.205v22.921h33.721V6.32l-5.104-5.114z" fill="#4F5661"/>
  <path d="M30.108.603a.603.603 0 10-1.204 0v6.032c0 .333.27.603.602.603h6.021a.603.603 0 000-1.206h-5.42V.603z" fill="#4F5661"/>
  <path fill-rule="evenodd" clip-rule="evenodd" d="M2.994 4.96h1.852l1.102 3.663 1.22-3.681h1.508l1.218 3.681 1.103-3.664h1.815l-2.114 6.379H9.172L7.908 7.692l-1.274 3.646H5.108L2.994 4.959zm14.433 5.012l2.366-1.81c.587-.462.821-.76.821-1.14 0-.407-.28-.651-.713-.651-.424 0-.758.253-1.255.823l-1.183-.986c.677-.878 1.354-1.357 2.573-1.357 1.382 0 2.331.823 2.331 2.017 0 1.031-.524 1.557-1.464 2.235l-1.083.76h2.61v1.43h-5.003V9.971z" fill="#8D9096"/>
  <path d="M16.252 9.373V7.64h-3.387v1.733h3.386z" fill="#8D9096"/>
</svg>
