<svg xmlns="http://www.w3.org/2000/svg" fill="none" viewBox="0 0 21 19">
  <path d="M17.395 18.522h-4.563c.169-.696.54-2.248.676-2.89.135-.643-.056-1.981-.169-2.57l-1.183-3.211 1.014-.321 1.014 1.445 1.014-4.014 1.014-.322 1.352-.32v1.123l1.184-.16v1.284l1.183-.16-.845 3.693c-1.014 1.766-1.521 2.569-1.69 3.532v2.89zm-13.86 0H8.1c-.17-.696-.54-2.248-.676-2.89-.135-.643.056-1.981.169-2.57l1.183-3.211-1.014-.321-1.014 1.445L5.733 6.96l-1.015-.322-1.352-.32v1.123l-1.183-.16v1.284L1 8.406l.845 3.693c1.014 1.766 1.521 2.569 1.69 3.532v2.89z" fill="#fff"/>
  <path d="M3.488 16.132s2.61-.102 3.597-.78l.984 3.17H3.475l.013-2.39zm14.022-.029s-2.65-.106-3.64-.793l-1.014 3.212h4.668l-.014-2.419z" fill="#CFE6F0"/>
  <path d="M12.832 18.438s.726-2.63.726-4.338c0-1.709-1.402-4.48-1.402-4.48.395-.56 1.352-.376 1.652.401l.396.963c.351-1.238.625-2.495.821-3.763.04-.243.172-.464.369-.623.197-.16.448-.246.706-.244h.244s.067 2.187-.656 3.885m.761-3.729a1.04 1.04 0 01.392-.375c.163-.09.348-.138.537-.138h.244s-.024 2.948-.734 4.657" stroke="#4F5661" stroke-width=".507" stroke-linecap="round" stroke-linejoin="round"/>
  <path d="M17.584 7.445c.099-.152.238-.277.404-.363.167-.085.354-.127.542-.121h.244s-.061 2.662-.822 4.348" stroke="#4F5661" stroke-width=".507" stroke-linecap="round" stroke-linejoin="round"/>
  <path d="M18.68 8.534c.126-.155.292-.276.483-.351.19-.076.397-.103.602-.08l.264.026a16.067 16.067 0 01-.997 3.931c-.376.854-1.603 2.04-1.603 4.082 0 1.018.048 2.296 0 2.296m-9.33 0s-.713-2.595-.713-4.28c0-1.687 1.389-4.426 1.389-4.426-.392-.55-1.332-.37-1.63.395l-.398.941a31.575 31.575 0 01-.808-3.719c-.04-.24-.17-.457-.364-.614a1.103 1.103 0 00-.698-.24h-.24s-.067 2.158.646 3.854m-1.183.404c-.7-1.686-.734-4.599-.734-4.599h.24c.186 0 .37.047.53.136.162.088.296.216.39.369" stroke="#4F5661" stroke-width=".507" stroke-linecap="round" stroke-linejoin="round"/>
  <path d="M3.052 11.402c-.75-1.664-.811-4.29-.811-4.29h.24c.187-.004.372.039.536.125.164.087.301.213.397.366" stroke="#4F5661" stroke-width=".507" stroke-linecap="round" stroke-linejoin="round"/>
  <path d="M3.57 18.438c-.048 0 0-1.259 0-2.267 0-2.014-1.214-3.186-1.583-4.03A15.914 15.914 0 011 8.26l.264-.016c.201-.024.406.003.593.077.187.075.351.194.475.347" stroke="#4F5661" stroke-width=".507" stroke-linecap="round" stroke-linejoin="round"/>
  <path d="M9.546 7.224c.29-.321.592-.62.91-.906l.118-.109.057-.051a.266.266 0 00-.057.048.278.278 0 00-.064.289v.01l-.03-.071-.058-.148A3.053 3.053 0 0010.297 6a3.217 3.217 0 00-.16-.273l-.084-.135a.903.903 0 01-.115-.44.878.878 0 01.126-.435.935.935 0 01.33-.326l.061-.032h.038l.074-.035.145-.07c.392-.19.793-.36 1.204-.508a.504.504 0 01.325-.003.476.476 0 01.253.195.437.437 0 01-.091.575c-.332.275-.678.532-1.038.771l-.132.09-.068.048-.033.023a.282.282 0 00.113-.103.263.263 0 00-.005-.286l.06.145c.041.096.088.19.136.282.047.093.108.18.169.267l.088.132.04.067.027.045a.895.895 0 01-.129.967.883.883 0 01-.172.16l-.067.045-.135.09c-.359.234-.73.46-1.116.662a.498.498 0 01-.603-.108.439.439 0 01.008-.583v-.003zM4.404 2.298a7.136 7.136 0 01-.483-.627l-.027-.041a.266.266 0 00.027.038.123.123 0 00.084.045h.03-.1c-.069.003-.136.01-.203.023-.065 0-.132.025-.196.045l-.048.041h-.121a.914.914 0 01-.247 0 .792.792 0 01-.555-.472.882.882 0 01-.04-.128A5.826 5.826 0 012.38.454a.326.326 0 01.037-.242.355.355 0 01.198-.156.376.376 0 01.257.011.35.35 0 01.184.172c.143.221.27.452.378.69.04.097.027.033 0 0a.098.098 0 00-.068-.042H3.3l.068.004c.061-.007.122-.017.182-.032.067-.013.132-.032.196-.055L3.84.775a.827.827 0 01.233-.022.827.827 0 01.622.36.917.917 0 01.05.093l.021.045c.104.24.193.485.267.735a.328.328 0 01-.005.237.35.35 0 01-.166.177.379.379 0 01-.458-.093v-.01zm12.782-1.185c-.265.062-.534.11-.805.144h-.05c-.017 0 0 0 0 0a.128.128 0 00.091-.018.11.11 0 00.033-.033v-.032l-.033.09a2.214 2.214 0 00-.071.183 1.702 1.702 0 00-.037.189v.048a1.47 1.47 0 01-.034.113.81.81 0 01-.125.205.783.783 0 01-.304.213.822.822 0 01-.373.054.656.656 0 01-.142-.023 6.783 6.783 0 01-.79-.202.36.36 0 01-.19-.142.33.33 0 01.051-.43.37.37 0 01.22-.096c.271-.025.545-.033.818-.026.111 0 .044 0 0 0a.116.116 0 00-.081.045.213.213 0 00-.017.042.06.06 0 000 .022v-.045c.024-.06.045-.12.06-.183 0-.064.024-.125.03-.19V.947a.652.652 0 01.082-.21.767.767 0 01.368-.32.88.88 0 01.24-.065.659.659 0 01.109 0h.05c.274.014.546.043.815.087a.366.366 0 01.209.114.332.332 0 01.015.431.363.363 0 01-.2.126l.06.004z" fill="#53C27C"/>
  <path d="M11.172 1.845a.309.309 0 010-.321 1.58 1.58 0 01.605-.597.352.352 0 01.338 0 1.525 1.525 0 01.646.575.31.31 0 010 .32 1.48 1.48 0 01-.268.36c-.099.1-.213.185-.338.254a.352.352 0 01-.338 0 1.55 1.55 0 01-.358-.257 1.431 1.431 0 01-.287-.334zM1.707 4.414a.309.309 0 010-.321 1.58 1.58 0 01.605-.597.352.352 0 01.338 0c.138.066.266.152.379.253.105.1.195.214.267.337a.309.309 0 010 .321 1.484 1.484 0 01-.267.344c-.1.1-.213.185-.338.254a.352.352 0 01-.338 0 1.55 1.55 0 01-.359-.257 1.434 1.434 0 01-.287-.334zm15.212-.321a.31.31 0 010-.321c.073-.125.164-.24.27-.34.1-.1.214-.185.338-.255a.352.352 0 01.338 0c.137.067.264.151.376.251.105.1.195.213.267.337a.31.31 0 010 .321c-.073.126-.164.24-.27.34-.1.1-.214.186-.339.254a.352.352 0 01-.338 0 1.55 1.55 0 01-.358-.256 1.436 1.436 0 01-.284-.331z" fill="#FF8979"/>
  <path d="M5.84 3.136a.174.174 0 010-.093c.07-.204.168-.399.291-.578.086-.13.192-.247.314-.347a.174.174 0 01.217 0c.112.09.207.2.28.32.106.174.184.361.23.556a.174.174 0 010 .094c-.068.204-.165.4-.287.58a1.69 1.69 0 01-.315.348.178.178 0 01-.216 0 1.247 1.247 0 01-.28-.321 1.921 1.921 0 01-.234-.56zm1.691 4.146a1.622 1.622 0 00-.135-.55 1.987 1.987 0 00-.338-.481 2.71 2.71 0 00-.466-.395 3.08 3.08 0 00-.521-.296.413.413 0 01-.225-.221.384.384 0 01.005-.309.415.415 0 01.234-.214.444.444 0 01.324.006h.03c.24.12.467.265.677.43.206.164.393.348.557.55.168.21.301.442.396.69.083.255.117.523.101.79a.293.293 0 01-.08.218.329.329 0 01-.45.023.297.297 0 01-.105-.21l-.004-.031zm6.196-1.285a1.744 1.744 0 01.101-.642c.073-.2.178-.387.311-.556.13-.162.277-.31.44-.44.165-.133.344-.25.534-.347.1-.05.215-.06.322-.028a.418.418 0 01.25.195.383.383 0 01.03.306.407.407 0 01-.207.237l-.037.02a2.305 2.305 0 00-.395.211 1.964 1.964 0 00-.338.286c-.1.103-.182.22-.244.347-.067.129-.11.268-.125.411v.035a.3.3 0 01-.107.211.332.332 0 01-.454-.025.297.297 0 01-.081-.22zm-4.523-3.06a2.055 2.055 0 01-.31-.675 2.401 2.401 0 01-.055-.726c.048-.472.202-.93.45-1.342a.421.421 0 01.255-.181.442.442 0 01.316.04.405.405 0 01.197.238.383.383 0 01-.055.33c-.103.148-.19.305-.26.47a2.45 2.45 0 00-.156.516 1.53 1.53 0 000 .514c.027.168.086.33.173.478v.03a.29.29 0 01.03.23.306.306 0 01-.15.182.334.334 0 01-.243.028.317.317 0 01-.192-.142v.01z" fill="#CFE6F0"/>
</svg>
