<svg xmlns="http://www.w3.org/2000/svg" fill="none" viewBox="0 0 91 87">
  <path d="M77.588 85.392h-21.04c.78-3.208 2.494-10.364 3.117-13.325.623-2.962-.26-9.13-.78-11.845l-5.454-14.806 4.676-1.48 4.675 6.662 4.676-18.507 4.675-1.48 6.234-1.482v5.183l5.455-.74v5.922l5.455-.74L85.38 55.78c-4.676 8.143-7.014 11.845-7.793 16.287v13.325zm-63.899 0h21.04c-.78-3.208-2.494-10.364-3.117-13.325-.624-2.962.26-9.13.78-11.845l5.454-14.806-4.676-1.48-4.675 6.662-4.676-18.507-4.675-1.48-6.234-1.482v5.183l-5.455-.74v5.922L2 38.754 5.896 55.78c4.676 8.143 7.014 11.845 7.793 16.287v13.325z" fill="#fff"/>
  <path d="M13.47 74.376s12.033-.474 16.583-3.598l4.536 14.614h-21.18l.062-11.016zm64.648-.133s-12.219-.489-16.785-3.657l-4.676 14.806H78.18l-.062-11.149z" fill="#CFE6F0"/>
  <path d="M56.548 85.007s3.35-12.126 3.35-20.003c0-7.877-6.467-20.654-6.467-20.654 1.823-2.576 6.234-1.732 7.621 1.85l1.824 4.442a144.44 144.44 0 003.787-17.352 4.685 4.685 0 011.698-2.871 5.148 5.148 0 013.258-1.127h1.122s.312 10.083-3.024 17.916m3.507-17.19a4.82 4.82 0 011.807-1.732 5.14 5.14 0 012.479-.637h1.122s-.11 13.592-3.382 21.468" stroke="#4F5661" stroke-width="2.338" stroke-linecap="round" stroke-linejoin="round"/>
  <path d="M78.458 34.326a4.86 4.86 0 011.867-1.673 5.168 5.168 0 012.497-.562h1.122s-.28 12.274-3.787 20.047" stroke="#4F5661" stroke-width="2.338" stroke-linecap="round" stroke-linejoin="round"/>
  <path d="M83.513 39.346a5.463 5.463 0 012.225-1.62 5.75 5.75 0 012.777-.364l1.216.118a74.073 74.073 0 01-4.598 18.122c-1.73 3.939-7.387 9.402-7.387 18.819 0 4.693.218 10.586 0 10.586m-43.019 0S31.44 73.044 31.44 65.27c0-7.773 6.405-20.403 6.405-20.403-1.808-2.532-6.14-1.702-7.512 1.821l-1.839 4.339a145.571 145.571 0 01-3.724-17.146 4.627 4.627 0 00-1.68-2.83 5.084 5.084 0 00-3.214-1.108h-1.107s-.312 9.95 2.977 17.767m-5.455 1.866c-3.226-7.773-3.381-21.202-3.381-21.202h1.106a5.11 5.11 0 012.446.625 4.795 4.795 0 011.793 1.7" stroke="#4F5661" stroke-width="2.338" stroke-linecap="round" stroke-linejoin="round"/>
  <path d="M11.463 52.567c-3.46-7.67-3.74-19.78-3.74-19.78h1.106a5.084 5.084 0 012.473.58c.756.398 1.387.98 1.829 1.685" stroke="#4F5661" stroke-width="2.338" stroke-linecap="round" stroke-linejoin="round"/>
  <path d="M13.845 85.007c-.218 0 0-5.804 0-10.453 0-9.283-5.595-14.688-7.294-18.581A73.368 73.368 0 012 38.087l1.215-.074a5.635 5.635 0 012.735.356 5.352 5.352 0 012.19 1.598" stroke="#4F5661" stroke-width="2.338" stroke-linecap="round" stroke-linejoin="round"/>
  <path d="M41.4 33.305a57.404 57.404 0 014.193-4.175l.546-.504.265-.237a1.229 1.229 0 00-.265.222c-.17.177-.287.394-.339.628-.052.235-.037.478.043.705v.044l-.14-.325-.266-.681a14.153 14.153 0 00-.576-1.318c-.218-.43-.468-.844-.733-1.259l-.39-.622a4.166 4.166 0 01-.53-2.028 4.046 4.046 0 01.58-2.01 4.31 4.31 0 011.525-1.499l.28-.148h.172l.343-.163.67-.326a58.678 58.678 0 015.548-2.339 2.323 2.323 0 011.5-.013c.487.162.899.48 1.165.9.266.419.37.913.292 1.398a2.075 2.075 0 01-.713 1.254 57.066 57.066 0 01-4.784 3.553l-.608.415-.312.222-.156.103a1.3 1.3 0 00.521-.475 1.21 1.21 0 00.18-.665 1.426 1.426 0 00-.202-.651l.28.666c.188.444.406.874.624 1.303.218.43.499.83.78 1.229l.404.607.187.31.125.208c.081.158.149.321.203.489a4.13 4.13 0 01.118 2.077 4.242 4.242 0 01-.913 1.89c-.23.28-.496.529-.795.741l-.312.207-.623.415a62.463 62.463 0 01-5.143 3.05c-.45.242-.977.325-1.486.234a2.222 2.222 0 01-1.295-.73 2.023 2.023 0 01-.497-1.35c.007-.492.196-.965.535-1.337v-.015zM17.695 10.593c-.795-.933-1.559-1.896-2.229-2.888l-.125-.192c.036.063.078.122.125.178a.57.57 0 00.39.207h.14-.468a6.694 6.694 0 00-.935.104c-.296 0-.607.118-.904.207l-.218.192h-.56a4.178 4.178 0 01-1.139 0 3.652 3.652 0 01-1.979-1.229 3.544 3.544 0 01-.577-.947 4.063 4.063 0 01-.187-.592 26.865 26.865 0 01-.67-3.539c-.09-.38-.029-.777.172-1.116.2-.339.527-.595.915-.718.388-.124.81-.106 1.186.05.375.155.676.438.844.792a24.59 24.59 0 011.746 3.183c.187.445.125.148 0 0a.451.451 0 00-.312-.192h-.312l.312.015c.284-.031.565-.08.842-.148.307-.062.61-.146.904-.252l.436-.133a3.81 3.81 0 011.075-.104 3.91 3.91 0 012.12.844c.29.236.541.51.748.814.078.134.203.356.234.43l.093.207a30.46 30.46 0 011.232 3.39c.128.356.12.743-.025 1.093a1.61 1.61 0 01-.763.817 1.745 1.745 0 01-1.139.154 1.681 1.681 0 01-.972-.583v-.044zM76.622 5.13c-1.223.287-2.461.51-3.71.665h-.233c-.078 0 0 0 0 0a.59.59 0 00.424-.081.515.515 0 00.152-.155V5.41l-.156.414c-.124.286-.233.568-.327.844a7.89 7.89 0 00-.171.874v.222a5.096 5.096 0 01-.156.518c-.143.34-.337.66-.577.947-.375.43-.855.767-1.398.981a3.77 3.77 0 01-1.719.248 3.025 3.025 0 01-.654-.103 31.287 31.287 0 01-3.647-.933 1.657 1.657 0 01-.878-.652 1.521 1.521 0 01.24-1.983c.274-.254.63-.41 1.012-.445a32.309 32.309 0 013.771-.118c.515 0 .203 0 0 0a.565.565 0 00-.374.207.995.995 0 00-.078.193.282.282 0 000 .103V6.52c.115-.276.208-.558.28-.844 0-.296.11-.577.141-.874V4.36a3 3 0 01.374-.962 3.538 3.538 0 011.699-1.48c.351-.15.724-.25 1.106-.297a3.21 3.21 0 01.5 0h.233c1.26.061 2.514.195 3.756.4.375.065.714.25.963.524.249.273.392.62.404.981a1.53 1.53 0 01-.334 1.006 1.672 1.672 0 01-.924.583l.28.015z" fill="#53C27C"/>
  <path d="M48.897 8.505a1.424 1.424 0 010-1.48 7.172 7.172 0 011.231-1.585 7.28 7.28 0 011.559-1.17 1.622 1.622 0 011.558 0 7.525 7.525 0 011.746 1.17c.48.438.893.936 1.231 1.48a1.424 1.424 0 010 1.481 6.826 6.826 0 01-1.231 1.659c-.457.46-.982.853-1.559 1.17a1.622 1.622 0 01-1.558 0 7.151 7.151 0 01-1.652-1.185 6.61 6.61 0 01-1.325-1.54zM5.259 20.35a1.424 1.424 0 010-1.48 7.172 7.172 0 011.231-1.585 7.278 7.278 0 011.559-1.17 1.622 1.622 0 011.558 0 7.524 7.524 0 011.746 1.17c.485.46.9.984 1.231 1.554a1.425 1.425 0 010 1.481 6.845 6.845 0 01-1.231 1.584 6.8 6.8 0 01-1.559 1.17 1.622 1.622 0 01-1.558 0 7.149 7.149 0 01-1.652-1.184 6.61 6.61 0 01-1.325-1.54zm70.133-1.48a1.424 1.424 0 010-1.481 7.179 7.179 0 011.247-1.57 7.282 7.282 0 011.558-1.17 1.622 1.622 0 011.559 0 7.523 7.523 0 011.73 1.155 7 7 0 011.231 1.555 1.424 1.424 0 010 1.48 6.857 6.857 0 01-1.247 1.57c-.457.46-.982.854-1.558 1.17a1.622 1.622 0 01-1.559 0 7.15 7.15 0 01-1.652-1.185 6.613 6.613 0 01-1.309-1.525z" fill="#FF8979"/>
  <path d="M24.318 14.457a.804.804 0 010-.43c.322-.94.772-1.836 1.34-2.664a7.36 7.36 0 011.45-1.6.805.805 0 01.498-.17.81.81 0 01.499.17c.517.42.954.921 1.293 1.481a8.858 8.858 0 011.06 2.562.804.804 0 010 .429 11.037 11.037 0 01-1.324 2.68 7.795 7.795 0 01-1.45 1.599.821.821 0 01-.997 0 5.747 5.747 0 01-1.294-1.48 8.86 8.86 0 01-1.075-2.577zm7.792 19.114a7.48 7.48 0 00-.623-2.531 9.163 9.163 0 00-1.558-2.221 12.497 12.497 0 00-2.151-1.822 14.203 14.203 0 00-2.4-1.362 1.903 1.903 0 01-1.04-1.022c-.19-.458-.18-.97.027-1.42a1.914 1.914 0 011.076-.988 2.05 2.05 0 011.495.025h.14a18.362 18.362 0 013.117 1.984c.95.754 1.812 1.603 2.572 2.532a11.881 11.881 0 011.824 3.183 9.876 9.876 0 01.467 3.642c.02.37-.114.731-.374 1.006s-.625.44-1.013.46c-.388.02-.77-.108-1.059-.355a1.367 1.367 0 01-.484-.963l-.015-.148zm28.568-5.922a8.037 8.037 0 01.468-2.961 9.092 9.092 0 011.434-2.562 12.793 12.793 0 012.026-2.028 14.25 14.25 0 012.462-1.599 2.04 2.04 0 011.485-.133c.494.144.907.469 1.15.903.241.434.291.941.14 1.41-.152.47-.494.862-.951 1.092l-.172.089c-.64.267-1.251.594-1.823.977a9.039 9.039 0 00-1.559 1.318 6.145 6.145 0 00-1.122 1.599 5.287 5.287 0 00-.576 1.895v.163c-.023.373-.2.722-.495.97-.293.25-.679.377-1.072.355a1.514 1.514 0 01-1.022-.47 1.367 1.367 0 01-.373-1.018zm-20.853-14.11a9.473 9.473 0 01-1.434-3.11 11.071 11.071 0 01-.25-3.345c.223-2.18.93-4.289 2.074-6.19A1.942 1.942 0 0141.392.06a2.038 2.038 0 011.457.184c.442.24.767.634.907 1.099.14.464.082.963-.16 1.388a1.038 1.038 0 01-.093.133 12.147 12.147 0 00-1.2 2.162 11.3 11.3 0 00-.717 2.383 7.125 7.125 0 000 2.37 6.4 6.4 0 00.795 2.205v.134c.192.322.242.703.138 1.06a1.41 1.41 0 01-.691.842c-.34.183-.74.23-1.116.131a1.46 1.46 0 01-.887-.656v.044z" fill="#CFE6F0"/>
</svg>
