<svg xmlns="http://www.w3.org/2000/svg" fill="none" viewBox="0 0 88 38">
  <rect x=".277" y="8.277" width="87.447" height="29.447" rx="14.723" fill="#fff" stroke="#BABEC5" stroke-width=".553"/>
  <g filter="url(#MuTrfjETba)">
    <path d="M13.094 1.499h25.82l-1.844 9.59H11.25l1.844-9.59z" fill="#393A3D"/>
  </g>
  <path d="M19.887 8.976l.894-5.065h-1.173l-.573 3.34h-.014l-1.388-3.34h-1.338l-.894 5.065h1.173l.572-3.363h.022l1.395 3.363h1.324zm4.608 0l.179-1.023H22.37l.186-1.088h2.003l.172-.958h-2.004l.172-.98h2.104l.178-1.016h-3.24l-.895 5.065h3.449zm8.42-5.065h-1.252l-1.51 3.405h-.021l-.272-3.405h-1.23l-1.575 3.405h-.021l-.15-3.405h-1.26l.444 5.065h1.18l1.682-3.463h.021l.344 3.463h1.188l2.432-5.065zm1.193 3.377l.6-3.377h-1.173l-.594 3.377h1.166zm-.05 1.03c0-.344-.265-.601-.637-.601a.701.701 0 00-.702.715c0 .35.265.601.644.601.401 0 .694-.322.694-.715z" fill="#fff"/>
  <path d="M26.048 21l-1.27-6.372h-.962L19.658 21h1.314l.909-1.467h2.727l.26 1.467h1.18zm-1.593-2.421H22.42l1.61-2.673.424 2.673zM32.14 21l1.125-6.372h-1.107l-.846 4.797h-.018l-2.052-4.797h-1.44L26.678 21h1.107l.873-4.95h.018L30.764 21h1.377zm8.154 0l.171-.99H37.28l.324-1.827h2.79l.171-.936h-2.799l.288-1.647h2.934l.171-.972h-4.014L36.02 21h4.275zm5.868 0l-1.485-3.312 2.664-3.06H46.01l-1.818 2.232-.882-2.232h-1.224l1.296 2.97L40.394 21h1.386l2.088-2.529L44.903 21h1.26zm3.833-6.372h-1.917L46.954 21h1.098l.468-2.646h.963c1.593 0 2.682-.612 2.682-2.052 0-1.044-.774-1.674-2.169-1.674zm-.468 2.79h-.846l.333-1.854h.81c.711 0 1.224.18 1.224.855 0 .756-.621.999-1.521.999zM56.713 21l.171-.99h-3.186l.324-1.827h2.79l.171-.936h-2.799l.288-1.647h2.934l.171-.972h-4.014L52.438 21h4.275zm4.518-2.844c1.017-.225 1.674-.864 1.674-1.881 0-1.026-.8-1.647-2.196-1.647h-1.89L57.694 21h1.09l.467-2.718h.846L61.303 21h1.251l-1.323-2.844zm-.99-.783h-.828l.324-1.809h.801c.747 0 1.224.198 1.224.828 0 .675-.558.981-1.52.981zm8.031-1.773l.171-.972h-4.878l-.171.972h1.89l-.945 5.4h1.107l.954-5.4h1.872zm-51.13 11l.171-.972h-3.942L12.246 32h1.107l.477-2.7h2.664l.162-.936h-2.664l.315-1.764h2.835zm1.212 5.4l1.125-6.372h-1.107L17.247 32h1.107zm5.346 0l.171-.99h-2.727l.954-5.382h-1.107L19.866 32H23.7zm5.038 0l.17-.99h-3.185l.324-1.827h2.79l.17-.936H26.21l.288-1.647h2.934l.17-.972h-4.013L24.463 32h4.275zm5.805-5.706c-.387-.549-1.161-.828-1.8-.828-1.251 0-2.412.702-2.412 1.98 0 .99.657 1.395 1.422 1.674.62.225 1.152.495 1.152 1.08 0 .756-.648 1.026-1.242 1.026-.585 0-1.116-.297-1.35-.72l-.9.621c.45.711 1.359 1.035 2.196 1.035 1.197 0 2.466-.576 2.466-2.034 0-.972-.63-1.485-1.737-1.89-.54-.198-.882-.423-.882-.873 0-.72.71-.981 1.17-.981.45 0 .864.18 1.107.558l.81-.648zm7.49.306l.17-.972h-3.941L37.137 32h1.107l.477-2.7h2.664l.162-.936h-2.664l.315-1.764h2.835zm4.01-1.134c-2.105 0-3.698 1.764-3.698 3.933 0 1.71 1.197 2.763 3.069 2.763 2.106 0 3.645-1.764 3.645-3.933 0-1.71-1.197-2.763-3.015-2.763zm-.63 5.724c-1.241 0-1.925-.864-1.925-1.908 0-1.44.963-2.862 2.502-2.862 1.242 0 1.926.864 1.926 1.908 0 1.44-.9 2.862-2.502 2.862zm7.724-2.034c1.017-.225 1.673-.864 1.673-1.881 0-1.026-.8-1.647-2.196-1.647h-1.89L49.6 32h1.088l.468-2.718h.846L53.209 32h1.252l-1.324-2.844zm-.99-.783h-.828l.323-1.809h.801c.748 0 1.224.198 1.224.828 0 .675-.558.981-1.52.981zm11.039-2.745h-1.35l-2.133 2.7-1.062-2.7h-1.242l1.593 3.609L58.506 32h1.107l.495-2.763 3.078-3.609zm3.037-.162c-2.106 0-3.699 1.764-3.699 3.933 0 1.71 1.197 2.763 3.07 2.763 2.105 0 3.644-1.764 3.644-3.933 0-1.71-1.197-2.763-3.015-2.763zm-.63 5.724c-1.242 0-1.926-.864-1.926-1.908 0-1.44.963-2.862 2.502-2.862 1.242 0 1.926.864 1.926 1.908 0 1.44-.9 2.862-2.502 2.862zm9.658-1.53l.711-4.032h-1.116l-.702 3.987c-.135.747-.495 1.575-1.665 1.575-.909 0-1.26-.549-1.26-1.161 0-.126.01-.288.036-.414l.702-3.987H70.85l-.71 4.032c-.037.18-.046.351-.046.513 0 1.215.9 1.989 2.367 1.989 1.638 0 2.52-.99 2.79-2.502z" fill="#393A3D"/>
  <defs>
    <filter id="MuTrfjETba" x="9.775" y=".392" width="30.615" height="12.541" filterUnits="userSpaceOnUse" color-interpolation-filters="sRGB">
      <feFlood flood-opacity="0" result="BackgroundImageFix"/>
      <feColorMatrix in="SourceAlpha" type="matrix" values="0 0 0 0 0 0 0 0 0 0 0 0 0 0 0 0 0 0 127 0" result="hardAlpha"/>
      <feOffset dy=".369"/>
      <feGaussianBlur stdDeviation=".738"/>
      <feColorMatrix type="matrix" values="0 0 0 0 0 0 0 0 0 0 0 0 0 0 0 0 0 0 0.2 0"/>
      <feBlend mode="normal" in2="BackgroundImageFix" result="effect1_dropShadow_1017_45600"/>
      <feBlend mode="normal" in="SourceGraphic" in2="effect1_dropShadow_1017_45600" result="shape"/>
    </filter>
  </defs>
</svg>
