<svg xmlns="http://www.w3.org/2000/svg" fill="none" viewBox="0 0 139 101">
  <g filter="url(#0oDvkSFxRa)">
    <path d="M139 59.384L50.305 0H13l126 85.65V59.384z" fill="#fff"/>
  </g>
  <path d="M37.477 9.61l3.896 2.623.688-1.023-2.747-1.848 3.66-5.44-1.15-.773-4.347 6.461zm4.66 3.137l1.15.774 4.348-6.462-1.15-.773-4.347 6.46zm2.576 1.733l1.095.737 3.495-5.193.018.013-1.56 6.494.803.54 5.457-3.872.018.012-3.494 5.193 1.14.768 4.348-6.462-1.806-1.215-4.75 3.472-.028-.018 1.41-5.72-1.798-1.21-4.348 6.461zm8.396 5.65l1.15.773 4.347-6.461-1.15-.774-4.347 6.461zm3.88 2.61l1.15.775 3.673-5.458 1.98 1.333.675-1.004-5.11-3.44-.676 1.005 1.98 1.332-3.672 5.458zm3.882 2.613l4.445 2.99.687-1.021-3.294-2.217 1.228-1.826 2.966 1.996.651-.967-2.966-1.996 1.106-1.643 3.13 2.107.675-1.004-4.28-2.88-4.348 6.46zm5.57 3.748l2.291 1.541c1.688 1.137 4.22 1.434 5.742-.829 1.634-2.427.294-4.496-1.394-5.632l-2.29-1.541-4.35 6.46zm1.826-.23l3.009-4.472.958.645c1.187.798 2.255 2.087 1.008 3.94-1.173 1.743-2.83 1.33-4.017.532l-.958-.645zm8.508 7.183l1.15.774 3.672-5.457 1.98 1.332.676-1.004-5.111-3.439-.675 1.004 1.98 1.333-3.672 5.457zm3.881 2.613l1.15.773 4.348-6.46-1.15-.775-4.348 6.462zm2.576 1.733l1.095.737 3.495-5.193.018.012-1.56 6.495.803.54 5.457-3.872.018.012-3.494 5.193 1.14.768 4.348-6.462-1.807-1.216-4.75 3.473-.027-.018 1.41-5.72-1.798-1.21-4.348 6.46zm8.395 5.65l4.445 2.99.688-1.022-3.295-2.217 1.228-1.826 2.966 1.996.651-.967-2.966-1.996 1.106-1.643 3.13 2.107.676-1.004-4.28-2.88-4.349 6.461zm9.728 1.825c-1.357 2.017-.827 4.402 1.162 5.74 2.017 1.358 4.426.95 5.783-1.067 1.394-2.071.803-4.365-1.214-5.722-1.989-1.34-4.337-1.023-5.731 1.049zm1.25.841c.897-1.332 2.476-1.768 3.809-.871 1.341.903 1.532 2.53.636 3.862-.927 1.378-2.506 1.774-3.83.883-1.314-.884-1.542-2.496-.615-3.874zm4.619 7.828l1.15.774 1.83-2.72 2.847 1.916.651-.967-2.847-1.916 1.191-1.77 3.021 2.032.675-1.004-4.17-2.806-4.348 6.461zm5.231 3.52l1.15.774 1.83-2.72 2.848 1.917.651-.968-2.848-1.916 1.192-1.77 3.02 2.032.676-1.003-4.171-2.807-4.348 6.462zm5.232 3.52l4.444 2.992.688-1.023-3.294-2.216 1.228-1.826 2.966 1.996.651-.967-2.966-1.996 1.105-1.643 3.13 2.106.676-1.003-4.28-2.88-4.348 6.46zm5.57 3.749l1.15.774 1.842-2.738.84.565-.346 3.745 1.387.933.204-4.026c1.039.407 2.025.183 2.651-.748.921-1.37.079-2.639-1.135-3.456l-2.245-1.51-4.348 6.461zm3.625-2.904l1.222-1.816 1.04.7c.594.4 1.17 1.04.698 1.742-.529.785-1.372.442-2.02.006l-.94-.632z" fill="#D52B1E"/>
  <defs>
    <filter id="0oDvkSFxRa" x=".819" y="-9.136" width="150.363" height="110.012" filterUnits="userSpaceOnUse" color-interpolation-filters="sRGB">
      <feFlood flood-opacity="0" result="BackgroundImageFix"/>
      <feColorMatrix in="SourceAlpha" type="matrix" values="0 0 0 0 0 0 0 0 0 0 0 0 0 0 0 0 0 0 127 0" result="hardAlpha"/>
      <feOffset dy="3.045"/>
      <feGaussianBlur stdDeviation="6.091"/>
      <feColorMatrix type="matrix" values="0 0 0 0 0 0 0 0 0 0 0 0 0 0 0 0 0 0 0.2 0"/>
      <feBlend mode="normal" in2="BackgroundImageFix" result="effect1_dropShadow_735_134025"/>
      <feBlend mode="normal" in="SourceGraphic" in2="effect1_dropShadow_735_134025" result="shape"/>
    </filter>
  </defs>
</svg>
