<svg xmlns="http://www.w3.org/2000/svg" fill="none" viewBox="0 0 348 349">
  <ellipse fill="#fff" rx="92.205" ry="92.912" transform="matrix(1 0 -.0032 1 179.349 232.277)"/>
  <path d="M93.335 98.717l-.298 92.911 26.035-31.938.195-60.973c.065-20.324 28.972-49.36 63.549-49.36s57.516 34.843 57.47 49.36l-.195 60.973c6.893 6.968 20.08 28.067 25.811 37.745l.316-98.718c.065-20.324-25.691-75.49-83.319-75.49-57.627 0-89.453 40.648-89.564 75.49z" fill="#fff"/>
  <g clip-rule="evenodd" fill-rule="evenodd">
    <path d="M179.12 303.633c-39.166 0-70.872-32.241-70.745-71.939.127-39.694 32.039-71.934 71.205-71.934 39.167 0 70.872 32.24 70.745 71.934-.127 39.698-32.039 71.939-71.205 71.939zm.531-166.012c-51.263 0-92.946 42.113-93.112 94.073-.166 51.965 41.247 94.073 92.51 94.073s92.946-42.108 93.112-94.073c.167-51.96-41.247-94.073-92.51-94.073z" fill="#cfe6f0"/>
    <path d="M200.009 221.245c.037-11.529-9.184-20.905-20.558-20.905-11.375 0-20.655 9.376-20.692 20.905-.024 7.709 4.131 14.372 10.255 17.994l-.076 23.816h20.625l.076-23.816c6.147-3.622 10.345-10.285 10.37-17.994z" fill="#ff8979"/>
    <path d="M179.066 320.543c-48.334 0-87.528-39.855-87.37-88.846s39.604-88.847 87.938-88.847 87.528 39.856 87.371 88.847c-.156 48.991-39.605 88.846-87.939 88.846zm57.261-169.66c-15.989-11.592-35.514-18.485-56.659-18.485-21.146 0-40.715 6.893-56.777 18.485l.126-39.39c.101-31.698 25.629-57.49 56.902-57.49 31.272 0 56.635 25.792 56.534 57.49zm-139.091-39.39c.147-46.106 37.279-83.62 82.766-83.62 45.488 0 82.379 37.514 82.232 83.62l-.214 66.864a99.019 99.019 0 00-15.408-18.877l.153-47.987c.12-37.462-29.853-67.942-66.813-67.942-36.959 0-67.128 30.48-67.248 67.942l-.153 47.987a99.898 99.898 0 00-15.529 18.877zm174.188 86.317c.493-.8.851-1.688.854-2.697l.268-83.62c.166-51.871-41.335-94.073-92.51-94.073s-92.947 42.202-93.112 94.073l-.268 83.62c-.003 1.009.35 1.897.837 2.697-3.85 10.593-6.072 21.971-6.11 33.887-.175 54.755 43.628 99.299 97.65 99.299 54.021 0 98.109-44.544 98.285-99.299.038-11.916-2.112-23.294-5.894-33.887z" fill="#4f5661"/>
  </g>
</svg>
