<svg xmlns="http://www.w3.org/2000/svg" fill="none" viewBox="0 0 94 98">
  <mask id="2wW_TvSJ-vVa" maskUnits="userSpaceOnUse" x="0" y="0" width="94" height="98">
    <path d="M49.36.056C70.01-1.08 62.666 15.155 83.296 33.811c16.368 14.81 19.339 68.624-44.358 63.024C-24.758 91.235-2.4 2.899 49.36.056z" fill="#CFE6F0"/>
  </mask>
  <g mask="url(#2wW_TvSJ-vVa)">
    <path d="M31.156 66.339s3.915 16.768 4.87 22.427c1.098 6.469.309 17.525.309 17.525l7.237.277s1.782-11.781 1.878-17.11c.058-3.018 1.189-12.932 1.189-12.932s3.845 4.874 3.792 13.237a163.248 163.248 0 01-1.195 17.189s8.15-.325 7.68-.282c-2.09.208 2.09-12.304 1.979-17.467-.112-5.163-3.392-21.173-3.392-21.173S40.75 63.859 37.71 65.667c-3.04 1.808-6.555.672-6.555.672z" fill="#fff"/>
    <path d="M155.504 80.99c-29.941 23.05-69.226 3.813-77.818-30.4-3.67-14.624 7.429-31.467 30.202-30.838" stroke="#fff" stroke-width="1.067" stroke-linecap="round" stroke-linejoin="round"/>
    <path d="M46.64 76.526s-.773 11.488-1.067 14.128c-.293 2.64-1.04 8.96-1.04 8.96m11.169-30.022s3.499 16.672 3.43 19.312c-.07 2.64-1.387 8.955-1.387 8.955" stroke="#4D5662" stroke-width="1.067" stroke-linecap="round" stroke-linejoin="round"/>
  </g>
</svg>
