<svg xmlns="http://www.w3.org/2000/svg" fill="none" viewBox="0 0 325 340">
  <clipPath id="N_yPSYgZQa">
    <path d="M.656 0h337v340h-337z"/>
  </clipPath>
  <clipPath id="N_yPSYgZQb">
    <path d="M0 0h101.87v102.096H0z" transform="rotate(-11.386 317.947 -757.982) skewX(-.053)"/>
  </clipPath>
  <g clip-path="url(#N_yPSYgZQa)">
    <path d="M32.301 234.057c32.558-20.449 67.404-36.849 94.249-67.578 34.884-39.932 105.071-129.542 157.284-70.192 27.09 30.793 13.903 57.355 20.196 94.609 8.343 49.394 61.69 74.808 14.127 127.501-42.891 33.067-59.415 14.022-152.439 18.937-20.455-2.721-39.168 0-94.86 0-55.693 0-104.357-57.263-38.557-103.277z" fill="#f1fbff"/>
    <path d="M35.862 336.907c6.377-13.273 2.436-37.711 14.79-32.757 10.563 4.229-1.217 33.038-14.79 32.757z" fill="#cfe6f0"/>
    <path d="M38.389 336.857c-9.156-21.114-1.666-58.973-21.118-52.038-16.624 5.938.049 51.624 21.118 52.038z" fill="#cfe6f0"/>
    <path clip-rule="evenodd" d="M47.921 315.618a.994.994 0 01.737 1.197 57.607 57.607 0 01-5.86 14.944 48.417 48.417 0 01-2.56 4.062 31.772 31.772 0 01-1.002 1.345l-.06.073-.016.02-.005.006-.002.002v.001l-.764-.636.763.636a.993.993 0 11-1.527-1.273l.002-.002.01-.013.049-.059a29.697 29.697 0 00.93-1.247 46.549 46.549 0 002.451-3.894 55.634 55.634 0 005.657-14.425.994.994 0 011.197-.737zm-26.77-14.81a.995.995 0 011.005.984l-.994.011.994-.011v-.001.033l.004.12c.004.108.011.272.024.491.027.436.077 1.088.175 1.933.196 1.689.578 4.149 1.326 7.202 1.496 6.106 4.453 14.584 10.298 24.019a.994.994 0 11-1.69 1.047c-5.97-9.634-9-18.311-10.54-24.593-.768-3.14-1.165-5.683-1.369-7.447a37.783 37.783 0 01-.184-2.041 20.982 20.982 0 01-.031-.686v-.054l-.001-.001.994-.011-.994.01a.995.995 0 01.984-1.005z" fill="#fff" fill-rule="evenodd"/>
    <path d="M243.144 159.42c0 7.203-4.77 8.403-4.77 8.403.657.486-.143 10.977 2.599 11.206 2.799.257 12.569-8.804 12.569-8.804-3.028-2.402-3.028-5.603-1.885-9.348" fill="#ce9367"/>
    <path d="M209.894 131.922h7.084l-.257 22.981 22.51 12.549s-2.171 5.202 3.914 6.403c6.713 1.315 9.541-4.402 9.541-4.402s5.856.6 11.055 5.802c1.828 1.83 12.026 13.206 14.797 19.924 1.028 2.458-.315 5.231-2.971 6.202-5.256 1.916-12.198 5.003-18.282 10.176l-1.943-7.66s6.113-5.174 11.969-8.118l-8.541-8.661s-3.913 4.002-3.656 10.547l.2 33.101-29.223-1.801c-3.857-21.409-1.143-44.048 1.028-50.365l-20.082-20.552c-.799-1.001 2.857-26.126 2.857-26.126z" fill="#ff8979"/>
    <path d="M216.492 324.572l-.885 5.403h6.57l1-5.403z" fill="#ce9367"/>
    <path d="M223.004 329.982h-8.37l-1.742 2.83s-3.885.771-6.056.771-3.914 1.83-3.428 3.602l20.253-1.115z" fill="#4f5661"/>
    <path d="M256.427 203.003c-5.057 3.688-6.971 6.089-5.457 9.919s4.657 6.489 6.399 4.059c1.743-2.43-.171-9.09-.171-9.09m-.772 116.681l.314 5.403h-6.541l-.743-5.403z" fill="#ce9367"/>
    <path d="M232.003 248.567l4.2 7.032 11.054 68.974h13.683l-5.656-95.929a70.325 70.325 0 01-18.939-.801c-3.885-.714-7.312-1.657-10.226-2.687l-12.598 99.417h10.912c5.571-21.41 11.141-42.791 16.711-64.201" fill="#cfe6f0"/>
    <path clip-rule="evenodd" d="M231.858 247.94a.73.73 0 00-.254 1l4.128 6.941 11.061 68.807a.73.73 0 00.721.614h13.654a.729.729 0 100-1.459h-13.033l-10.985-68.332a.723.723 0 00-.093-.257l-4.199-7.06a.73.73 0 00-1-.254z" fill="#4f5661" fill-rule="evenodd"/>
    <path d="M249.628 329.982h8.369l1.743 2.83s3.885.771 6.056.771 3.913 1.83 3.428 3.602l-20.253-1.115z" fill="#4f5661"/>
    <path clip-rule="evenodd" d="M225.917 225.054a.73.73 0 00-.812.636l-12.05 98.793a.726.726 0 00.724.818h10.912a.729.729 0 100-1.459h-10.089l11.951-97.976a.73.73 0 00-.636-.812z" fill="#4f5661" fill-rule="evenodd"/>
    <path d="M247.748 40.82c1.405-.791 2.613-1.736 3.799-2.725a41.492 41.492 0 003.315-3.185 34.86 34.86 0 002.942-3.537c.9-1.253 1.778-2.549 2.437-4.02a.91.91 0 00-.439-1.209.882.882 0 00-.812.022c-1.428.747-2.679 1.67-3.887 2.658-1.185.989-2.327 2.021-3.381 3.142a41.857 41.857 0 00-3.008 3.493c-.922 1.23-1.822 2.505-2.525 3.933a1.1 1.1 0 00.505 1.472c.374.153.747.131 1.054-.044zm-60.751-1.45c-.702-1.45-1.602-2.703-2.525-3.933-.944-1.23-1.954-2.373-3.007-3.493a38.357 38.357 0 00-3.382-3.142c-1.207-.967-2.459-1.89-3.886-2.658-.439-.242-.988-.066-1.229.395a.957.957 0 00-.022.813c.68 1.472 1.537 2.768 2.437 4.02a41.8 41.8 0 002.942 3.537 45.554 45.554 0 003.315 3.186c1.186.989 2.393 1.955 3.799 2.724.526.308 1.207.11 1.492-.417.22-.33.22-.725.066-1.033zm14.008-4.219c-.659-2.944-1.537-5.8-2.481-8.634s-1.998-5.624-3.096-8.392a142.066 142.066 0 00-3.578-8.195c-1.296-2.702-2.635-5.36-4.238-7.93a.865.865 0 00-1.207-.286c-.33.197-.461.57-.395.922.614 2.966 1.471 5.822 2.371 8.678a141.885 141.885 0 003.03 8.415 158.926 158.926 0 003.512 8.216c1.252 2.703 2.591 5.383 4.128 7.975.307.506.966.681 1.471.374.395-.242.593-.703.483-1.143zm32.891.769c1.537-2.592 2.854-5.272 4.127-7.975a158.073 158.073 0 003.513-8.216 141.911 141.911 0 003.03-8.415c.922-2.834 1.757-5.712 2.371-8.678.088-.483-.197-.944-.68-1.032a.842.842 0 00-.922.395c-1.581 2.57-2.942 5.251-4.238 7.931a160.029 160.029 0 00-3.579 8.195c-1.119 2.768-2.151 5.558-3.095 8.392s-1.823 5.69-2.481 8.634a1.074 1.074 0 00.812 1.275c.461.11.922-.11 1.142-.506zm-18.332-24.76c-.483 1.956-.703 3.889-.879 5.844-.153 1.955-.219 3.889-.219 5.844s.11 3.889.285 5.844c.198 1.955.461 3.889.988 5.844a.891.891 0 001.098.637.93.93 0 00.637-.637c.527-1.955.79-3.889.988-5.844.197-1.955.285-3.889.285-5.844s-.066-3.889-.219-5.844c-.176-1.955-.396-3.888-.879-5.844-.153-.593-.724-.944-1.317-.79a1.012 1.012 0 00-.768.79z" fill="#cfe6f0"/>
    <path d="M216.748 132.01c.972-6.289 4.21-10.613 4.82-11.24 1.283-1.316-2.649-1.343-3.835 0-1.838 2.081-.717 3.323-4.187 3.054-3.461-.268-5.208-.688-9.817-1.975l6.382 10.161" fill="#ce9367"/>
    <g clip-path="url(#N_yPSYgZQb)">
      <path d="M265.497 110.834l-9.249-46.146-17.769-10.9-71.57 14.414 12.038 60.063z" fill="#fff"/>
      <path clip-rule="evenodd" d="M252.789 92.576c-.658-3.283-4.383-4.07-7.553-4.464-2.649-.34-3.944-.926-4.183-2.121-.164-.815.591-1.974 2.336-2.325 1.684-.34 4.268.464 4.537.542.409.13.827-.167 1.011-.521l.872-1.685c.163-.297-.015-.711-.351-.802-.563-.212-2.45-.8-4.823-.67l-.485-2.418a.777.777 0 00-.914-.611l-1.52.306a.777.777 0 00-.607.917l.479 2.39c-3.737 1.233-4.912 3.861-4.505 5.888.601 3.003 3.785 3.95 6.857 4.337 2.746.347 4.24.973 4.5 2.271.22 1.095-.801 2.2-2.393 2.52-1.99.401-4.77-.601-4.94-.646-.31-.123-.831-.018-1.005.388l-.785 1.8c-.196.463-.017.559.304.733.611.31 2.602 1.118 5.602.847l.476 2.376a.776.776 0 00.914.611l1.52-.306a.779.779 0 00.607-.917l-.48-2.397c3.324-1.185 4.989-3.746 4.529-6.043z" fill="#cfe6f0" fill-rule="evenodd"/>
      <g fill="#4f5661">
        <path d="M185.248 106.745l13.53-2.724a1.539 1.539 0 001.201-1.813 1.536 1.536 0 00-1.806-1.207l-13.53 2.725a1.54 1.54 0 00.605 3.019zm1.513 7.548l18.04-3.633a1.539 1.539 0 001.201-1.812 1.535 1.535 0 00-1.806-1.207l-18.04 3.633c-.831.167-1.368.978-1.201 1.812s.976 1.374 1.806 1.207zm25.547-12.997l13.53-2.725c.83-.167 1.368-.979 1.201-1.812s-.976-1.374-1.806-1.207l-13.53 2.725a1.538 1.538 0 00-1.201 1.812 1.535 1.535 0 001.806 1.207zm1.512 7.547l18.041-3.633c.83-.167 1.367-.978 1.2-1.812s-.975-1.374-1.806-1.207l-18.04 3.633a1.54 1.54 0 00.605 3.019z"/>
        <path d="M239.823 51.782a1.53 1.53 0 011.152.228l16.367 10.937c.338.226.574.578.654.978l9.36 46.701a1.539 1.539 0 01-1.201 1.812l-87.196 17.56a1.536 1.536 0 01-1.806-1.207l-12.101-60.38a1.537 1.537 0 011.2-1.813zm-.017 3.144l-71.445 14.388 11.497 57.362 84.189-16.954-8.932-44.566z"/>
        <path d="M240.219 53.272a1.534 1.534 0 00-1.805-1.207 1.538 1.538 0 00-1.201 1.813l3.025 15.095a1.535 1.535 0 001.806 1.207l15.034-3.028c.83-.167 1.367-.979 1.2-1.812s-.975-1.374-1.806-1.207l-13.53 2.725z"/>
      </g>
      <path clip-rule="evenodd" d="M174.712 77.806l4.623-.93 4.589 8.616 1.197-9.828 3.766-.758 4.89 8.601.914-9.724 4.532-.913-2.078 17.026-3.811.768-4.984-8.49-1.352 9.766-3.81.767zm38.546 5.289l5.001-5.719c1.234-1.451 1.669-2.316 1.478-3.267-.204-1.018-1.024-1.488-2.106-1.27-1.06.213-1.768 1.015-2.722 2.691l-3.449-1.873c1.251-2.537 2.702-4.078 5.745-4.69 3.45-.695 6.232.888 6.831 3.876.518 2.58-.528 4.16-2.533 6.33l-2.324 2.445 6.517-1.313.717 3.578L213.92 86.4z" fill="#53c27c" fill-rule="evenodd"/>
      <path d="M210.024 82.188l-.87-4.338-8.455 1.703.87 4.338z" fill="#53c27c"/>
    </g>
    <path d="M216.748 132.01c.972-6.289 4.21-10.613 4.82-11.24 1.283-1.316-2.649-1.343-3.835 0-1.838 2.081-.717 3.323-4.187 3.054-3.461-.268-1.914 2.759-6.523 1.472l3.088 6.714" fill="#ce9367"/>
    <path d="M244.864 140.684a8.71 8.71 0 00-.834.985l-2.179 2.996a7.322 7.322 0 00-1.191 2.692l-1.456-.969c-11.052-7.414 2.341-8.088 1.626-12.767-1.025-6.568 3.955-7.579 8.729-7.78 2.858-.122 7.997-3.261 14.906 1.37 6.908 4.63 5.166 10.339 8.507 14.862 4.87 6.604-4.821 8.644-2.45 13.881 2.381 5.21-5.484 8.526-10.593 4.326l-2.686-1.815c.842-.549 1.599-1.196 2.188-2.035.37-.527.793-1.944.793-1.944l.377-1.783c.267-.353.678-.879.866-1.265" fill="#4f5661"/>
    <path d="M243.497 135.388l-4.018 8.693c-2.389 5.812-.113 15.439 4.989 17.748l.899.392c4.26 1.932 10.685-1.122 14.082-5.59a12.374 12.374 0 001.676-2.831l.261-.63 2.783-6.37c-2.706-1.031-3.145-3.808-2.245-7.145-.019.069-8.931 4.33-18.427-4.267z" fill="#ce9367"/>
    <path clip-rule="evenodd" d="M248.653 147.175a.73.73 0 00-.797-.656c-1.905.186-3.371 1.236-3.867 2.467-.255.631-.264 1.368.18 1.981.432.595 1.174.911 2.074.989a.731.731 0 00.123-1.456c-.665-.058-.928-.266-1.018-.391-.078-.107-.125-.286-.008-.574.245-.609 1.154-1.415 2.66-1.562a.729.729 0 00.653-.798z" fill="#4f5661" fill-rule="evenodd"/>
    <path d="M250.292 155.729c-.148 2.076-2.475 3.667-4.209 3.263-1.734-.403-3.037-2.411-2.885-4.496.148-2.076 1.807-.688 3.541-.285 1.734.404 3.705-.567 3.553 1.518z" fill="#fff"/>
    <path d="M245.987 141.746c-.518.996-.387 2.078.289 2.438.677.359 1.651-.158 2.161-1.147.518-.996.387-2.079-.296-2.431-.669-.366-1.636.144-2.154 1.14zm5.612 3.13c-.583.958-.526 2.047.125 2.452.651.404 1.658-.046 2.233-.998.584-.959.526-2.048-.132-2.446-.643-.41-1.642.033-2.226.992z" fill="#4f5661"/>
    <path clip-rule="evenodd" d="M289.341 336.028c7.814.084 12.886.182 14.153.303a1.423 1.423 0 01.099 2.822c-.671.111-2.293.197-4.6.275-2.359.079-5.554.15-9.465.216-7.822.13-18.53.234-31.193.313-25.327.159-58.488.221-92.055.2-67.104-.042-135.925-.411-146.963-.987a1.424 1.424 0 01.017-2.845c11.027-.448 79.682-.674 146.713-.675 33.529 0 66.669.055 92.023.167 12.677.056 23.409.127 31.271.211z" fill="#cfe6f0" fill-rule="evenodd"/>
    <path d="M59.63 267.271a.373.373 0 01.251.457c-.164.794-.774 2.682-3.225 3.464-2.36.741-3.307 3.282-3.626 4.604-.103.352-.516.601-.78.456l-2.46-1.358c-.176-.097-.257-.323-.159-.541.35-.965 1.48-3.587 4.653-4.47 1.995-.579 2.629-1.932 2.84-2.769.103-.351.425-.56.735-.457z" fill="#53c27c"/>
    <path d="M179.395 205.755l1.804 2.856c.169.267-.135.586-.439.404l-2.805-1.843c-.738-.469-1.622-.47-2.387.018l-2.881 1.833c-.27.172-.586-.128-.4-.433l1.878-2.822a2.159 2.159 0 00.01-2.384l-1.804-2.855c-.169-.268.134-.586.439-.405l2.805 1.843c.737.469 1.621.47 2.387-.017l2.881-1.834c.27-.172.585.128.4.434l-1.878 2.822a2.212 2.212 0 00-.01 2.383zm122.692 75.249l3.018 1.575c.282.148.178.58-.18.576l-3.382-.181c-.882-.033-1.655.416-2.078 1.231l-1.593 3.067c-.15.288-.577.187-.569-.174l.218-3.42a2.17 2.17 0 00-1.194-2.086l-3.017-1.575c-.283-.148-.178-.58.179-.576l3.382.181c.882.034 1.655-.416 2.078-1.231l1.594-3.067c.149-.288.576-.187.568.174l-.218 3.42a2.225 2.225 0 001.194 2.086z" fill="#a898ff"/>
    <path clip-rule="evenodd" d="M38.096 258.305l2.436-.145a.816.816 0 00.602-.31l1.438-1.848c.458-.588 1.452-.295 1.529.451l.24 2.344a.847.847 0 00.347.589l1.981 1.448c.63.461.361 1.404-.414 1.45l-2.436.146a.823.823 0 00-.603.309l-1.437 1.848c-.458.589-1.452.296-1.53-.451l-.24-2.343a.837.837 0 00-.346-.589l-1.98-1.449c-.632-.461-.363-1.404.413-1.45z" fill="#fff" fill-rule="evenodd"/>
    <path d="M303.584 144.045c0 1.26-.949 2.224-2.189 2.224s-2.188-.964-2.188-2.224c0-1.261.948-2.225 2.188-2.225s2.189.964 2.189 2.225z" fill="#53c27c"/>
    <path d="M310.75 305.223c-.05.211-.2.422-.4.422-.749.105-2.596.105-3.595-2.319-.949-2.267-3.446-2.425-4.694-2.372-.35 0-.6-.316-.5-.685l.999-3.11a.5.5 0 01.499-.368c.949.052 3.496.421 4.695 3.478.749 1.95 2.097 2.161 2.896 2.108.3 0 .549.264.499.633z" fill="#34bfff"/>
    <path clip-rule="evenodd" d="M292.063 129.326l-.496 2.949a1.02 1.02 0 00.195.803l1.744 2.221c.555.707-.055 1.815-.938 1.704l-2.774-.351a.99.99 0 00-.776.253l-2.213 1.972c-.705.627-1.722.048-1.564-.89l.496-2.949a1.026 1.026 0 00-.194-.805l-1.744-2.22c-.555-.707.055-1.815.938-1.703l2.774.349a.981.981 0 00.775-.251l2.214-1.972c.705-.628 1.721-.049 1.563.89zM125.037 239.488l-.361 2.143a.741.741 0 00.141.583l1.268 1.615c.403.513-.04 1.318-.682 1.237l-2.016-.255a.722.722 0 00-.564.184l-1.608 1.433c-.512.455-1.25.035-1.136-.646l.361-2.143a.75.75 0 00-.141-.585l-1.267-1.613c-.404-.514.039-1.319.681-1.238l2.016.254a.714.714 0 00.563-.183l1.609-1.432c.512-.457 1.25-.036 1.136.646z" fill="#fff" fill-rule="evenodd"/>
    <path d="M112.146 232.625c.132.337-3.837-1.687-3.506-1.754-.331.135 1.654-3.912 1.72-3.575-.133-.337 3.837 1.687 3.506 1.754.397-.135-1.588 3.912-1.72 3.575z" fill="#ff8979"/>
    <path d="M303.034 167.857l2.973 1.356c.303.124.182.555-.122.555h-3.276c-.849 0-1.577.494-1.941 1.296l-1.335 3.022c-.121.308-.546.185-.546-.124v-3.33c0-.864-.485-1.604-1.274-1.974l-2.973-1.357c-.303-.123-.182-.555.121-.555h3.276c.85 0 1.578-.493 1.942-1.295l1.335-3.022c.121-.308.546-.185.546.123v3.331c0 .863.485 1.603 1.274 1.974z" fill="#a898ff"/>
    <path d="M176.957 145.604c0 1.178-.886 2.079-2.045 2.079s-2.045-.901-2.045-2.079.886-2.079 2.045-2.079 2.045.901 2.045 2.079zm129.924 115.922c-.767.996-2.103 1.176-3.082.415-.98-.761-1.142-2.104-.375-3.099.768-.996 2.103-1.176 3.083-.415.979.76 1.142 2.103.374 3.099z" fill="#ff8979"/>
    <path d="M186.419 225.473c-.768.996-2.104 1.175-3.083.415-.98-.761-1.142-2.104-.375-3.1.768-.995 2.103-1.175 3.083-.415.98.761 1.142 2.104.375 3.1z" fill="#34bfff"/>
    <path clip-rule="evenodd" d="M210.129 132.031a.73.73 0 01.537.881l-.003.009-.007.031-.029.122c-.025.108-.063.268-.11.477-.095.416-.23 1.024-.391 1.785a136.832 136.832 0 00-1.142 6.108c-.804 4.915-1.517 11.044-1.198 16.031a.667.667 0 00.148.378c4.242 5.337 9.25 10.33 13.205 13.993a163.717 163.717 0 004.901 4.363 133.384 133.384 0 001.801 1.507l.097.079.024.019.007.006-.456.569-.457.569-.01-.008-.026-.021-.1-.081a115.57 115.57 0 01-1.827-1.529 165.849 165.849 0 01-4.945-4.402c-3.982-3.689-9.049-8.737-13.356-14.156a2.127 2.127 0 01-.462-1.193c-.33-5.157.406-11.419 1.214-16.359a138.393 138.393 0 011.55-7.983l.113-.487.03-.127.008-.032.003-.011.693.167-.693-.168a.729.729 0 01.881-.537zm17.952 46.815a.73.73 0 01-1.025.112l.457-.569.456-.569a.73.73 0 01.112 1.026z" fill="#4f5661" fill-rule="evenodd"/>
    <path d="M146.56 288.557c.12.163.247.326.36.488a26.883 26.883 0 011.903 3.048 23.664 23.664 0 011.796 4.221c3.017 9.616-1.622 17.074-1.622 17.074l-.608 16.762c5.494 0 6.108 5.586 6.108 5.586h-14.045l-2.444-14.279c-.1.054-.193.109-.293.17a35.154 35.154 0 01-6.422 2.938 35.009 35.009 0 01-10.381 1.86c.38 1.14.747 2.28 1.121 3.42l.1.305c.902 0 1.629.184 2.23.496 1.409.726 2.076 2.124 2.383 3.264.274 1.011.274 1.826.274 1.826h-21.376s-4.886-6.21-4.272-15.521c.087-.896.314-1.785.647-2.667.034-.115.08-.224.134-.332.814-1.989 2.189-3.936 3.912-5.803.327-.359.681-.719 1.041-1.072 6.062-5.999 15.321-10.94 19.781-13.125 1.595-.787 2.576-1.214 2.576-1.214s-.126-.177-.34-.503a26.145 26.145 0 01-1.702-3.067c-.788-1.642-1.603-3.739-2.037-6.047-.68-3.617-.453-7.757 2.25-11.489a12.54 12.54 0 011.736-1.961c6.542-5.965 14.753 1.343 14.753 1.343l6.256-1.411 4.739-1.072c.594 2.28.634 4.309.321 6.087-1.329 7.445-8.879 10.675-8.879 10.675z" fill="#e2b481"/>
    <path d="M155.433 277.882c-2.523-.482-4.519-2.477-5.06-5.015l4.74-1.072c.594 2.28.634 4.309.32 6.087z" fill="#4f5661"/>
    <path d="M130.065 272.771a12.09 12.09 0 011.342 1.982c1.142 2.063 1.402 4.072.995 5.836-1.175 5.029-7.851 7.988-15.361 4.188 0 0 5.701-10.635 13.024-12.006z" fill="#ce9367"/>
    <path d="M140.959 277.977c-1.602-2.111-3.045-2.844-3.405-1.941-.381.964.634 3.34.708 3.509.006-.006.768-.977 2.697-1.568z" fill="#4f5661"/>
    <path clip-rule="evenodd" d="M148.027 283.296a.73.73 0 01.443.932l-.687-.245.687.245v.001l-.001.003-.002.005-.005.013-.015.04a3.351 3.351 0 01-.266.509c-.188.293-.5.68-.975.948-.496.279-1.122.4-1.857.212-.712-.182-1.485-.643-2.338-1.444a.729.729 0 11.998-1.064c.749.703 1.311.994 1.701 1.094.367.094.608.027.781-.07.193-.109.348-.285.461-.462a1.778 1.778 0 00.142-.27l.004-.009a.728.728 0 01.929-.438z" fill="#4f5661" fill-rule="evenodd"/>
    <path d="M110.531 314.094c-3.124 2.314-5.981 3.332-8.511 3.461a9.925 9.925 0 01-4.353-.719c-3.645-1.473-6.101-4.927-6.93-8.192l-.006-.006c-.4-1.582-.427-3.115-.02-4.357 2.036-6.203 4.573-3.617 4.573-3.617-1.97 5.164-.814 9.372 2.21 11.041 1.662.909 3.885 1.059 6.462.176h.007a15.896 15.896 0 003.144-1.52c.193-.115.387-.237.581-.366l.794 1.147z" fill="#e2b481"/>
    <path clip-rule="evenodd" d="M97.127 304.142a.73.73 0 01.335.974l-.001.002a4.769 4.769 0 00-.206.591 6.555 6.555 0 00-.227 1.735c.001 1.447.451 3.469 2.362 5.654a.73.73 0 01-1.098.961c-2.154-2.464-2.722-4.832-2.723-6.614 0-.884.138-1.611.28-2.123a6.141 6.141 0 01.267-.772l.023-.05.007-.015.003-.006v-.002l.001-.001.655.321-.654-.322a.73.73 0 01.976-.333zm-6.241 9.355a.729.729 0 00-1.035 1.028l.52-.512-.52.513.001.001.002.002.005.004.013.013.04.038a6.463 6.463 0 00.667.518c.47.32 1.18.736 2.178 1.15 1.997.829 5.131 1.648 9.767 1.707a.73.73 0 10.019-1.459c-4.47-.057-7.418-.845-9.226-1.596-.905-.376-1.528-.743-1.916-1.008a5.113 5.113 0 01-.5-.384 3.246 3.246 0 01-.014-.015h-.001z" fill="#e2b481" fill-rule="evenodd"/>
    <path d="M148.831 292.099a25.06 25.06 0 01-.748.502c-8.398 5.402-17.323 3.352-18.966 2.905a26.482 26.482 0 01-1.702-3.068c1.983.516 11.122 2.436 19.507-3.386a27.18 27.18 0 011.642 2.572c.093.156.187.312.267.475z" fill="#4f5661"/>
    <path d="M151.394 292.771c.608 1.412.194 2.966-.928 3.469-1.122.502-2.524-.238-3.138-1.65-.608-1.412-.194-2.966.928-3.468 1.122-.503 2.524.237 3.138 1.649z" fill="#ffca00"/>
    <g clip-rule="evenodd" fill-rule="evenodd" fill="#4f5661">
      <path d="M118.486 331.593a.731.731 0 011.02-.16l-.43.59.43-.59.001.001.003.002.006.005.022.016.071.055a7.204 7.204 0 01.954.927c.514.604 1.117 1.528 1.184 2.642a.729.729 0 11-1.456.088c-.039-.651-.408-1.278-.839-1.784a5.714 5.714 0 00-.75-.73l-.046-.035-.01-.008a.73.73 0 01-.16-1.019zm.159 1.019h.001zm2.893-1.019a.73.73 0 011.019-.16l-.429.59.429-.59.002.001.002.002.007.005.021.016.071.055a7.094 7.094 0 01.955.927c.514.604 1.117 1.528 1.184 2.642a.73.73 0 01-1.456.088c-.04-.651-.408-1.278-.839-1.784a5.714 5.714 0 00-.569-.578c-.077-.067-.14-.118-.181-.152l-.046-.035-.01-.008a.73.73 0 01-.16-1.019zm.159 1.019h.001z"/>
      <path d="M111.766 318.525a.728.728 0 011.028-.088c2.845 2.396 3.683 5.239 3.799 7.474a11.32 11.32 0 01-.229 2.899c2.338-.002 4.621.029 6.538.658 1.112.366 2.124.937 2.974 1.829.849.89 1.504 2.064 1.952 3.589a.728.728 0 11-1.399.412c-.397-1.349-.95-2.304-1.608-2.994-.656-.688-1.448-1.145-2.375-1.449-1.792-.589-3.997-.587-6.565-.585h-.468a.73.73 0 01-.685-.98v-.002l.685.252-.685-.251.002-.007.014-.04c.012-.038.031-.096.054-.174.045-.157.106-.391.165-.687.117-.593.222-1.43.173-2.395-.099-1.917-.805-4.347-3.282-6.433a.73.73 0 01-.088-1.028zm33.592 13.068a.73.73 0 011.019-.16l-.43.59.43-.59.001.001.003.002.007.005.021.016.071.055a7.204 7.204 0 01.954.927c.514.604 1.117 1.528 1.184 2.642a.728.728 0 11-1.456.088c-.039-.651-.408-1.278-.839-1.784a5.714 5.714 0 00-.75-.73l-.046-.035-.009-.008a.73.73 0 01-.16-1.019zm.158 1.019h.002zm2.898-1.019a.73.73 0 011.019-.16l-.429.59.429-.59.002.001.002.002.007.005.021.016.071.055a7.094 7.094 0 01.955.927c.514.604 1.117 1.528 1.184 2.642a.73.73 0 01-1.456.088c-.04-.651-.408-1.278-.839-1.784a5.714 5.714 0 00-.569-.578c-.077-.067-.14-.118-.181-.152l-.046-.035-.01-.008a.73.73 0 01-.16-1.019zm.159 1.019h.001zm2.892-1.019a.73.73 0 011.019-.16l-.429.59.429-.59.002.001.002.002.007.005.021.016.071.055a7.094 7.094 0 01.955.927c.514.604 1.116 1.528 1.184 2.642a.73.73 0 01-1.456.088c-.04-.651-.408-1.278-.839-1.784a5.822 5.822 0 00-.569-.578c-.077-.067-.14-.118-.182-.152a.976.976 0 00-.046-.035l-.009-.008a.73.73 0 01-.16-1.019zm.159 1.019h.001z"/>
      <path d="M141.597 318.48a.73.73 0 01-.03 1.031c-4.403 4.158-9.579 6.066-13.631 6.937a32.805 32.805 0 01-5.037.684 25.17 25.17 0 01-1.475.041c-.173-.001-.308-.004-.401-.006l-.108-.004-.029-.001-.009-.001h-.003l.038-.729-.039.729a.73.73 0 01.078-1.457h.004l.021.001.09.003c.081.003.204.005.364.006.321.001.793-.006 1.388-.039a31.393 31.393 0 004.811-.653c3.887-.836 8.788-2.654 12.936-6.572a.73.73 0 011.032.03z"/>
    </g>
    <path d="M83.975 313.809c-2.59-1.839-3.958-5.28-3.444-8.449.087-.828.961-3.936 2.196-3.074a.68.68 0 01.214.699c-1.322 4.024-.12 6.501 1.996 9.874.42.638-.367 1.398-.962.95zm14.187-14.761c2.01.801 3.231 3.115 3.151 5.266-.006.781-.414 2.932-1.602 2.267a.663.663 0 01-.26-.489c-.06-1.072.08-2.205-.394-3.216-.407-1.045-1.242-1.839-1.763-2.851-.3-.549.307-1.214.868-.977zm-9.826 12.853c-2.11-.447-3.705-2.511-3.979-4.648-.127-.754-.067-2.979 1.202-2.511a.705.705 0 01.34.434c.24 1.045.287 2.192.922 3.102.574.963 1.528 1.601 2.21 2.504.386.502-.1 1.255-.695 1.119zm11.703-16.918c3.05 1.636 5.08 5.117 5 8.632.033.855-.434 4.357-1.809 3.665-.281-.177-.368-.502-.294-.801.908-4.499-.908-7.2-3.725-10.424-.514-.563.173-1.452.828-1.072z" fill="#cfe6f0"/>
    <path d="M108.475 311.135c-.822.068-1.623.17-2.41.292-.721.116-1.429.265-2.11.448.995-.346 2.05-.848 3.144-1.52 6.062-5.999 15.321-10.94 19.781-13.125 9.913 17.821-5.802 12.854-18.405 13.905z" fill="#ce9367"/>
  </g>
</svg>
