<svg xmlns="http://www.w3.org/2000/svg" fill="none" viewBox="0 0 34 29">
  <path d="M19.548 16.05s-1.11 7.71-.16 10.208a.717.717 0 00.672.454h3.579c-.4-1.46-2.096-2.016-2.096-2.016l2.933-9.545c1.146-2.488 3.317-3.055 4.698-3.253.08 0 .16-.026.24-.032.976-.123 1.872-.139 2.448-.69.267-.259.452-.59.534-.952.062-.247.101-.5.117-.755l-.49-1.166s-1.2-.31-2.55-2.627c-3.2-5.483-7.717-.053-7.717-.053-1.067 1.123-1.872 4.232-4.8 4.232-7.419 0-10.694 1.07-10.603 5.029.09 3.959 2.587 4.092 7.627 3.916 5.04-.177 8.122-1.53 8.122-1.53" fill="#CE9367"/>
  <path d="M16.034 17.575s-.928 7.543-.134 9.988a.615.615 0 00.566.444h2.992a3.046 3.046 0 00-1.75-1.974l2.454-9.336-4.128.878zm-5.387-1.702s-.928 7.544-.133 9.984a.606.606 0 00.533.444h2.997a3.047 3.047 0 00-1.749-1.97l2.453-9.335-4.101.877z" fill="#CE9367"/>
  <path d="M10.79 16.055l-2.453 9.336a3.05 3.05 0 011.755 1.974H7.094a.606.606 0 01-.56-.444c-.794-2.445 0-11.77 0-11.77l4.256.904z" fill="#CE9367"/>
  <path d="M31.281 8.362c1.686-.663 2.198.278 1.515 1.279-.683 1-.608.807-1.728.283s-.688-1.214.213-1.562z" fill="#4F5661"/>
  <path d="M6.61 15.547c-3.654.364-6.4-3.37-6.603-6.591-.086-1.305.661-2.632 1.45-.08 1.03 3.311 4.182 4.237 6.742 2.359l-1.59 4.312z" fill="#CE9367"/>
  <path d="M28.306 7.04c-1.206-1.958-2.203-1.492-1.632.776l1.632-.775z" fill="#4F5661"/>
  <path d="M21.063 6.832c-1.152-3.59.592-5.125.592-5.125s.81 1.696 1.69 3.135l-2.282 1.99z" fill="#CE9367"/>
  <path d="M22.807 5.853C22.716 1.198 25.319 0 25.319 0s.362 2.295.896 4.312l-3.408 1.54z" fill="#CE9367"/>
  <path d="M31.862 11.176c-.576.535-1.472.567-2.448.69-.08 0-.16 0-.24.032a1.757 1.757 0 01-.23-1.439c1.302.835 2.065 1.033 2.918.717z" fill="#4F5661"/>
  <path d="M28.978 11.385c-1.499 1.321-1.53 2.771-.118 2.739 1.414-.032 1.2-2.38 1.2-2.38l-1.082-.36z" fill="#FF9C8A"/>
</svg>
