<svg xmlns="http://www.w3.org/2000/svg" fill="none" viewBox="0 0 29 29">
  <path d="M23.178.203L1.048 4.501a1.067 1.067 0 00-.845 1.25l4.21 21.68c.113.58.673.957 1.251.845l22.13-4.298c.579-.112.957-.672.844-1.25l-4.21-21.68a1.067 1.067 0 00-1.25-.845z" fill="#fff"/>
  <path d="M22.29 7.905l-3.25.632 2.455 12.643 3.251-.631-2.455-12.644z" fill="#00C475"/>
  <path d="M18.148 13.581l-2.53.491 1.544 7.948 2.529-.491-1.543-7.948zm-3.632 4.454l-2.528.49.841 4.336 2.53-.491-.843-4.335zm-4.056 2.288l-2.529.491.561 2.89 2.53-.49-.562-2.89z" fill="#C8E6F0" stroke="#C8E6F0" stroke-width="1.067" stroke-linejoin="round"/>
  <path d="M8.177 14.406A28.138 28.138 0 0019.5 3.206m-2.598.134l2.89-.566.56 2.891" stroke="#4D5662" stroke-width="1.067" stroke-linecap="round" stroke-linejoin="round"/>
  <path d="M3.083 9.393l3.152 16.261a.736.736 0 00.864.582l20.224-3.926" stroke="#4D5662" stroke-width="1.067" stroke-linecap="round" stroke-linejoin="round"/>
</svg>
