<svg xmlns="http://www.w3.org/2000/svg" fill="none" viewBox="0 0 60 61">
  <g clip-path="url(#lr8qjpf4Oa)">
    <path d="M12.5 33.5l5 .5v2.5l-8 3-4.5 3L2 47l6.5 6.5 6.5 3 9.5 1 6.5-1 7-2.5 5-3 2.5-4-3.5-4.5-6.5-4-5.5-2v-3h3l5.5-2-1-4.5.5-6 .5-6.5L38 9l-2.5-3H33l-2-1.5-4-3h-6L15.5 3l-4 4.5-2 6V20l.5 6.5-2 5 4.5 2z" fill="#fff"/>
    <path d="M1.43 47.5s7 8 14 9l-4-10 2-4h-2l1.4-4.27a13.059 13.059 0 00-8.54 5.27l-2.86 4z" fill="#CFE6F0"/>
    <path d="M15.84 57.5a1 1 0 01-.91-.59l-4.41-10a1 1 0 01.11-1l1.8-2.4h-1a1 1 0 01-.79-.38 1 1 0 01-.18-.86l1-4a1 1 0 011.21-.77 1 1 0 01.73 1.21l-.69 2.79h1.72a1 1 0 01.8 1.6l-2.65 3.53 4.18 9.46a.998.998 0 01-.51 1.32 1 1 0 01-.41.09z" fill="#4F5661"/>
    <path d="M45.57 47.5s-7 8-14 9l4-10-2-4h2l-1.4-4.27a13.058 13.058 0 018.54 5.27l2.86 4z" fill="#CFE6F0"/>
    <path d="M31.16 57.5a.998.998 0 01-.92-1.4l4.18-9.46-2.65-3.54a1 1 0 01.8-1.6h1.72l-.69-2.76a.999.999 0 011.494-1.124 1.001 1.001 0 01.446.644l1 4a1 1 0 01-.18.86 1 1 0 01-.79.38h-1l1.8 2.4a1 1 0 01.12 1l-4.42 10a1 1 0 01-.91.6z" fill="#4F5661"/>
    <path d="M36.72 53.22a27.823 27.823 0 01-9.59 3.05l3-18.42 3.56 1.27.25.2c.15.127.335.204.53.22.797.09 1.577.289 2.32.59a1.004 1.004 0 00.73-1.87 11.505 11.505 0 00-2.52-.67l-.19-.09a.918.918 0 00-.35-.19l-4.13-1.51v-5.4c.24-.21.48-.43.7-.66a11.21 11.21 0 003.45-7.76v-8.54a.788.788 0 000-.2 1.282 1.282 0 000-.19.757.757 0 00-.08-.11.996.996 0 00-.14-.21l-.16-.1a.537.537 0 00-.16-.1.739.739 0 00-.25 0 .496.496 0 00-.13 0 1.533 1.533 0 00-.21 0h-.18a14.94 14.94 0 01-9.38.44 16.622 16.622 0 01-5.36-2.55 1 1 0 00-.74-.18 1 1 0 00-.65.4 9.51 9.51 0 01-3.9 2.86 1 1 0 00-.74 1V22a11.21 11.21 0 003.46 7.78l.52.49c-.027.08-.044.165-.05.25v5.31l-3.79 1.46a.92.92 0 00-.35.19l-.17.13a12.38 12.38 0 00-7.41 4.1L.27 46.19a1.247 1.247 0 00-.08.12.589.589 0 00-.1.17 1.265 1.265 0 00-.06.18 1.08 1.08 0 000 .19 1.1 1.1 0 000 .18 1.06 1.06 0 000 .19c.024.062.058.12.1.17a.27.27 0 00.1.11l.12.15c.13.16.25.31.36.42a29.842 29.842 0 007.88 6.48l.11.06a30.001 30.001 0 0014.73 3.89h.14a30 30 0 0014.09-3.52 1 1 0 00.172-1.654.999.999 0 00-1.112-.106zm-8.39-16.8l-1.11 6.84a7.2 7.2 0 01-3.79 1.24 9.632 9.632 0 01-3.9-1.35l-1.2-6.74v-4.65a9.851 9.851 0 005.1 1.74 9.81 9.81 0 004.9-1.61v4.53zM14.4 21.98v-6.83a11.66 11.66 0 003.53-2.58 18.444 18.444 0 005.22 2.33 17.59 17.59 0 009.31-.05v7.13a9.25 9.25 0 01-2.87 6.36c-1.85 1.88-4.33 3.16-6.16 3.16s-4.3-1.26-6.14-3.13a9.26 9.26 0 01-2.89-6.39zM9.57 52.83a27.731 27.731 0 01-7.22-5.92l3.74-3.88a10.29 10.29 0 016.44-3.53.93.93 0 00.53-.22l.26-.21 3.24-1.24 3.28 18.4a27.911 27.911 0 01-10.16-3.34l-.11-.06zm15.51 3.67h-3.17L20 45.61a9.072 9.072 0 003.46.89 9.3 9.3 0 003.38-.74L25.08 56.5z" fill="#4F5661"/>
    <path d="M20.85 26.55a4.49 4.49 0 002.58.82A4.42 4.42 0 0026 26.5c.513-.374.942-.85 1.26-1.4a1 1 0 00-.74-1.488 1.001 1.001 0 00-1 .488 2.459 2.459 0 01-.69.78 2.51 2.51 0 01-2.86 0 2.44 2.44 0 01-.71-.79.999.999 0 00-1.37-.36 1 1 0 00-.37 1.36 4.611 4.611 0 001.33 1.46z" fill="#4F5661"/>
    <path d="M39.85 31.36c0-.05-2.62-4.49-1.71-8.45 1.88-8.15 1.59-13.6-.85-16.2a5.31 5.31 0 00-4.51-1.6C30.82 2.71 28.28.5 22.43.5c-4.77 0-8.59 1.56-11 4.5-3.24 3.81-4.11 9.82-2.66 17.87a11.84 11.84 0 01-1.65 8.41 1 1 0 000 1.171 1 1 0 00.31.279 15 15 0 006.94 1.77 1 1 0 000-2 13.24 13.24 0 01-5-1.06 13.86 13.86 0 001.37-8.94c-1.34-7.42-.61-12.88 2.17-16.22C15 3.77 18.21 2.5 22.43 2.5c5.76 0 7.71 2.48 9.13 4.29a1 1 0 00.95.37 3.47 3.47 0 013.32.92c1.1 1.17 2.61 4.6.36 14.39-.81 3.51.58 7.15 1.4 8.88a15.91 15.91 0 01-5 1.15 1 1 0 000 2 20.4 20.4 0 006.79-1.72 1 1 0 00.54-.61 1.001 1.001 0 00-.07-.81z" fill="#4F5661"/>
    <path d="M49.31 59.5c8.1-2.47 10-7.79 10-7.79v-12l-10-4.2-10 4.2v12s1.89 5.87 10 7.79z" fill="#53C27C"/>
    <path d="M55.82 44.36L54.42 43l-6.46 6.62-3.22-3.03-1.3 1.45 4.07 3.79.52.5 7.79-7.97z" fill="#fff" stroke="#fff" stroke-linejoin="round"/>
  </g>
  <defs>
    <clipPath id="lr8qjpf4Oa">
      <path fill="#fff" transform="translate(0 .5)" d="M0 0h60v60H0z"/>
    </clipPath>
  </defs>
</svg>
