<svg xmlns="http://www.w3.org/2000/svg" fill="none" viewBox="0 0 60 60">
  <g clip-path="url(#eoSdvMabTa)">
    <path d="M18.5 34l5 .5V37l-8 3-4.5 3-3 4.5 6.5 6.5 6.5 3 9.5 1 6.5-1 7-2.5 5-3 2.5-4L48 43l-6.5-4-5.5-2v-3h3l5.5-2-1-4.5.5-6 .5-6.5-.5-5.5-2.5-3H39L37 5l-4-3h-6l-5.5 1.5-4 4.5-2 6v6.5L16 27l-2 5 4.5 2z" fill="#fff"/>
    <path d="M7.8 47.9s7 8 14 9l-4-10 2-4h-2l1.4-4.3s-5.2.5-8.5 5.3l-2.9 4z" fill="#C8E5F0"/>
    <path d="M29.8 27.8c-.9 0-1.8-.3-2.6-.8-.5-.4-1-.9-1.3-1.4-.3-.5-.1-1.1.4-1.4.5-.3 1.1-.1 1.4.4.2.3.4.6.7.8.8.6 2 .6 2.9 0 .3-.2.5-.5.7-.8.3-.5.9-.6 1.4-.4.5.3.6.9.4 1.4-.3.6-.7 1-1.3 1.4-.8.5-1.7.8-2.7.8z" fill="#4F5863"/>
    <path d="M39 34.9c-.6 0-1-.4-1-1s.4-1 1-1c1.7 0 3.8-.7 5-1.1-.8-1.7-2.2-5.4-1.4-8.9 2.3-9.8.7-13.2-.4-14.4-.8-.8-1.9-1.1-3.3-.9-.4.1-.7-.1-.9-.4-1.4-1.8-3.4-4.3-9.1-4.3-4.2 0-7.4 1.3-9.5 3.8-2.8 3.3-3.5 8.8-2.2 16.2.7 4.1-.6 7.4-1.4 8.9 1 .4 2.9 1.1 5 1.1.6 0 1 .4 1 1s-.4 1-1 1c-3.9 0-6.8-1.7-6.9-1.8-.2-.1-.4-.4-.5-.7-.1-.3 0-.6.2-.8 0 0 2.5-3.6 1.6-8.4-1.5-8-.6-14.1 2.6-17.9C20.3 2.4 24.1.8 28.9.8c5.9 0 8.4 2.2 10.3 4.6 1.8-.2 3.4.4 4.5 1.6 2.4 2.6 2.7 8.1.9 16.2-.9 4 1.7 8.4 1.7 8.4.1.2.2.5.1.8-.1.3-.3.5-.5.6-.2.3-4 1.9-6.9 1.9z" fill="#4F5863"/>
    <path d="M52 47.9s-7 8-14 9l4-10-2-4h2l-1.4-4.3s5.2.5 8.5 5.3l2.9 4z" fill="#C8E5F0"/>
    <path d="M53 47.7c-.2-.2-3.8-5.4-6.5-7.4-2.1-1.5-4-2.1-4.9-2.2-.2-.1-.3-.3-.5-.3-.1 0-.1-.1-.2-.1l-4.1-1.5v-5.4c.2-.2.5-.4.7-.7 2.2-2.3 3.4-5 3.4-7.8v-8.9s0-.1-.1-.1c0-.1-.1-.2-.2-.2 0 0-.1-.1-.2-.1s-.1-.1-.2-.1-.2 0-.3-.1h-.5c-1.9.8-5.5 1.5-9.4.4-2.4-.7-4.2-1.7-5.4-2.6-.2-.2-.5-.2-.7-.2-.3 0-.5.2-.7.4-1.2 1.7-3.3 2.7-3.8 2.9-.2 0-.3.1-.4.3-.2.2-.3.4-.3.7v7.5c0 2.8 1.2 5.5 3.5 7.8l.5.5c0 .1-.1.2-.1.3v5.3L19 37.7c-.1 0-.2.1-.4.2l-.2.1c-2.7.4-5.6 1.9-7.4 4.1l-4.3 4.5s0 .1-.1.1c0 .1-.1.1-.1.2s0 .1-.1.2v.6c0 .1.1.1.1.2 0 0 0 .1.1.1l.1.1c.1.2.3.3.4.4C9.4 51.1 12 53.3 15 55l.1.1c4.5 2.5 9.6 3.9 14.7 3.9h.2c2.6 0 5.2-.4 7.7-1 .1 0 .2 0 .2-.1 2.1-.6 4.2-1.4 6.1-2.4 3.7-2.1 6.4-4.1 8.7-6.4.5-.5.6-1 .3-1.4zM34.7 36.8l-1.1 6.8c-1.7 1.2-3.6 1.2-3.8 1.2-1.3 0-3.2-.9-3.9-1.4l-1.2-6.7V32c1.7 1.1 3.5 1.7 5.1 1.7 1.5 0 3.2-.6 4.9-1.6v4.7zM20.8 22.4v-6.8c1-.4 2.4-1.3 3.5-2.6 1.3.8 3 1.7 5.2 2.3 3.6 1 7 .6 9.3-.1v7.2c0 2.2-1 4.5-2.9 6.4-1.9 1.9-4.3 3.1-6.2 3.1-1.8 0-4.3-1.3-6.1-3.1-1.8-1.9-2.8-4.2-2.8-6.4zm-4.7 30.9H16c-2.7-1.5-5.1-3.5-7.2-5.9l3.7-3.9c1.3-1.5 3.1-2.7 5-3.2l-.6 2.4c-.1.3 0 .6.2.9.2.2.5.4.8.4h1L17 46.3c-.2.3-.3.7-.1 1l3.5 8c-1.5-.5-2.9-1.2-4.3-2zm6.9 2.8l-4-9 2.6-3.5c.2-.3.3-.7.1-1-.2-.3-.5-.6-.9-.6h-1.7l.6-2.4 3.2-1.2 3.3 18.4c-1.1-.2-2.1-.5-3.2-.7zm8.5.8h-3.1l-2-10.9c1 .4 2.3.9 3.5.9.4 0 1.8-.1 3.4-.7l-1.8 10.7zm5.4-.9c-1.1.3-2.2.5-3.3.7l3-18.4 3.5 1.3.6 2.4H39c-.4 0-.7.2-.9.6-.2.3-.1.7.1 1l2.6 3.5-3.9 8.9zm6.2-2.4c-1.2.6-2.5 1.2-3.7 1.6l3.5-7.9c.1-.3.1-.7-.1-1L41 43.9h1c.3 0 .6-.1.8-.4.2-.3.2-.5.2-.8l-.6-2.3c.8.3 1.8.8 2.9 1.6 1.9 1.4 4.5 4.8 5.5 6.2-2.1 1.9-4.5 3.6-7.7 5.4z" fill="#4F5863"/>
  </g>
  <defs>
    <clipPath id="eoSdvMabTa">
      <path fill="#fff" d="M0 0h60v60H0z"/>
    </clipPath>
  </defs>
</svg>
