<svg xmlns="http://www.w3.org/2000/svg" fill="none" viewBox="0 0 600 600">
  <g clip-path="url(#qcRpG_pc3a)">
    <path d="M185 340l50 5v25l-80 30-45 30-30 45 65 65 65 30 95 10 65-10 70-25 50-30 25-40-35-45-65-40-55-20v-30h30l55-20-10-45 5-60 5-65-5-55-25-30h-25l-20-15-40-30h-60l-55 15-40 45-20 60v65l5 65-20 50 45 20" fill="#fff"/>
    <path d="M78 479s70 80 140 90l-40-100 20-40h-20l14-43s-52 5-85 53l-29 40" fill="#C8E5F0"/>
    <path d="M298 278a50 50 0 01-26-8c-5-4-10-9-13-14s-1-11 4-14 11-1 14 4l7 8c8 6 20 6 29 0l7-8c3-5 9-6 14-4 5 3 6 9 4 14-3 6-7 10-13 14a50 50 0 01-27 8" fill="#4F5863"/>
    <path d="M390 349c-6 0-10-4-10-10s4-10 10-10c17 0 38-7 50-11-8-17-22-54-14-89 23-98 7-132-4-144-8-8-19-11-33-9-4 1-7-1-9-4-14-18-34-43-91-43-42 0-74 13-95 38-28 33-35 88-22 162 7 41-6 74-14 89 10 4 29 11 50 11 6 0 10 4 10 10s-4 10-10 10a140 140 0 01-69-18c-2-1-4-4-5-7s0-6 2-8c0 0 25-36 16-84-15-80-6-141 26-179A140 140 0 01289 8c59 0 84 22 103 46 18-2 34 4 45 16 24 26 27 81 9 162-9 40 17 84 17 84 1 2 2 5 1 8a10 10 0 01-5 6c-2 3-40 19-69 19" fill="#4F5863"/>
    <path d="M520 479s-70 80-140 90l40-100-20-40h20l-14-43s52 5 85 53l29 40" fill="#C8E5F0"/>
    <path d="M530 477c-2-2-38-54-65-74-21-15-40-21-49-22-2-1-3-3-5-3l-2-1-41-15v-54l7-7c22-23 34-50 34-78v-89l-1-1-2-2-2-1-2-1-3-1h-5a150 150 0 01-94 4 170 170 0 01-54-26c-2-2-5-2-7-2-3 0-5 2-7 4a96 96 0 01-38 29c-2 0-3 1-4 3a10 10 0 00-3 7v75a110 110 0 0035 78l5 5-1 3v53l-36 16-4 2-2 1c-27 4-56 19-74 41l-43 45-1 1-1 2-1 2v6l1 2 1 1 1 1 4 4c23 26 49 48 79 65l1 1c45 25 96 39 147 39h2c26 0 52-4 77-10l2-1a322 322 0 00148-88c5-5 6-10 3-14zM347 368l-11 68c-17 12-36 12-38 12-13 0-32-9-39-14l-12-67v-47a97 97 0 0051 17 100 100 0 0049-16v47zM208 224v-68c10-4 24-13 35-26 13 8 30 17 52 23 36 10 70 6 93-1v72c0 22-10 45-29 64s-43 31-62 31c-18 0-43-13-61-31a95 95 0 01-28-64zm-47 309h-1a270 270 0 01-72-59l37-39c13-15 31-27 50-32l-6 24c-1 3 0 6 2 9 2 2 5 4 8 4h10l-19 23c-2 3-3 7-1 10l35 80a240 240 0 01-43-20zm69 28l-40-90 26-35c2-3 3-7 1-10s-5-6-9-6h-17l6-24 32-12 33 184-32-7zm85 8h-31l-20-109c10 4 23 9 35 9 4 0 18-1 34-7l-18 107zm54-9l-33 7 30-184 35 13 6 24h-17c-4 0-7 2-9 6-2 3-1 7 1 10l26 35-39 89zm62-24c-12 6-25 12-37 16l35-79c1-3 1-7-1-10l-18-24h10c3 0 6-1 8-4s2-5 2-8l-6-23c8 3 18 8 29 16a340 340 0 0155 62 413 413 0 01-77 54" fill="#4F5863"/>
  </g>
  <defs>
    <clipPath id="qcRpG_pc3a">
      <path d="M0 0h600v600H0" fill="#fff"/>
    </clipPath>
  </defs>
</svg>
