<svg xmlns="http://www.w3.org/2000/svg" fill="none" viewBox="0 0 600 610">
  <g clip-path="url(#QMzk3K5KUa)">
    <path d="M125 335l50 5v25l-80 30-45 30-30 45 65 65 65 30 95 10 65-10 70-25 50-30 25-40-35-45-65-40-55-20v-30h30l55-20-10-45 5-60 5-65-5-55-25-30h-25l-20-15-40-30h-60l-55 15-40 45-20 60v65l5 65-20 50 45 20" fill="#fff"/>
    <path d="M14 475s70 80 140 90l-40-100 20-40h-20l14-43a130 130 0 00-85 53l-29 40" fill="#CFE6F0"/>
    <path d="M158 575a10 10 0 01-9-6l-44-100a10 10 0 011-10l18-24h-10a10 10 0 01-8-4 10 10 0 01-1-8l10-40a10 10 0 0112-8 10 10 0 017 12l-7 28h17a10 10 0 018 16l-26 35 42 95a10 10 0 01-5 13 10 10 0 01-5 1" fill="#4F5661"/>
    <path d="M456 475s-70 80-140 90l40-100-20-40h20l-14-43a130 130 0 0185 53l29 40" fill="#CFE6F0"/>
    <path d="M312 575a10 10 0 01-10-14l42-95-26-35a10 10 0 018-16h17l-7-28a10 10 0 0115-10 10 10 0 014 6l10 40a10 10 0 01-1 8 10 10 0 01-8 4h-10l18 24a10 10 0 010 10l-43 100a10 10 0 01-10 6" fill="#4F5661"/>
    <path d="M367 532a278 278 0 01-96 30l30-184 36 13 2 2 6 2c8 1 15 3 23 6a10 10 0 007-18 115 115 0 00-25-7l-2-1a10 10 0 00-3-2l-42-15v-54l7-7a112 112 0 0035-77v-86a8 8 0 000-2 13 13 0 000-1 8 8 0 00-1-2 10 10 0 00-1-2h-3a5 5 0 00-2-2 7 7 0 00-2 0 5 5 0 00-1 0 15 15 0 00-2 0h-2a150 150 0 01-94 5 166 166 0 01-54-26 10 10 0 00-7-2 10 10 0 00-7 4 95 95 0 01-39 29 10 10 0 00-7 10v75a112 112 0 0035 78l5 5v55l-39 15a10 10 0 00-3 2l-2 1a124 124 0 00-74 41L3 462a12 12 0 00-1 1 6 6 0 00-1 2 13 13 0 000 2 10 10 0 000 1 11 11 0 000 2 10 10 0 000 2v2a3 3 0 001 1l1 1 4 5a298 298 0 0079 64l1 1a300 300 0 00147 39h2a300 300 0 00140-35 10 10 0 002-17 10 10 0 00-10 0zm-84-168l-10 69a72 72 0 01-39 12 96 96 0 01-39-13l-12-68v-46a99 99 0 0051 17 98 98 0 0050-16v45zM144 220v-68a117 117 0 0035-26 184 184 0 0053 23 176 176 0 0093 0v70a93 93 0 01-30 64c-18 20-42 32-60 32s-44-13-62-31a93 93 0 01-29-64zM96 528a277 277 0 01-72-58l36-40a103 103 0 0164-35 10 10 0 006-2l2-2 33-13 32 184a280 280 0 01-100-32h-1zm154 37h-32l-18-109a90 90 0 0035 9 93 93 0 0033-7l-17 107" fill="#4F5661"/>
    <path d="M209 266a45 45 0 0025 8 44 44 0 0026-9c5-4 10-8 13-14a10 10 0 00-8-15 10 10 0 00-10 5 25 25 0 01-7 8 25 25 0 01-28 0 24 24 0 01-7-8 10 10 0 00-14-4 10 10 0 00-4 14 46 46 0 0013 15" fill="#4F5661"/>
    <path d="M399 314s-27-45-18-85c20-81 16-136-8-162a53 53 0 00-45-16C308 27 283 5 224 5c-47 0-86 16-110 45-32 38-40 98-26 179a118 118 0 01-18 84 10 10 0 000 12 10 10 0 003 2 150 150 0 0070 18 10 10 0 000-20 132 132 0 01-50-10 139 139 0 0013-90c-12-74-5-129 24-162 21-25 53-38 95-38 58 0 77 25 92 43a10 10 0 0010 4 35 35 0 0132 9c11 12 26 46 4 144-8 35 6 71 14 88a160 160 0 01-50 12 10 10 0 000 20 204 204 0 0068-17 10 10 0 005-6 10 10 0 000-8" fill="#4F5661"/>
    <path d="M493 595c81-25 100-78 100-78V397l-100-42-100 42v120s19 59 100 78" fill="#53C27C"/>
    <path d="M558 444l-14-14-64 66-33-30-13 14 41 38 5 5 78-80" fill="#fff" stroke="#fff" stroke-linejoin="round"/>
  </g>
  <defs>
    <clipPath id="QMzk3K5KUa">
      <path d="M0 0h600v600H0" fill="#fff" transform="translate(0 5)"/>
    </clipPath>
  </defs>
</svg>
