<svg fill="none" xmlns="http://www.w3.org/2000/svg" viewBox="0 0 48 46">
  <path fill-rule="evenodd" clip-rule="evenodd" d="M9.6 38.862c0-3.066-2.507-5.552-5.6-5.552v5.552h5.6z" fill="#D3E5EF"/>
  <mask id="1LexI85oqa" maskUnits="userSpaceOnUse" x="0" y="0" width="48" height="46">
    <path fill-rule="evenodd" clip-rule="evenodd" d="M0 46h48V0H0v46z" fill="#fff"/>
  </mask>
  <g mask="url(#1LexI85oqa)">
    <path fill-rule="evenodd" clip-rule="evenodd" d="M35.2 24.586h8v-2.38h-8v2.38z" fill="#D3E5EF"/>
    <path clip-rule="evenodd" d="M31.2 8.724H28V3.966h-9.6v4.758h-3.2V3.966c0-1.75 1.435-3.173 3.2-3.173H28c1.765 0 3.2 1.423 3.2 3.173v4.758z" stroke="#4F5661" stroke-width="1.6" stroke-linecap="round" stroke-linejoin="round"/>
    <path d="M11.2 21.414H2.4c-.88 0-1.6-.714-1.6-1.586V10.31c0-.872.72-1.586 1.6-1.586H44c.88 0 1.6.714 1.6 1.586v9.518c0 .872-.72 1.586-1.6 1.586h-8.8m-4.8 0H16m4 0h-4m14.4 0h-4m-15.2 0h-8v16.655c0 .872.688 1.586 1.544 1.586h23.512M35.2 21.414h8v5.496" stroke="#4F5661" stroke-width="1.6" stroke-linecap="round" stroke-linejoin="round"/>
    <path fill-rule="evenodd" clip-rule="evenodd" d="M4 24.586h7.2v-2.38H4v2.38zm12 0h14.4v-2.38H16v2.38z" fill="#D3E5EF"/>
    <path clip-rule="evenodd" d="M15.4 24.586h-3.6c-.331 0-.6-.355-.6-.793v-4.758c0-.438.269-.794.6-.794h3.6c.331 0 .6.356.6.794v4.758c0 .438-.269.793-.6.793z" stroke="#4F5661" stroke-width="1.6" stroke-linecap="round" stroke-linejoin="round"/>
    <path fill-rule="evenodd" clip-rule="evenodd" d="M47.2 37.276c0 4.38-3.582 7.93-8 7.93s-8-3.55-8-7.93 3.582-7.931 8-7.931 8 3.55 8 7.93z" fill="#5BBF89"/>
    <path clip-rule="evenodd" d="M47.2 37.276c0 4.38-3.582 7.93-8 7.93s-8-3.55-8-7.93 3.582-7.931 8-7.931 8 3.55 8 7.93z" stroke="#5BBF89" stroke-width="1.6" stroke-linecap="round" stroke-linejoin="round"/>
    <path clip-rule="evenodd" d="M34.6 24.586H31c-.331 0-.6-.355-.6-.793v-4.758c0-.438.269-.794.6-.794h3.6c.331 0 .6.356.6.794v4.758c0 .438-.269.793-.6.793z" stroke="#4F5661" stroke-width="1.6" stroke-linecap="round" stroke-linejoin="round"/>
    <path fill-rule="evenodd" clip-rule="evenodd" d="M42.44 39.15c0-1.492-1.58-2.163-2.946-2.614-1.141-.382-1.663-.752-1.663-1.296 0-.37.437-.81 1.24-.81.775 0 1.847.579 1.96.637.169.093.38 0 .492-.139l.536-.66c.098-.115.057-.312-.085-.381a5.726 5.726 0 00-2.074-.717v-1.099a.349.349 0 00-.35-.347h-.7a.349.349 0 00-.35.347v1.086c-1.763.21-2.515 1.255-2.515 2.176 0 1.364 1.324 2.058 2.65 2.498 1.184.393 1.789.798 1.789 1.388 0 .497-.549.89-1.282.89-.917 0-2.057-.682-2.129-.717-.126-.08-.366-.08-.479.081l-.507.717c-.127.185-.056.244.07.348.243.188 1.052.717 2.403.863v1.08c0 .19.157.346.35.346h.7c.193 0 .35-.155.35-.346v-1.09c1.576-.225 2.54-1.198 2.54-2.241z" fill="#fff"/>
  </g>
</svg>
