<svg xmlns="http://www.w3.org/2000/svg" fill="none" viewBox="0 0 480 460">
  <path d="M96 389c0-31-25-56-56-56v57h56" fill="#D3E5EF" fill-rule="evenodd" clip-rule="evenodd"/>
  <mask id="80XsmKkfja" width="480" height="460" x="0" y="0" maskUnits="userSpaceOnUse">
    <path d="M0 460h480V0H0v460" fill="#fff" fill-rule="evenodd" clip-rule="evenodd"/>
  </mask>
  <g mask="url(#80XsmKkfja)">
    <path d="M352 246h80v-24h-80v24" fill="#D3E5EF" fill-rule="evenodd" clip-rule="evenodd"/>
    <path d="M312 87h-32V40h-96v47h-32V40c0-18 14-32 32-32h96c18 0 32 14 32 32v47" stroke="#4F5661" stroke-linecap="round" stroke-linejoin="round" stroke-width="16" clip-rule="evenodd"/>
    <path d="M112 214H24c-9 0-16-7-16-16v-95c0-9 7-16 16-16h416c9 0 16 7 16 16v95c0 9-7 16-16 16h-88m-48 0H160m40 0h-40m144 0h-40m-152 0H32v167c0 8 7 16 15 16h236m69-183h80v56" stroke="#4F5661" stroke-linecap="round" stroke-linejoin="round" stroke-width="16"/>
    <path d="M40 246h72v-24H40v24zm120 0h144v-24H160v24" fill="#D3E5EF" fill-rule="evenodd" clip-rule="evenodd"/>
    <path d="M154 246h-36c-3 0-6-4-6-8v-48c0-4 3-8 6-8h36c3 0 6 4 6 8v48c0 4-3 8-6 8" stroke="#4F5661" stroke-linecap="round" stroke-linejoin="round" stroke-width="16" clip-rule="evenodd"/>
    <path d="M472 373c0 44-36 80-80 80s-80-36-80-80 36-80 80-80 80 36 80 80" fill="#5BBF89" fill-rule="evenodd" clip-rule="evenodd"/>
    <path d="M472 373c0 44-36 80-80 80s-80-36-80-80 36-80 80-80 80 36 80 80" stroke="#5BBF89" stroke-linecap="round" stroke-linejoin="round" stroke-width="16" clip-rule="evenodd"/>
    <path d="M346 246h-36c-3 0-6-4-6-8v-48c0-4 3-8 6-8h36c3 0 6 4 6 8v48c0 4-3 8-6 8" stroke="#4F5661" stroke-linecap="round" stroke-linejoin="round" stroke-width="16" clip-rule="evenodd"/>
    <path d="M424 391c0-14-15-21-30-26-10-3-16-7-16-13 0-3 5-8 13-8 7 0 18 6 20 7 1 0 3 0 4-2l6-6-1-4a57 57 0 00-21-7v-12a3 3 0 00-3-4h-7a3 3 0 00-4 4v10c-18 3-25 13-25 22 0 14 13 20 26 25 12 4 18 8 18 14 0 5-5 10-13 10-9 0-20-8-20-8h-6l-5 8v3c3 2 11 8 25 10v10c0 2 2 3 3 3h8c1 0 3-1 3-3v-11c16-2 25-12 25-23" fill="#fff" fill-rule="evenodd" clip-rule="evenodd"/>
  </g>
</svg>
