<svg xmlns="http://www.w3.org/2000/svg" fill="none" viewBox="0 0 610 600">
  <path d="M102 352c0 16 16 34 25 40v40c5 7 18 20 30 20s21-13 25-20v-40l25-25h155c-2 0-4 5 0 25s21 39 30 45v45c0 10 10 20 35 20 20 0 28-13 30-20v-45c16-12 26-31 30-40v-80l-95-45-40-20h-35v-40c28-24 35-43 35-50v-60c-5-16-26-50-70-50s-65 34-70 50v60c0 16 20 40 30 50v35a80 80 0 00-60 25c-5-5-30-5-50 0-16 4-27 29-30 40v40" fill="#fff"/>
  <path d="M270 510H42l17-47a65 65 0 0161-43h8v12a32 32 0 0028 17c10 0 22-5 28-17v-12h8c28 0 52 17 61 43l17 47" fill="#FF8979" fill-rule="evenodd" clip-rule="evenodd"/>
  <path d="M102 330c14-6 23-25 36-16 14 10 40 20 72 5 0 0-10-52-58-52-50 0-50 63-50 63" fill="#CFE6F0" fill-rule="evenodd" clip-rule="evenodd"/>
  <path d="M156 440c-8 0-14-3-19-10v-38h-17v43l1 2a40 40 0 0036 21 40 40 0 0036-21v-45h-17v38c-4 7-11 10-19 10" fill="#4F5661"/>
  <path d="M110 323v22c0 23 26 48 46 48s47-25 47-49v-21a46 46 0 00-93 0zm46-65a64 64 0 0164 65v21c0 34-34 67-64 67s-64-33-64-67v-21a64 64 0 0164-65zm89 208a56 56 0 00-52-37v3l-1 5a40 40 0 01-36 21 40 40 0 01-36-21 9 9 0 010-5v-2a56 56 0 00-53 37l-13 33h204l-13-35zm-70-46c0-5 4-10 9-10h8a74 74 0 0170 50l17 46a9 9 0 01-9 12H42a9 9 0 01-9-12l17-46a74 74 0 0170-50h8c5 0 10 5 10 10v10c4 7 10 10 18 10s15-3 20-10v-10zm80-168v-38h-19v43l1 2a50 50 0 0089 0v-45h-16v38c-13 20-42 20-55 0" fill="#4F5661"/>
  <path d="M190 274a76 76 0 0145-16h4a9 9 0 100-17h-4a94 94 0 00-57 18 9 9 0 1011 15zm134-16h4a75 75 0 0146 16 9 9 0 0010-15 93 93 0 00-56-18h-4a9 9 0 100 17zM210 375h143a9 9 0 100-18H210a9 9 0 100 18" fill="#4F5661"/>
  <path d="M180 115c-25-30 16-47 44-47s10-35 56-35c47 0 33 24 70 33 53 5 5 38 33 55 28 18 10 53-28 62h-15c2-6 1-11 1-17v-30c-17-3-46-5-60-27-14 22-41 24-58 28a53 53 0 000 7v22a68 68 0 002 17h-10c-74 0-16-46-34-68" fill="#CFE6F0" fill-rule="evenodd" clip-rule="evenodd"/>
  <path d="M226 127a10 10 0 0110 10v26c0 32 22 55 45 55s45-23 45-55v-26a10 10 0 1120 0v26c0 40-27 75-65 75s-65-35-65-75v-26a10 10 0 0110-10" fill="#4F5661" fill-rule="evenodd" clip-rule="evenodd"/>
  <path d="M308 25c-7-3-15-5-27-5a50 50 0 00-30 7 40 40 0 00-13 16l-1 4-2 3a20 20 0 01-2 4s-2 2-6 2c-15 0-33 5-46 15-6 5-12 12-13 21 0 10 3 20 10 28 1 2 2 5 0 12l-1 10v1c-2 4-3 8-3 13-1 8 0 19 8 27 9 7 22 10 40 10v-20c-17 0-24-3-26-5-2-1-3-4-2-10 0-3 0-6 2-10v-2l2-10c2-8 3-20-5-28-4-6-5-10-5-13s2-6 6-9c8-6 22-10 33-10 10 0 17-4 21-10l5-7 2-3 1-4c2-4 4-6 7-8s8-4 18-4 15 1 18 3c3 1 5 3 7 6v1l10 11a50 50 0 0022 11h1c12 2 17 4 20 6 1 1 2 3 2 7v17c1 8 3 16 10 24 9 12 8 23 4 30s-14 13-30 10l-3 20c22 4 41-4 50-20 10-15 8-35-6-52-3-4-4-9-4-14a91 91 0 010-8v-9a30 30 0 00-10-20 50 50 0 00-30-10 30 30 0 01-13-7l-5-6-2-3c-3-4-7-9-14-12" fill="#4F5661" fill-rule="evenodd" clip-rule="evenodd"/>
  <path d="M324 497l-30 70h260l-15-50-25-30-30-15H354l-30 25" fill="#fff"/>
  <path d="M528 522a66 66 0 00-62-44v1a9 9 0 010 4c-10 18-24 28-41 28s-32-10-40-28a9 9 0 01-1-4 66 66 0 00-62 43l-16 41h238l-16-41zm-80-53c0-5 4-9 10-9h8a84 84 0 0180 55l19 54a9 9 0 01-9 12H294a9 9 0 01-9-12l20-54a84 84 0 0179-55h9c5 0 9 4 9 10v7c5 10 14 16 23 16 10 0 18-5 23-16v-7" fill="#4F5661"/>
  <path d="M425 493c-10 0-18-5-23-16v-40h-18v47c10 18 24 28 40 28 18 0 33-10 41-28l1-2v-43h-18v40c-5 10-14 15-23 15" fill="#4F5661"/>
  <path d="M362 376c16-7 34-49 50-37 17 11 50 37 86 31 0 0 22-50 3-72-15-20-65-28-93-28-26 0-65 23-65 56-12 26 19 50 19 50" fill="#CFE6F0" fill-rule="evenodd" clip-rule="evenodd"/>
  <path d="M370 350a10 10 0 0110 10v27c0 32 22 54 45 54s45-21 45-54v-27a10 10 0 1120 0v26c0 40-28 74-65 74s-65-34-65-73v-27a10 10 0 0110-10" fill="#4F5661" fill-rule="evenodd" clip-rule="evenodd"/>
  <path d="M350 306c-4 9-5 22 0 40 3 10 6 17 9 22a90 90 0 003 7 10 10 0 012 7 10 10 0 01-5 19 52 52 0 01-8 0 20 20 0 01-7-3 12 12 0 01-6-9c0-4 0-7 2-8a18 18 0 011-2 157 157 0 01-10-28 84 84 0 010-52 57 57 0 0126-30c20-13 48-13 60-13 20 0 33 2 44 6a75 75 0 0120 12c12 0 27 2 36 15 10 13 10 34 0 63a215 215 0 00-9 28c0 2 2 5 1 8 0 4-3 8-8 10-4 2-8 3-13 3a10 10 0 010-20 10 10 0 010-1l10 1-10-1v-4a235 235 0 0110-32c9-27 6-40 3-45-4-5-11-7-22-6a10 10 0 01-8-2 60 60 0 00-17-11c-8-3-20-5-37-5-12 0-34 0-50 10-8 5-15 10-18 20" fill="#4F5661" fill-rule="evenodd" clip-rule="evenodd"/>
</svg>
