<svg xmlns="http://www.w3.org/2000/svg" fill="none" viewBox="0 0 61 60">
  <path d="M10.162 35.226c0 1.6 1.667 3.333 2.5 4v4c.5.667 1.8 2 3 2s2.167-1.333 2.5-2v-4l2.5-2.5h15.5c-.167 0-.4.5 0 2.5s2.167 3.833 3 4.5v4.5c0 1 1 2 3.5 2 2 0 2.833-1.333 3-2v-4.5c1.6-1.2 2.667-3.167 3-4v-8l-9.5-4.5-4-2h-3.5v-4c2.8-2.4 3.5-4.333 3.5-5v-6c-.5-1.667-2.6-5-7-5s-6.5 3.333-7 5v6c0 1.6 2 4 3 5v3.5c-3.2 0-5.333 1.667-6 2.5-.5-.5-3-.5-5 0-1.6.4-2.667 2.833-3 4v4z" fill="#fff"/>
  <path fill-rule="evenodd" clip-rule="evenodd" d="M27.042 50.95H4.162l1.703-4.689a6.535 6.535 0 016.142-4.303h.798v1.282c.627 1.138 1.712 1.703 2.797 1.703 1.085 0 2.17-.565 2.797-1.703v-1.282h.798c2.753 0 5.2 1.72 6.141 4.303l1.704 4.689z" fill="#FF8979"/>
  <path fill-rule="evenodd" clip-rule="evenodd" d="M10.207 32.968c1.349-.587 2.248-2.467 3.596-1.527 1.35.94 4.047 1.88 7.194.47 0 0-.9-5.168-5.844-5.168-4.946 0-4.946 6.225-4.946 6.225z" fill="#CFE6F0"/>
  <path d="M15.602 44.047c-.753 0-1.45-.372-1.9-1.055v-3.796h-1.794v4.275l.112.202c.758 1.375 2.113 2.167 3.582 2.167 1.47 0 2.825-.792 3.582-2.168l.112-.201v-4.275h-1.793v3.796c-.45.683-1.147 1.055-1.9 1.055z" fill="#4F5661"/>
  <path d="M10.966 32.276l-.017 1.182v.972c0 2.373 2.64 4.832 4.653 4.832 2 0 4.653-2.465 4.653-4.826l-.016-2.16a4.636 4.636 0 00-9.273 0zm4.636-6.43a6.428 6.428 0 016.43 6.423l.016 2.16c0 3.39-3.483 6.626-6.446 6.626-2.975 0-6.446-3.232-6.446-6.625v-.985l.017-1.176a6.43 6.43 0 016.429-6.422zm8.894 20.722a5.639 5.639 0 00-5.2-3.713v.385c0 .151-.039.3-.112.432-.758 1.376-2.113 2.168-3.582 2.168-1.47 0-2.825-.792-3.583-2.168a.897.897 0 01-.11-.432v-.385a5.638 5.638 0 00-5.201 3.712l-1.267 3.486h20.321l-1.266-3.485zm-6.993-4.61c0-.496.4-.897.896-.897h.798a7.432 7.432 0 016.984 4.894l1.703 4.689a.897.897 0 01-.842 1.203H4.162a.897.897 0 01-.843-1.203l1.704-4.69a7.432 7.432 0 016.984-4.893h.798c.495 0 .896.401.896.897v1.034c.45.682 1.147 1.055 1.9 1.055.754 0 1.451-.373 1.902-1.055v-1.034zm7.919-16.748v-3.846h-1.793v4.319l.11.201c1.962 3.572 6.867 3.572 8.827 0l.11-.201v-4.32h-1.792v3.847c-1.303 2.08-4.159 2.08-5.462 0z" fill="#4F5661"/>
  <path d="M18.931 27.378a7.564 7.564 0 014.56-1.531h.368a.897.897 0 100-1.793h-.367a9.356 9.356 0 00-5.643 1.894.896.896 0 101.082 1.43zm13.517-1.531h.368a7.55 7.55 0 014.56 1.532.897.897 0 001.08-1.431 9.344 9.344 0 00-5.64-1.895h-.368a.897.897 0 100 1.794zM20.981 37.502h14.345a.897.897 0 100-1.793H20.981a.897.897 0 100 1.793z" fill="#4F5661"/>
  <path fill-rule="evenodd" clip-rule="evenodd" d="M18.047 11.543c-2.509-2.987 1.58-4.7 4.383-4.7 2.801 0 .936-3.514 5.611-3.514 4.674 0 3.235 2.412 6.973 3.293 5.277.47.503 3.734 3.304 5.495 2.803 1.753.938 5.267-2.801 6.147h-1.605c.209-.535.117-1.109.117-1.698v-.974l-.017-1.188c0-.26-.026-.513-.062-.764-1.658-.362-4.503-.551-5.909-2.785-1.432 2.277-4.183 2.464-5.83 2.805a5.293 5.293 0 00-.058.744l-.016 2.162a6.79 6.79 0 00.262 1.698h-.907c-7.475 0-1.676-4.614-3.445-6.72z" fill="#CFE6F0"/>
  <path fill-rule="evenodd" clip-rule="evenodd" d="M22.638 12.717a1 1 0 011 1v2.607c0 3.193 2.162 5.488 4.5 5.488s4.5-2.295 4.5-5.488v-2.607a1 1 0 112 0v2.607c0 3.975-2.76 7.488-6.5 7.488s-6.5-3.513-6.5-7.488v-2.607a1 1 0 011-1z" fill="#4F5661"/>
  <path fill-rule="evenodd" clip-rule="evenodd" d="M30.816 2.482C30.136 2.155 29.26 2 28.074 2c-1.245 0-2.181.251-2.895.73-.714.48-1.088 1.113-1.34 1.62-.063.126-.12.25-.17.358-.053.113-.098.21-.144.302a2.012 2.012 0 01-.23.382c-.077.093-.176.198-.563.198-1.49 0-3.376.477-4.612 1.482-.636.517-1.172 1.238-1.283 2.166-.111.934.232 1.873.936 2.773.14.18.212.498.088 1.205-.05.29-.122.588-.202.922l-.04.168c-.093.385-.193.819-.245 1.248-.104.852-.049 1.944.87 2.754.836.738 2.174 1.033 4.003 1.033v-2c-1.73 0-2.421-.305-2.68-.533-.176-.155-.282-.396-.207-1.012.037-.304.11-.638.203-1.024l.038-.157c.08-.33.168-.697.23-1.054.14-.797.22-1.885-.482-2.782-.49-.626-.556-1.05-.526-1.304.03-.259.187-.549.559-.851.78-.635 2.173-1.034 3.35-1.034.947 0 1.626-.343 2.105-.924.212-.256.363-.532.48-.767.057-.115.11-.232.16-.337l.005-.01c.052-.112.099-.213.148-.312.194-.39.377-.656.664-.849.289-.194.8-.391 1.78-.391 1.037 0 1.575.14 1.874.284.267.129.42.293.62.582.034.047.07.103.112.164.192.289.473.712.872 1.08.521.479 1.218.864 2.24 1.123l.073.018.076.008c1.19.113 1.695.353 1.91.531.158.13.245.295.28.693.018.212.018.445.017.747v.005c0 .288 0 .632.03.988.065.734.265 1.568.887 2.371.897 1.157.883 2.286.457 3.009-.418.709-1.4 1.31-3.047 1.046l-.316 1.975c2.277.364 4.165-.442 5.086-2.006.913-1.551.707-3.564-.599-5.249-.314-.406-.432-.83-.475-1.32a9.12 9.12 0 01-.023-.81v-.045c.001-.27.002-.582-.025-.885-.058-.67-.26-1.451-.997-2.06-.665-.55-1.631-.843-2.914-.973-.711-.19-1.077-.428-1.305-.638-.207-.19-.328-.37-.506-.635-.057-.084-.119-.177-.191-.28-.29-.416-.682-.898-1.394-1.24z" fill="#4F5661"/>
  <path d="M32.397 49.726l-3 7h26l-1.5-5-2.5-3-3-1.5h-13l-3 2.5z" fill="#fff"/>
  <path d="M52.836 52.152a6.607 6.607 0 00-6.213-4.349l-.018.144a.9.9 0 01-.087.385c-.83 1.743-2.35 2.77-4.02 2.77-1.67 0-3.189-1.027-4.019-2.77a.896.896 0 01-.087-.385v-.144a6.613 6.613 0 00-6.23 4.35l-1.518 4.176h23.71l-1.518-4.177zm-8.024-5.245c0-.495.401-.897.896-.897h.915a8.4 8.4 0 017.898 5.53l1.955 5.38a.897.897 0 01-.843 1.203H29.364a.897.897 0 01-.843-1.203l1.955-5.379a8.4 8.4 0 017.898-5.53h.915c.495 0 .896.4.896.896v.827c.549 1.026 1.408 1.575 2.313 1.575.906 0 1.765-.549 2.314-1.575v-.827z" fill="#4F5661"/>
  <path d="M42.499 49.31c-.906 0-1.765-.55-2.313-1.576v-3.956h-1.794v4.371l.087.183c.83 1.743 2.35 2.77 4.02 2.77 1.67 0 3.189-1.027 4.019-2.77l.087-.183v-4.371h-1.793v3.956c-.549 1.026-1.408 1.575-2.313 1.575z" fill="#4F5661"/>
  <path fill-rule="evenodd" clip-rule="evenodd" d="M36.194 37.649c1.631-.71 3.435-4.905 5.067-3.769 1.632 1.138 4.852 3.769 8.534 3.162 0 0 2.168-5.115.346-7.285-1.567-1.867-6.555-2.8-9.322-2.8-2.61 0-6.534 2.333-6.534 5.6-1.225 2.607 1.909 5.092 1.909 5.092z" fill="#CFE6F0"/>
  <path fill-rule="evenodd" clip-rule="evenodd" d="M37.002 35.05a1 1 0 011 1v2.608c0 3.194 2.162 5.488 4.5 5.488s4.5-2.294 4.5-5.488v-2.607a1 1 0 112 0v2.607c0 3.976-2.76 7.488-6.5 7.488s-6.5-3.512-6.5-7.488v-2.607a1 1 0 011-1z" fill="#4F5661"/>
  <path fill-rule="evenodd" clip-rule="evenodd" d="M34.906 30.577c-.333.894-.415 2.174.1 4.01.276.982.596 1.743.844 2.253a8.92 8.92 0 00.38.703l.018.028.002.004a.999.999 0 01.162.65 1 1 0 01-.5 1.866 5.24 5.24 0 01-.814-.054c-.222-.035-.48-.1-.712-.24a1.212 1.212 0 01-.595-.88c-.05-.389.103-.691.199-.843a1.76 1.76 0 01.144-.193 15.651 15.651 0 01-1.054-2.752v-.001c-.593-2.114-.57-3.848-.048-5.25.526-1.412 1.514-2.367 2.619-3 2.146-1.23 4.863-1.318 6.083-1.318 1.908 0 3.28.257 4.34.662a7.5 7.5 0 011.995 1.14c1.273-.057 2.745.238 3.632 1.506.962 1.376.924 3.48-.09 6.325a21.546 21.546 0 00-.779 2.808c.062.182.124.457.072.772-.075.448-.353.825-.782 1.052-.377.2-.834.266-1.324.266a1 1 0 01-.008-2 1.01 1.01 0 01.014-.133l.986.17-.986-.17v-.003l.002-.005.002-.017.011-.058.041-.213a23.534 23.534 0 01.865-3.139l.001-.001c.968-2.712.71-3.973.336-4.508-.35-.5-1.087-.75-2.206-.63a1 1 0 01-.74-.222c-.49-.402-.985-.778-1.755-1.072-.778-.297-1.896-.53-3.627-.53-1.207 0-3.442.11-5.089 1.053-.79.454-1.41 1.08-1.739 1.964z" fill="#4F5661"/>
</svg>
