<svg xmlns="http://www.w3.org/2000/svg" fill="none" viewBox="0 0 440 510">
  <path d="M181 272h69v-85h-69v85zm0 177h69V272h-69v177" fill="#5BBF89" fill-rule="evenodd" clip-rule="evenodd"/>
  <path d="M413 255v68H19v-68c0-10 7-17 17-17h360c10 0 17 8 17 17" stroke="#4F5661" stroke-linecap="round" stroke-linejoin="round" stroke-width="17" clip-rule="evenodd"/>
  <path d="M396 348v135c0 10-8 17-17 17H53c-10 0-17-8-17-17V348m170-110c-58 0-105-20-136-48" stroke="#4F5661" stroke-linecap="round" stroke-linejoin="round" stroke-width="17"/>
  <path d="M216 232c0-62-36-112-73-82-36 27 10 76 73 82" stroke="#4F5661" stroke-linecap="round" stroke-linejoin="round" stroke-width="17" clip-rule="evenodd"/>
  <path d="M226 238c58 0 104-20 135-48" stroke="#4F5661" stroke-linecap="round" stroke-linejoin="round" stroke-width="17"/>
  <path d="M216 232c0-62 36-110 73-82 38 29-10 76-73 82" stroke="#4F5661" stroke-linecap="round" stroke-linejoin="round" stroke-width="17" clip-rule="evenodd"/>
  <path d="M216 10v93" stroke="#D3E5EF" stroke-linecap="round" stroke-linejoin="round" stroke-width="17"/>
  <path d="M190 44l26-34 24 34h-50" stroke="#D3E5EF" stroke-linecap="round" stroke-linejoin="round" stroke-width="17" clip-rule="evenodd"/>
  <path d="M385 62l40 17-28 32-12-50" fill="#D3E5EF" fill-rule="evenodd" clip-rule="evenodd"/>
  <path d="M385 62l40 17-28 32-12-50" stroke="#D3E5EF" stroke-linecap="round" stroke-linejoin="round" stroke-width="17" clip-rule="evenodd"/>
  <path d="M336 128s16-27 55-43" stroke="#D3E5EF" stroke-linecap="round" stroke-linejoin="round" stroke-width="17"/>
  <path d="M50 62L10 79l27 31 12-50" fill="#D3E5EF" fill-rule="evenodd" clip-rule="evenodd"/>
  <path d="M50 62L10 79l27 31 12-50" stroke="#D3E5EF" stroke-linecap="round" stroke-linejoin="round" stroke-width="17" clip-rule="evenodd"/>
  <path d="M99 128s-16-27-55-43" stroke="#D3E5EF" stroke-linecap="round" stroke-linejoin="round" stroke-width="17"/>
</svg>
