<svg xmlns="http://www.w3.org/2000/svg" fill="none" viewBox="0 0 60 60">
  <path d="M47.5 52h-45V10.5c3.167-.167 10-.4 12 0 2.5.5 3 1.5 3 2.5s2 2.5 4 2.5H50V23h7.5l-10 29z" fill="#fff"/>
  <path fill-rule="evenodd" clip-rule="evenodd" d="M1 10a1 1 0 011-1h11.84a5.01 5.01 0 014.153 2.192l.001.002 1.616 2.4a3.012 3.012 0 002.496 1.313H49.92a1 1 0 011 1v5.892h6.988a1 1 0 01.913 1.408 95.742 95.742 0 00-3.973 10.455l-.004.014-6.146 18.745a1 1 0 01-.935.689l-14.54.226H2a1 1 0 01-1-1V10zm47.92 11.8v-4.893H22.105a5.011 5.011 0 01-4.153-2.193l-1.617-2.402A3.012 3.012 0 0013.84 11H3v36.104c.98-4.53 2.291-9.386 4.044-14.48a130.117 130.117 0 014.025-10.229 1 1 0 01.914-.596H48.92zM4.192 51.335a124.673 124.673 0 014.743-18.06 127.524 127.524 0 013.7-9.477h43.741a96.49 96.49 0 00-3.437 9.26L47.017 51.12l-13.818.215H4.193z" fill="#4F5661"/>
  <path fill-rule="evenodd" clip-rule="evenodd" d="M22.92 39.273a33.457 33.457 0 012.397-7.878h14.376a26 26 0 00-2.13 7.877H22.92z" fill="#CFE6F0"/>
  <path clip-rule="evenodd" d="M22.92 39.273a33.457 33.457 0 012.397-7.878h14.376a26 26 0 00-2.13 7.877H22.92z" stroke="#CFE6F0" stroke-width="1.708" stroke-linecap="round" stroke-linejoin="round"/>
  <path fill-rule="evenodd" clip-rule="evenodd" d="M26.958 35.334c0-.472.383-.854.855-.854H34.8a.854.854 0 010 1.708h-6.987a.854.854 0 01-.855-.854z" fill="#fff"/>
</svg>
