<svg fill="none" xmlns="http://www.w3.org/2000/svg" viewBox="0 0 52 45">
  <path fill-rule="evenodd" clip-rule="evenodd" d="M10 18.553l16.084 7.4 15.137-6.476v-2.774l-15.136 5.55L10.398 16 10 18.553z" fill="#CAE7F1"/>
  <path fill-rule="evenodd" clip-rule="evenodd" d="M10.883 18.488l15.11 6.952 14.228-6.086v-.937l-13.926 5.106a.92.92 0 01-.654-.01l-14.632-5.832-.126.807zm15.097 8.79a.921.921 0 01-.381-.082L9.514 19.795a.869.869 0 01-.503-.925l.397-2.553a.875.875 0 01.445-.63.912.912 0 01.78-.05l15.36 6.125 14.809-5.43a.915.915 0 01.825.1.87.87 0 01.386.72v2.776c0 .348-.21.662-.537.802l-15.137 6.475a.907.907 0 01-.36.074z" fill="#CAE7F1"/>
  <mask id="wDcbY0tNoa" maskUnits="userSpaceOnUse" x="0" y="0" width="52" height="23">
    <path fill-rule="evenodd" clip-rule="evenodd" d="M0 .573h52v22.255H0V.573z" fill="#fff"/>
  </mask>
  <g mask="url(#wDcbY0tNoa)">
    <path fill-rule="evenodd" clip-rule="evenodd" d="M3.222 11.7L26 21.004 48.778 11.7 26 2.398 3.222 11.701zM26 22.829a.922.922 0 01-.346-.068L.551 12.51A.877.877 0 010 11.7c0-.353.217-.671.551-.808L25.654.64c.223-.09.47-.09.693 0l25.102 10.252a.875.875 0 01.551.809.877.877 0 01-.551.809L26.347 22.76a.926.926 0 01-.347.068z" fill="#4D5662"/>
  </g>
  <path fill-rule="evenodd" clip-rule="evenodd" d="M40.898 33.094a.901.901 0 01-.752-.398.864.864 0 01.261-1.212c.425-.27.838-.55 1.254-.849V16.45c0-.484.402-.876.896-.876.496 0 .897.392.897.876v14.625a.87.87 0 01-.354.698 29.84 29.84 0 01-1.714 1.18.911.911 0 01-.488.142zM25.98 36.458c-7.936 0-13.824-3.503-16.628-5.59A.872.872 0 019 30.17V16.45c0-.485.4-.876.896-.876s.897.391.897.876v13.28c2.746 1.971 8.094 4.975 15.187 4.975 2.76 0 5.505-.454 8.156-1.35a.905.905 0 011.14.542.872.872 0 01-.555 1.116 27.285 27.285 0 01-8.741 1.444zM24 12.449c0 .484.802.876 1.792.876s1.793-.392 1.793-.876-.802-.876-1.793-.876c-.99 0-1.792.392-1.792.876z" fill="#4D5662"/>
  <path fill-rule="evenodd" clip-rule="evenodd" d="M25.69 14.078c-1.559 0-2.69-.737-2.69-1.753 0-1.015 1.131-1.752 2.69-1.752 1.557 0 2.688.737 2.688 1.752 0 1.016-1.13 1.753-2.689 1.753z" fill="#4D5662"/>
  <path fill-rule="evenodd" clip-rule="evenodd" d="M37.354 37.328a.886.886 0 01-.896-.876V18.544l-10.96-5.309a.87.87 0 01-.405-1.174.905.905 0 011.201-.397l11.458 5.55a.875.875 0 01.498.786v18.452c0 .483-.4.876-.896.876z" fill="#4D5662"/>
  <path fill-rule="evenodd" clip-rule="evenodd" d="M38.07 35.573h-1.008c-.52 0-.96.293-1.024.684l-1.03 6.329c-.076.464.404.874 1.023.874h3.315c.62 0 1.099-.41 1.023-.874l-1.03-6.33c-.064-.39-.503-.683-1.024-.683h-.245z" fill="#FF8173"/>
  <path fill-rule="evenodd" clip-rule="evenodd" d="M35.814 42.445a.41.41 0 00.114.015h3.316a.404.404 0 00.112-.015l-.992-6.091a.374.374 0 00-.152-.029H36.96a.374.374 0 00-.152.029l-.993 6.09zm3.43 1.767h-3.316c-.616 0-1.177-.24-1.543-.657a1.482 1.482 0 01-.366-1.23l1.032-6.33c.135-.825.937-1.422 1.908-1.422h1.253c.971 0 1.773.597 1.908 1.42l1.032 6.33c.071.443-.059.88-.367 1.232-.364.417-.927.657-1.541.657z" fill="#FF8173"/>
  <path fill-rule="evenodd" clip-rule="evenodd" d="M17.964 31.438c0 4.66-4.022 8.437-8.982 8.437-4.96 0-8.982-3.778-8.982-8.438S4.021 23 8.982 23c4.96 0 8.982 3.778 8.982 8.438z" fill="#00C675"/>
  <path fill-rule="evenodd" clip-rule="evenodd" d="M12.618 33.523c0-1.511-1.613-2.191-3.008-2.648-1.167-.387-1.699-.762-1.699-1.313 0-.375.446-.82 1.266-.82.792 0 1.887.586 2.001.644.173.095.39 0 .505-.14l.547-.668c.1-.117.056-.316-.087-.386a5.874 5.874 0 00-2.12-.727v-1.113A.354.354 0 009.667 26h-.714a.354.354 0 00-.358.352v1.1c-1.8.213-2.57 1.271-2.57 2.204 0 1.383 1.355 2.086 2.707 2.532 1.21.398 1.829.808 1.829 1.406 0 .503-.562.902-1.31.902-.937 0-2.102-.692-2.174-.727-.13-.082-.375-.082-.49.083l-.518.726c-.13.188-.057.246.072.352.248.19 1.074.727 2.454.874v1.094c0 .194.16.352.358.352h.714a.355.355 0 00.358-.352v-1.104c1.61-.228 2.594-1.212 2.594-2.27z" fill="#fff"/>
</svg>
