<svg xmlns="http://www.w3.org/2000/svg" fill="none" viewBox="0 0 50 41">
  <path d="M25 .834L2.085 10.417l7.917 3.75v12.917c1.666 1.806 6.928 5.842 14.583 5.417 7.5-.417 15-3.334 15.417-4.584v-13.75l8.333-3.75L25.001.834z" fill="#fff"/>
  <path fill-rule="evenodd" clip-rule="evenodd" d="M10.146 16.667l14.953 7.036 14.074-6.156v-2.64l-14.074 5.278-14.584-5.947-.37 2.429z" fill="#CFE6F0"/>
  <path d="M25.112 19.29l13.769-5.163a.833.833 0 011.126.78v2.64c0 .33-.196.63-.5.763l-14.074 6.157a.833.833 0 01-.689-.01L9.791 17.42a.833.833 0 01-.469-.879l.37-2.428a.833.833 0 011.139-.646l14.28 5.823zm0 3.498l13.228-5.787v-.891l-12.948 4.855a.834.834 0 01-.607-.009L11.18 15.41l-.117.768 14.049 6.611z" fill="#CFE6F0"/>
  <path d="M25.328 21.099a.834.834 0 01-.643 0l-23.34-9.748a.833.833 0 010-1.538L24.685.064a.833.833 0 01.643 0l23.34 9.749a.833.833 0 010 1.538l-23.34 9.748zm-.322-1.672l21.178-8.845-21.178-8.846L3.83 10.582l21.177 8.845z" fill="#4F5661"/>
  <path d="M38.007 28.463a.833.833 0 00.909 1.397 26.777 26.777 0 001.593-1.122.834.834 0 00.33-.664V14.165a.833.833 0 10-1.666 0v13.49c-.37.273-.749.536-1.166.808zM10.84 14.167a.833.833 0 00-1.667 0v13.049c0 .26.121.505.328.662 4.107 3.13 9.117 5.317 15.458 5.317 2.85 0 5.568-.49 8.128-1.374a.833.833 0 00-.545-1.576 23.11 23.11 0 01-7.583 1.283c-5.748 0-10.338-1.933-14.12-4.729V14.167z" fill="#4F5661"/>
  <path fill-rule="evenodd" clip-rule="evenodd" d="M23.34 10.833c0 .46.747.834 1.666.834.92 0 1.667-.374 1.667-.834 0-.46-.746-.833-1.666-.833-.92 0-1.667.373-1.667.833z" fill="#4F5661"/>
  <path clip-rule="evenodd" d="M23.34 10.833c0 .46.747.834 1.666.834.92 0 1.667-.374 1.667-.834 0-.46-.746-.833-1.666-.833-.92 0-1.667.373-1.667.833z" stroke="#4F5661" stroke-width="2" stroke-linecap="round" stroke-linejoin="round"/>
  <path d="M35.006 33.334a.833.833 0 001.667 0V15.787a.833.833 0 00-.464-.747L25.557 9.763a.833.833 0 00-.74 1.493l10.19 5.048v17.03z" fill="#4F5661"/>
  <path fill-rule="evenodd" clip-rule="evenodd" d="M36.195 32.5h-.938c-.484 0-.892.28-.952.65l-.958 6.018c-.07.443.375.832.952.832h3.082c.576 0 1.021-.39.951-.832l-.958-6.018c-.06-.37-.468-.65-.952-.65h-.227z" fill="#FF8979"/>
  <path clip-rule="evenodd" d="M36.195 32.5h-.938c-.484 0-.892.28-.952.65l-.958 6.018c-.07.443.375.832.952.832h3.082c.576 0 1.021-.39.951-.832l-.958-6.018c-.06-.37-.468-.65-.952-.65h-.227z" stroke="#FF8979" stroke-width="2" stroke-linecap="round" stroke-linejoin="round"/>
</svg>
