<svg fill="none" xmlns="http://www.w3.org/2000/svg" viewBox="0 0 45 51">
  <path fill-rule="evenodd" clip-rule="evenodd" d="M31.826 33.207c-1.906.97-4.748 1.51-8.124 1.53-3.375-.02-6.217-.56-8.123-1.53-2.194-1.11-3.172-2.789-2.321-4.896.4 1.115 1.202 1.256 2.321 2.002 1.906 1.28 4.748 1.995 8.123 2.016 3.376-.021 6.218-.736 8.124-2.016 1.119-.746 1.92-.887 2.321-2.002.852 2.107-.126 3.787-2.32 4.896zM8.167 31.2v11.218c0 .672-.5 1.257-1.212 1.418L1 45.18V29.115l5.764.635c.8.089 1.403.711 1.403 1.45z" fill="#D3E5EF"/>
  <path clip-rule="evenodd" d="M8.167 31.2v11.218c0 .672-.5 1.257-1.212 1.418L1 45.18V29.115l5.764.635c.8.089 1.403.711 1.403 1.45z" stroke="#4F5661" stroke-width="1.6" stroke-linecap="round" stroke-linejoin="round"/>
  <path d="M30.12 36.344l8.53-5.79a3.696 3.696 0 014.643.971l.582.77-14.418 9.654c-.83.547-2.596.838-3.586.838l-12.118-.02c-3.986 0-5.578-3.21-5.586-3.21" stroke="#4F5661" stroke-width="1.6" stroke-linecap="round" stroke-linejoin="round"/>
  <path d="M37.677 26.826a3.755 3.755 0 014.77 1.004l.765 1.164-1.816 1.141m-33.229 3.8c0-1.776 1.425-3.214 3.185-3.214m7.175 7.229h7.166a2.4 2.4 0 012.39 2.41 2.4 2.4 0 01-2.39 2.41h-9.555" stroke="#4F5661" stroke-width="1.6" stroke-linecap="round" stroke-linejoin="round"/>
  <mask id="pDHki7-dQa" maskUnits="userSpaceOnUse" x="21" y="49" width="1" height="1">
    <path fill-rule="evenodd" clip-rule="evenodd" d="M21.847 49.197h-.796v-.008h.796v.008z" fill="#fff"/>
  </mask>
  <g mask="url(#pDHki7-dQa)">
    <path fill-rule="evenodd" clip-rule="evenodd" d="M21.576 49.197h-.525c.088 0 .175 0 .263-.008.087.008.175.008.262.008z" fill="#4F5661"/>
  </g>
  <path fill-rule="evenodd" clip-rule="evenodd" d="M28.082 23.224c0-1.775-1.137-2.817-3.688-3.38-2.226-.483-2.398-.956-2.398-1.571 0-.703.7-1.193 1.703-1.193.968 0 1.809.322 2.646 1.012l.376.312 1.235-1.656-.353-.288c-.907-.736-1.8-1.147-2.856-1.3v-1.431a.677.677 0 00-.672-.68h-.671a.676.676 0 00-.671.68v1.473c-1.677.354-2.82 1.587-2.82 3.203 0 2.29 1.822 3.005 3.793 3.439 2.12.453 2.279.898 2.279 1.527 0 .754-.743 1.28-1.805 1.28-1.222 0-2.144-.387-3.18-1.336l-.36-.328-1.317 1.579.34.306c.953.863 1.952 1.39 3.07 1.626v1.504c0 .376.3.68.67.68h.672a.676.676 0 00.672-.68v-1.405c1.988-.228 3.335-1.544 3.335-3.373z" fill="#5BBF89"/>
  <path d="M20.302 8.96s-5.86 3.045-7.86 8.636c-1.018 2.843-1.146 5.358-.565 7.462a8.584 8.584 0 002.628 4.226c2.158 1.928 5.375 3.004 9.197 3.036.064.008.136.008.207.008h-.413c.071 0 .143 0 .207-.008 3.822-.032 7.039-1.108 9.197-3.036a8.584 8.584 0 002.628-4.226c.58-2.104.453-4.619-.566-7.462-1.999-5.59-7.23-8.635-7.23-8.635" stroke="#4F5661" stroke-width="1.6"/>
  <path fill-rule="evenodd" clip-rule="evenodd" d="M21.079 9.19l-.22.064c.05-.047.128-.068.22-.063z" fill="#4F5661"/>
  <path fill-rule="evenodd" clip-rule="evenodd" d="M27.48 9.522c-.848.315-2.155.684-3.777.684a10.8 10.8 0 01-3.777-.684V6.099c.847.316 2.154.684 3.777.684.895 0 2.242-.112 3.777-.684v3.423z" fill="#D3E5EF"/>
  <path clip-rule="evenodd" d="M27.48 9.522c-.848.315-2.155.684-3.777.684a10.8 10.8 0 01-3.777-.684V6.099c.847.316 2.154.684 3.777.684.895 0 2.242-.112 3.777-.684v3.423z" stroke="#4F5661" stroke-width="1.6"/>
  <path d="M27.48 6.08c0-1.693 2.517-5.08 2.517-5.08h-6.714.84-6.715s2.518 3.387 2.518 5.08" stroke="#4F5661" stroke-width="1.6" stroke-linejoin="round"/>
</svg>
