<svg xmlns="http://www.w3.org/2000/svg" fill="none" viewBox="0 0 520 530">
  <circle fill="#D3E5EF" cx="131" cy="215" r="20" stroke="#4F5661" stroke-width="10" transform="rotate(-7 130 215)"/>
  <circle fill="#D3E5EF" cx="359" cy="187" r="20" stroke="#4F5661" stroke-width="10" transform="rotate(-7 360 187)"/>
  <rect width="451" height="333" x="16" y="179" stroke="#4F5661" stroke-width="20" rx="29" transform="rotate(-7 16 180)"/>
  <path d="M120 450c114-51 230-67 303-57" stroke="#D3E5EF" stroke-linecap="round" stroke-linejoin="round" stroke-width="20"/>
  <path d="M168 261c7 0 13 1 17 4 13 4 20 16 21 30a100 100 0 01-6 45c-10 26-27 48-50 50h-13c-17-4-26-18-28-34-5-41 28-82 49-92a34 34 0 0111-4zm-26 120c12 0 28-18 39-45 7-18 9-35 7-47 0-10-3-15-8-16-9-2-30 13-44 43-8 16-10 33-10 46 3 14 8 20 16 20zm89-50l-5 12c-5 13-2 27 3 26 6 0 14-12 20-30 3-10 5-20 4-26l-2-6c-4-1-14 10-20 24zm39-14c0 8 0 19-4 28a68 68 0 01-15 27c15-5 24-19 28-30 2-6 6-5 8-1 0 2 1 7-2 13-6 17-22 25-38 27-16 1-26-3-32-13a650 650 0 00-18 55c-1 4-4 5-6 3-3-3-5-6-5-10v-13c4-20 29-84 39-101 3-5 5-5 7-3s3 5 3 7a30 30 0 0115-6c12-2 19 8 20 18zm53-18c-3-2-16 12-23 32h5c4 0 10-7 13-12 5-9 8-18 5-20zm16 6c1 12-10 34-26 36a25 25 0 01-15-3v12c0 9 5 14 11 13 15-1 26-17 33-30 1-4 4-4 6 0 0 0 2 7-1 12a51 51 0 01-37 26c-18 3-30-8-30-24-2-7 0-14 2-23 8-22 22-34 34-35h7c5 3 10 6 13 10l3 6zm29-20c2 2 3 5 3 8v4c8-9 17-16 24-17 5-1 11 5 12 13 0 4-2 10-7 22a70 70 0 00-9 32c0 4 2 6 5 6 6-1 15-15 20-29 2-4 5-4 7-1 2 2 2 8 0 13-4 12-17 24-28 25-13 2-20-4-21-14s5-30 11-43l5-12c-2 0-10 7-20 20s-16 33-21 52c-1 3-4 4-7 2a20 20 0 01-6-10v-10c3-12 15-41 24-60 2-5 5-5 8-2" fill="#53C27C" fill-rule="evenodd" clip-rule="evenodd"/>
  <path d="M130 223l95-183c15-28 74-33 90 6l51 147" stroke="#D3E5EF" stroke-linecap="round" stroke-linejoin="round" stroke-width="20"/>
  <ellipse fill="#4F5661" cx="264" cy="65" rx="24" ry="25"/>
  <path d="M286 364c-4-7-6-14-4-18 3-5 7-7 8-5 2 3 2 22-4 23zm53-2c5-5 15-17 10-25-3-9-6-6-7-4l-5 13-1 12s0 4 3 4" fill="#53C27C" fill-rule="evenodd" clip-rule="evenodd"/>
</svg>
