<svg fill="none" xmlns="http://www.w3.org/2000/svg" viewBox="0 0 52 53">
  <ellipse cx="13.097" cy="21.522" rx="1.959" ry="1.961" transform="rotate(-7 13.097 21.522)" fill="#D3E5EF" stroke="#4F5661" stroke-width=".978"/>
  <ellipse cx="35.925" cy="18.719" rx="1.959" ry="1.961" transform="rotate(-7 35.925 18.72)" fill="#D3E5EF" stroke="#4F5661" stroke-width=".978"/>
  <rect x="1.591" y="17.915" width="45.063" height="33.337" rx="2.935" transform="rotate(-7 1.59 17.915)" stroke="#4F5661" stroke-width="1.957"/>
  <path d="M11.988 44.98c11.385-5.09 22.973-6.651 30.327-5.64" stroke="#D3E5EF" stroke-width="1.957" stroke-linecap="round" stroke-linejoin="round"/>
  <path fill-rule="evenodd" clip-rule="evenodd" d="M16.82 26.142c.7-.086 1.274.08 1.647.39 1.334.41 1.985 1.535 2.155 2.916.176 1.44-.124 3.176-.695 4.63-1.026 2.575-2.744 4.82-4.98 5.095-.467.058-.885.03-1.332-.073-1.749-.418-2.57-1.798-2.768-3.414-.504-4.106 2.71-8.155 4.83-9.206a3.441 3.441 0 011.143-.338zm-2.647 12.04c1.206-.148 2.833-1.85 3.903-4.549.72-1.847.909-3.53.763-4.716-.115-.934-.386-1.533-.813-1.639-.894-.206-3.03 1.36-4.468 4.282-.803 1.66-1.025 3.386-.87 4.65.167 1.363.746 2.063 1.485 1.972zm8.895-5.043l-.493 1.127c-.45 1.32-.142 2.704.364 2.642.603-.074 1.346-1.252 1.945-2.965.355-.972.466-1.993.387-2.635-.043-.35-.11-.58-.212-.607-.37-.112-1.329.914-1.99 2.438zm3.928-1.45c.103.836-.087 1.867-.42 2.856-.334 1.128-.869 2.082-1.429 2.665 1.404-.469 2.354-1.89 2.78-3.087.178-.477.598-.43.724-.05.063.19.149.733-.11 1.357-.681 1.684-2.248 2.43-3.862 2.627-1.536.19-2.554-.22-3.13-1.215-.66 1.7-1.29 3.477-1.873 5.484-.112.37-.336.476-.56.267-.336-.334-.467-.595-.517-1.004-.038-.31-.03-.727.078-1.293.337-1.918 2.802-8.365 3.81-10.128.297-.471.56-.424.741-.23.182.195.252.444.283.697.445-.39.978-.713 1.503-.778 1.167-.143 1.86.839 1.982 1.831zm5.328-1.78c-.32-.199-1.614 1.165-2.318 3.148.168.078.309.1.445.084.467-.057 1.017-.718 1.342-1.29.47-.83.766-1.794.531-1.943zm1.554.599c.143 1.167-.909 3.37-2.62 3.58a2.517 2.517 0 01-1.433-.258c-.069.404-.077.82-.034 1.17.105.856.53 1.416 1.113 1.345 1.478-.181 2.604-1.782 3.253-3.086.175-.338.423-.408.627-.038.08.168.168.73-.117 1.299-.671 1.287-2.114 2.393-3.629 2.599-1.806.241-2.944-.824-3.135-2.381-.086-.7.016-1.484.328-2.312.758-2.187 2.207-3.412 3.334-3.55.273-.034.491-.021.7.071.583.245 1.01.509 1.33.864.138.161.252.444.283.697zm2.901-2.095c.21.27.327.572.365.884.017.136.034.272.029.391.74-.881 1.595-1.638 2.295-1.724.564-.069 1.172.548 1.263 1.287.053.428-.22 1.094-.71 2.26-.5 1.07-1.003 2.435-.915 3.155.05.409.218.645.47.614.662-.081 1.517-1.47 2.057-2.86.15-.394.424-.408.633-.157.184.215.277.816.07 1.374-.413 1.138-1.706 2.343-2.873 2.487-1.303.16-1.948-.433-2.072-1.445-.13-1.05.545-2.951 1.155-4.25.33-.693.579-1.237.443-1.22-.175.02-1.061.683-1.982 2.02-.931 1.26-1.572 3.276-2.154 5.125-.098.328-.337.476-.686.203-.306-.24-.502-.551-.56-1.018-.035-.292-.018-.63.051-1.034.236-1.135 1.399-4.043 2.382-6.001.208-.401.502-.418.74-.091z" fill="#53C27C"/>
  <path d="M12.957 22.31S20.962 6.79 22.48 3.973c1.517-2.818 7.444-3.242 8.936.585 1.493 3.827 5.231 14.694 5.231 14.694" stroke="#D3E5EF" stroke-width="1.957" stroke-linecap="round" stroke-linejoin="round"/>
  <ellipse cx="26.449" cy="6.451" rx="2.449" ry="2.451" fill="#4F5661"/>
  <path fill-rule="evenodd" clip-rule="evenodd" d="M28.617 36.442c-.464-.73-.58-1.412-.371-1.862.208-.45.655-.716.794-.44.138.275.126 2.111-.423 2.302zm5.306-.197c.464-.51 1.496-1.743 1.072-2.572-.423-.83-.67-.584-.815-.347-.145.237-.49 1.298-.49 1.298l-.137 1.204s.106.388.37.416z" fill="#53C27C"/>
</svg>
