<svg xmlns="http://www.w3.org/2000/svg" fill="none" viewBox="0 0 590 470">
  <path d="M80 320h430V10H80v310zM15 455h555l10-45-70-90H75l-65 85 5 50" fill="#fff" fill-rule="evenodd" clip-rule="evenodd"/>
  <path d="M354 420a10 10 0 01-9-5l-17-33h-66l-17 33a10 10 0 01-13 4 10 10 0 01-5-13l20-38a10 10 0 019-6h78c4 0 7 2 10 6l19 38a10 10 0 010 10 10 10 0 01-9 4zm157-87H80a10 10 0 01-10-10V40a40 40 0 0140-39h373a40 40 0 0140 40v283c0 6-5 10-10 10zM88 313h413V40c0-10-8-20-20-20H109a20 20 0 00-20 20v274" fill="#4F5661"/>
  <path d="M550 470H40c-27 0-40-10-40-30v-29c0-2 0-4 2-6l69-88a10 10 0 0114-2 10 10 0 011 14l-66 86v25c0 4 0 10 20 10h510a20 20 0 0020-20v-16l-66-86a10 10 0 011-14 10 10 0 0114 2l69 88a10 10 0 012 6v20a40 40 0 01-40 39" fill="#4F5661"/>
  <path d="M580 421H20a10 10 0 01-10-10c0-5 4-10 10-10h560a10 10 0 110 20" fill="#4F5661"/>
  <path d="M472 40H118a10 10 0 00-10 9v235c0 5 5 10 10 10h354a10 10 0 0010-10V49a10 10 0 00-10-10" fill="#CFE6F0"/>
  <path d="M110 40h370v40H110V40zm288 125H192a10 10 0 01-10-10c0-5 4-10 10-10h206a10 10 0 0110 10c0 6-4 10-10 10zm0 59H192a10 10 0 01-10-10c0-5 4-10 10-10h206a10 10 0 0110 10c0 5-4 10-10 10" fill="#4F5661"/>
  <path d="M133 67a10 10 0 100-20 10 10 0 000 20zm30 0a10 10 0 100-20 10 10 0 000 20zm29 0a10 10 0 100-20 10 10 0 000 20" fill="#fff"/>
</svg>
