<svg xmlns="http://www.w3.org/2000/svg" fill="none" viewBox="0 0 59 47">
  <path fill-rule="evenodd" clip-rule="evenodd" d="M8 32h43V1H8v31zM1.5 45.5H57l1-4.5-7-9H7.5L1 40.5l.5 5z" fill="#fff"/>
  <path d="M35.4 42.045a.984.984 0 01-.875-.538l-1.692-3.32h-6.667l-1.69 3.32a.985.985 0 01-1.31.4.977.977 0 01-.441-1.291l1.966-3.858a.984.984 0 01.876-.529h7.866c.37.001.709.21.875.539l1.967 3.858a.976.976 0 01-.04.953.984.984 0 01-.835.466zm15.733-8.753H7.867a.981.981 0 01-.984-.98V3.918A3.925 3.925 0 0110.817 0h37.366a3.925 3.925 0 013.934 3.917v28.395c0 .541-.44.98-.984.98zM8.85 31.333h41.3V3.917c0-1.082-.88-1.959-1.967-1.959H10.817A1.963 1.963 0 008.85 3.917v27.416z" fill="#4F5661"/>
  <path d="M55.067 47H3.933C1.327 47 0 46.02 0 44.062v-2.937c0-.216.073-.426.206-.597l6.884-8.813a.987.987 0 011.381-.171.977.977 0 01.172 1.376l-6.676 8.538v2.605c0 .46 0 .979 1.966.979h51.134a1.963 1.963 0 001.966-1.959v-1.625l-6.677-8.548a.978.978 0 01.173-1.376.987.987 0 011.381.171l6.884 8.813a.977.977 0 01.206.607v1.958A3.925 3.925 0 0155.067 47z" fill="#4F5661"/>
  <path d="M58.017 42.104H1.967a.981.981 0 01-.984-.979c0-.54.44-.98.984-.98h56.05c.543 0 .983.44.983.98s-.44.98-.983.98z" fill="#4F5661"/>
  <path d="M47.203 3.917H11.797a.98.98 0 00-.98.98v23.498c0 .541.438.98.98.98h35.406a.98.98 0 00.98-.98V4.897a.98.98 0 00-.98-.98z" fill="#CFE6F0"/>
  <path d="M11 4h37v4H11V4zm28.825 12.499h-20.65a.981.981 0 01-.983-.98c0-.54.44-.978.983-.978h20.65a.98.98 0 01.983.979c0 .54-.44.979-.983.979zm0 5.875h-20.65a.981.981 0 01-.983-.98c0-.54.44-.978.983-.978h20.65a.98.98 0 01.983.979c0 .54-.44.979-.983.979z" fill="#4F5661"/>
  <path d="M13.275 6.728a1 1 0 100-2 1 1 0 000 2zm2.95 0a1 1 0 100-2 1 1 0 000 2zm2.95 0a1 1 0 100-2 1 1 0 000 2z" fill="#fff"/>
</svg>
