<svg fill="none" xmlns="http://www.w3.org/2000/svg" viewBox="0 0 74 56">
  <path fill-rule="evenodd" clip-rule="evenodd" d="M71.3 12.15L33.5 27v4.05l2.7-1.06V52.2h32.4V17.26l2.7-1.06v-4.05z" fill="#fff"/>
  <path d="M46.1 19.575c-8.757-1.683-11.934 2.925-13.005 5.445.081-2.592-.603-10.062-11.043-11.52 0 0-.837 5.319 2.538 7.974l3.375-1.8-1.665 3.573s0 1.422 4.905 2.358a1.494 1.494 0 00-.072.18C20.9 24.696 20.054 32.4 20.054 32.4c5.886.9 6.3-.369 6.3-.369l-.648-2.988 2.394 2.106c.816-.28 1.55-.76 2.133-1.395a47.69 47.69 0 00-.657 8.829c.024 2.192.253 4.376.684 6.525a19.798 19.798 0 002.448 6.417l.063.09a1.953 1.953 0 103.195-2.241 15.884 15.884 0 01-2.214-5.094 31.141 31.141 0 01-.9-5.832 44.94 44.94 0 010-6.03c.113-1.898.356-3.787.729-5.652l.405.063 5.22-2.115 1.116-.414L47 21.6c.81-1.395-.9-2.025-.9-2.025z" fill="#CFE6F0"/>
  <path d="M35.039 53.1c-3.645 0-10.944-.828-6.381-2.484A36.244 36.244 0 0136.2 49.5v3.6m33.102 0c2.187 0 6.561-.828 3.825-2.484A13.95 13.95 0 0068.6 49.5v3.6" fill="#CFE6F0"/>
  <path d="M49.7 53.1h-8.1a.9.9 0 01-.9-.9V38.7a.9.9 0 01.9-.9h8.1a.9.9 0 01.9.9v13.5a.9.9 0 01-.9.9zm-7.2-1.8h6.3V39.6h-6.3v11.7z" fill="#4F5661"/>
  <path d="M64.1 40.5h-9v-9.9l9-3.6v13.5z" fill="#CFE6F0"/>
  <path d="M64.1 41.4h-9a.9.9 0 01-.9-.9v-9.9a.9.9 0 01.567-.837l9-3.6A.9.9 0 0165 27v13.5a.9.9 0 01-.9.9zM56 39.6h7.2V28.332l-7.2 2.88V39.6zm-9 8.1a.9.9 0 01-.9-.9v-2.7a.9.9 0 111.8 0v2.7a.9.9 0 01-.9.9z" fill="#4F5661"/>
  <path d="M68.6 53.1H36.2a.9.9 0 110-1.8h31.5V18a.9.9 0 111.8 0v34.2a.9.9 0 01-.9.9z" fill="#4F5661"/>
  <path d="M56.495 17.172c.033-.275.048-.551.045-.828A6.858 6.858 0 1045.281 21.6l11.214-4.428zM49.7 6.696a.9.9 0 01-.9-.9V.945a.9.9 0 111.8 0v4.851a.9.9 0 01-.9.9zm7.407 3.069a.9.9 0 01-.639-.261.9.9 0 010-1.269l3.429-3.429a.9.9 0 011.269 1.269l-3.42 3.429a.9.9 0 01-.639.261zm-14.85 0a.9.9 0 01-.639-.261l-3.42-3.429a.9.9 0 111.269-1.269l3.429 3.429a.9.9 0 010 1.269.9.9 0 01-.639.261zm17.109 3.384a.9.9 0 01-.342-1.737l1.665-.693a.905.905 0 11.711 1.665l-1.665.693a.98.98 0 01-.369.072zm-19.395.054a.901.901 0 01-.342-.063l-2.358-.972A.909.909 0 1138 10.503l2.358.972a.9.9 0 01-.342 1.728h-.045zm5.661-5.697a.9.9 0 01-.828-.558l-.405-.972a.9.9 0 01.486-1.179.9.9 0 011.17.486l.414 1.017a.902.902 0 01-.486 1.179.98.98 0 01-.351.027zm8.037-.027a.9.9 0 01-.369-.063.9.9 0 01-.486-1.179l.963-2.358a.9.9 0 111.665.684l-.936 2.358a.9.9 0 01-.837.558z" fill="#FF8979"/>
  <path d="M36.2 30.6v21.6" stroke="#4F5661" stroke-width="2" stroke-linecap="round" stroke-linejoin="round"/>
  <path d="M33.275 32.4a.845.845 0 01-.522-.171.9.9 0 01-.378-.774L32.6 27a.9.9 0 01.558-.792l37.8-15.3a.9.9 0 01.9.099.901.901 0 01.342.693l-.072 4.5a.9.9 0 01-.567.828l-37.953 15.3a.9.9 0 01-.333.072zm1.125-4.779l-.135 2.52 36.072-14.589v-2.511L34.4 27.621z" fill="#4F5661"/>
  <path fill-rule="evenodd" clip-rule="evenodd" d="M6.05 25.75L4.4 27.4v1.65H2.2v3.3h2.2v19.8h3.3v-19.8h4.4v2.2h2.2v-2.2h12.65v2.2h2.2v-2.2l1.65-1.65-1.65-1.65H7.7V27.4l-1.65-1.65z" fill="#fff"/>
  <path fill-rule="evenodd" clip-rule="evenodd" d="M31.35 52.814c0 .544-6.538.986-14.603.986-8.064 0-14.602-.442-14.602-.986 0-.545 6.538-.986 14.602-.986 8.065 0 14.603.441 14.603.986z" fill="#CFE6F0"/>
  <path d="M6.105 26.506l.99 1.292v.803a.494.494 0 00.99 0v-.97a.492.492 0 00-.102-.298L6.5 25.394a.496.496 0 00-.787 0l-1.486 1.939a.492.492 0 00-.101.299v.969a.494.494 0 00.99 0v-.803l.99-1.292zm-.99 25.322v-19.35a.494.494 0 00-.99 0V52.32c0 .272.222.493.495.493h2.97a.494.494 0 00.495-.493V32.478a.494.494 0 00-.99 0v19.35h-1.98z" fill="#4F5661"/>
  <path d="M28.71 31.61l1.32-.986-1.32-.986H2.64v1.972h26.07zm-27.06.493v-2.958c0-.273.222-.493.495-.493h26.73c.107 0 .211.034.297.098l1.98 1.48a.492.492 0 010 .789l-1.98 1.479a.496.496 0 01-.297.099H2.145a.494.494 0 01-.495-.494z" fill="#4F5661"/>
  <path d="M12.045 35.062a.494.494 0 01-.495-.493v-2.466c0-.272.222-.493.495-.493h1.98c.273 0 .495.221.495.493v2.466a.494.494 0 01-.495.493h-1.98zm1.485-.986v-1.48h-.99v1.48h.99zm13.365.986a.494.494 0 01-.495-.493v-2.466c0-.272.222-.493.495-.493h1.98c.273 0 .495.221.495.493v2.466a.494.494 0 01-.495.493h-1.98zm1.485-.986v-1.48h-.99v1.48h.99zM6.6 30.131h-.99a.494.494 0 100 .986h.99a.494.494 0 100-.986z" fill="#4F5661"/>
  <path fill-rule="evenodd" clip-rule="evenodd" d="M29.865 46.404h-18.81a.989.989 0 01-.99-.987V34.076h20.79v11.341a.989.989 0 01-.99.986z" fill="#FF8979"/>
  <path fill-rule="evenodd" clip-rule="evenodd" d="M15.453 39.925a.5.5 0 00.48-.493.478.478 0 00-.48-.468h-.933v.961h.933zM13.53 38.2c0-.062.05-.118.12-.118h1.885c.757 0 1.375.598 1.375 1.332 0 .567-.385 1.023-.933 1.239l.864 1.565c.044.08 0 .179-.108.179h-.838a.116.116 0 01-.101-.055l-.839-1.634h-.435v1.572a.123.123 0 01-.12.117h-.75a.118.118 0 01-.12-.117V38.2zm4.052 0c0-.062.05-.118.117-.118h2.552c.067 0 .117.056.117.118v.671c0 .062-.05.117-.117.117h-1.708v.765h1.406c.061 0 .117.055.117.117v.672a.117.117 0 01-.117.117h-1.406v.832h1.708c.067 0 .117.055.117.117v.672c0 .062-.05.117-.117.117h-2.552a.117.117 0 01-.117-.117V38.2zm3.511-.068c0-.062.056-.111.118-.111h.154l2.459 2.367h.006V38.2c0-.062.05-.118.117-.118h.74c.061 0 .117.056.117.118v4.148c0 .061-.056.11-.117.11h-.099a.18.18 0 01-.08-.03l-2.435-2.447h-.006v2.299c0 .062-.05.117-.117.117h-.733a.121.121 0 01-.117-.117l-.007-4.148zm5.315.856h-.88a.117.117 0 01-.118-.117V38.2c0-.061.05-.116.117-.116h2.736c.068 0 .117.055.117.116v.672a.117.117 0 01-.117.117h-.881v3.292a.122.122 0 01-.117.117h-.74a.121.121 0 01-.117-.117v-3.292z" fill="#fff"/>
</svg>
