<svg xmlns="http://www.w3.org/2000/svg" fill="none" viewBox="0 0 480 470">
  <path d="M480 454c0 9-106 16-236 16S8 463 8 454s106-16 236-16 236 7 236 16" fill="#D3E5EF" fill-rule="evenodd" clip-rule="evenodd"/>
  <path d="M48 65V49l24-31 24 31v16m0 62v320H48V127" stroke="#4F5661" stroke-linecap="round" stroke-linejoin="round" stroke-width="16"/>
  <path d="M8 121V73h432l32 24-32 24H8" stroke="#4F5661" stroke-linecap="round" stroke-linejoin="round" stroke-width="16" clip-rule="evenodd"/>
  <mask id="4bJcKW6rwa" width="480" height="460" x="0" y="10" maskUnits="userSpaceOnUse">
    <path d="M0 470h480V10H0v460" fill="#fff" fill-rule="evenodd" clip-rule="evenodd"/>
  </mask>
  <g mask="url(#4bJcKW6rwa)">
    <path d="M168 160h32v-39h-32v40zm240 0h32v-39h-32v40" stroke="#4F5661" stroke-linecap="round" stroke-linejoin="round" stroke-width="16" clip-rule="evenodd"/>
    <path d="M80 97H64" stroke="#4F5661" stroke-linecap="round" stroke-linejoin="round" stroke-width="16"/>
    <path d="M456 351H152c-9 0-16-7-16-16V153h336v182c0 9-7 16-16 16" fill="#F4877A" fill-rule="evenodd" clip-rule="evenodd"/>
    <path d="M223 247c4 0 8-4 8-8s-4-8-8-8h-15v16h15zm-31-28a2 2 0 012-2h30c13 0 23 10 23 22 0 9-7 16-15 20l14 25c0 1 0 3-2 3h-14a2 2 0 01-1-1l-14-27h-7v26s0 2-2 2h-12a2 2 0 01-2-2v-66zm65 0l2-2h42l2 2v10c0 2-1 3-2 3h-28v12h23s2 0 2 2v10c0 2-1 3-2 3h-23v13h28s2 0 2 2v10c0 2-1 3-2 3h-42a2 2 0 01-2-2v-66zm57-1l2-2h3l40 38v-34l1-2h12l2 2v67s0 2-2 2h-1a3 3 0 01-2 0l-39-40v37s0 2-2 2h-12a2 2 0 01-2-2v-67zm86 14h-14a2 2 0 01-2-2v-10c0-2 0-3 2-3h44l2 2v10c0 2 0 3-2 3h-14v53l-2 2h-12l-2-2v-53" fill="#fff" fill-rule="evenodd" clip-rule="evenodd"/>
  </g>
</svg>
