<svg xmlns="http://www.w3.org/2000/svg" fill="none" viewBox="0 0 740 560">
  <path d="M713 122L335 270v40l27-10v222h324V172l27-10v-40" fill="#fff" fill-rule="evenodd" clip-rule="evenodd"/>
  <path d="M461 196c-88-17-120 29-130 54 0-26-6-100-110-115 0 0-9 53 25 80l34-18-17 35s0 15 50 24a15 15 0 00-2 2c-102-11-110 66-110 66 58 9 63-4 63-4l-7-30 24 21c8-2 16-7 21-13a477 477 0 00-6 88c0 22 2 44 7 65a198 198 0 0024 64v1a20 20 0 1033-22 159 159 0 01-22-51 311 311 0 01-10-59 450 450 0 010-60c2-19 4-38 8-56h4l52-20 11-5 67-27c8-14-9-20-9-20" fill="#CFE6F0"/>
  <path d="M350 531c-36 0-110-8-63-25a362 362 0 0175-11v36m331 0c22 0 66-8 38-25a140 140 0 00-45-11v36" fill="#CFE6F0"/>
  <path d="M497 531h-81a9 9 0 01-9-9V387a9 9 0 019-9h81a9 9 0 019 9v135a9 9 0 01-9 9zm-72-18h63V396h-63v117" fill="#4F5661"/>
  <path d="M641 405h-90v-99l90-36v135" fill="#CFE6F0"/>
  <path d="M641 414h-90a9 9 0 01-9-9v-99a9 9 0 016-8l90-36a9 9 0 0112 8v135a9 9 0 01-9 9zm-81-18h72V283l-72 30v83zm-90 81a9 9 0 01-9-9v-27a9 9 0 1118 0v27a9 9 0 01-9 9" fill="#4F5661"/>
  <path d="M686 531H362a9 9 0 110-18h315V180a9 9 0 1118 0v342a9 9 0 01-9 9" fill="#4F5661"/>
  <path d="M565 172v-9a69 69 0 10-112 53l112-44zM497 67a9 9 0 01-9-10V10a9 9 0 1118 0v49a9 9 0 01-9 9zm74 30a9 9 0 01-6-2 9 9 0 010-13l34-34a9 9 0 0113 13l-35 34a9 9 0 01-6 3zm-148 0a9 9 0 01-7-2l-34-34a9 9 0 1113-13l34 34a9 9 0 010 13 9 9 0 01-6 3zm170 34a9 9 0 01-3-17l17-7a10 10 0 117 17l-17 7a10 10 0 01-3 0zm-193 1a10 10 0 01-4 0l-23-10a10 10 0 117-17l24 10a9 9 0 01-4 17zm56-57a9 9 0 01-8-6l-4-10a9 9 0 015-11 9 9 0 0112 5l4 10a10 10 0 01-5 12 10 10 0 01-4 0zm80 0a9 9 0 01-3 0 9 9 0 01-5-13l10-23a9 9 0 1116 7l-9 23a9 9 0 01-8 6" fill="#FF8979"/>
  <path d="M362 306v216" stroke="#4F5661" stroke-linecap="round" stroke-linejoin="round" stroke-width="20"/>
  <path d="M333 324a8 8 0 01-5-2 9 9 0 01-4-7l2-45a9 9 0 016-8l378-152a9 9 0 019 1 10 10 0 013 7v45a9 9 0 01-6 8L336 324a9 9 0 01-3 1zm11-48l-1 25 360-145v-26L344 276" fill="#4F5661"/>
  <path d="M60 258l-16 16v16H22v33h22v198h33V323h44v22h22v-22h127v22h22v-22l16-16-16-17H77v-16l-17-16" fill="#fff" fill-rule="evenodd" clip-rule="evenodd"/>
  <path d="M314 528c0 6-66 10-147 10a550 550 0 01-146-10c0-5 66-10 146-10 81 0 147 5 147 10" fill="#CFE6F0" fill-rule="evenodd" clip-rule="evenodd"/>
  <path d="M61 265l10 13v8a5 5 0 0010 0v-10a5 5 0 00-1-3l-15-20a5 5 0 00-8 0l-15 20a5 5 0 000 3v10a5 5 0 0010 0v-8l10-13zM51 518V325a5 5 0 00-10 0v198c0 3 2 5 5 5h30a5 5 0 005-5V325a5 5 0 00-10 0v193H50" fill="#4F5661"/>
  <path d="M287 316l13-10-13-10H27v20h260zm-270 5v-30c0-2 2-4 4-4h271l20 15a5 5 0 010 8l-20 15a5 5 0 01-3 0H20a5 5 0 01-5-4" fill="#4F5661"/>
  <path d="M120 350a5 5 0 01-5-4v-26c0-3 3-5 5-5h20c3 0 5 2 5 5v25a5 5 0 01-5 5h-20zm15-10v-14h-10v14h10zm135 10a5 5 0 01-5-4v-26c0-3 2-5 5-5h20c2 0 5 2 5 5v25a5 5 0 01-5 5h-20zm15-10v-14h-10v14h10zM66 302H56a5 5 0 100 10h10a5 5 0 100-10" fill="#4F5661"/>
  <path d="M299 464H110a10 10 0 01-10-10V341h208v113a10 10 0 01-10 10" fill="#FF8979" fill-rule="evenodd" clip-rule="evenodd"/>
  <path d="M155 400a5 5 0 004-6 5 5 0 00-4-4h-10v10h10zm-20-18l1-1h20c7 0 13 6 13 13 0 6-4 10-10 13l10 15s0 2-2 2h-7a1 1 0 01-1 0l-8-17h-5v16a1 1 0 01-1 0h-8v-41zm40 0l2-1h26v8h-18v9h16v7a1 1 0 01-2 2h-14v8h18v8h-26a1 1 0 01-1 0v-41zm36 0l1-2h2l24 24v-22l1-1h8l1 1v41l-1 2h-1l-26-25v23h-8a1 1 0 01-1 0v-43zm53 8h-9a1 1 0 010-1v-9h28v9h-10v34h-8v-33" fill="#fff" fill-rule="evenodd" clip-rule="evenodd"/>
</svg>
