<svg fill="none" xmlns="http://www.w3.org/2000/svg" viewBox="0 0 46 49">
  <path d="M1 48.174h44" stroke="#D3E5EF" stroke-width="1.632" stroke-linecap="round" stroke-linejoin="round"/>
  <path fill-rule="evenodd" clip-rule="evenodd" d="M23 48.174h12.36c.393 0 .73-.315.802-.75L38.3 34.562c.094-.565-.291-1.088-.801-1.088h-29c-.51 0-.895.523-.8 1.088l2.138 12.862c.073.435.41.75.801.75H23z" fill="#fff"/>
  <path clip-rule="evenodd" d="M23 48.174h12.36c.393 0 .73-.315.802-.75L38.3 34.562c.094-.565-.291-1.088-.801-1.088h-29c-.51 0-.895.523-.8 1.088l2.138 12.862c.073.435.41.75.801.75H23z" stroke="#4F5661" stroke-width="1.632" stroke-linecap="round" stroke-linejoin="round"/>
  <path fill-rule="evenodd" clip-rule="evenodd" d="M24.63 40.416c0 .676-.73 1.225-1.63 1.225-.9 0-1.63-.549-1.63-1.225S22.1 39.19 23 39.19c.9 0 1.63.549 1.63 1.225z" fill="#D3E5EF"/>
  <path clip-rule="evenodd" d="M24.63 40.416c0 .676-.73 1.225-1.63 1.225-.9 0-1.63-.549-1.63-1.225S22.1 39.19 23 39.19c.9 0 1.63.549 1.63 1.225z" stroke="#D3E5EF" stroke-width="1.632" stroke-linecap="round" stroke-linejoin="round"/>
  <path fill-rule="evenodd" clip-rule="evenodd" d="M29.985 6.2c-.998-3.132-3.403-5.393-7.01-5.393-4.42 0-7.357 3.43-7.357 7.647 0 0 1.264.768 3.665-1.523a12.451 12.451 0 004.026 1.9c3.526.94 5.841.05 7.07-.368" fill="#D3E5EF"/>
  <path fill-rule="evenodd" clip-rule="evenodd" d="M18.466 22.393l-2.848 1.85 4.124 5.964 2.642-1.335m5.272-6.479l2.725 1.85-4.235 5.964-2.724-1.335 4.234-6.479z" fill="#F4877A"/>
  <path d="M29.985 6.21c-.998-3.133-3.403-5.393-7.01-5.393-4.42 0-7.357 3.429-7.357 7.646 0 0 1.264.769 3.665-1.522.867.622 2.232 1.42 4.026 1.899 3.526.94 5.841.051 7.07-.368v4.435c0 4.218-4.489 7.637-7.38 7.637-2.917 0-7.381-3.42-7.381-7.637v-2.218" stroke="#4F5661" stroke-width="1.632" stroke-linecap="round" stroke-linejoin="round"/>
  <path d="M18.694 18.694v3.699l4.305 6.581 4.305-6.581v-3.699m-8.61 3.083l-3.18 2.502c-2.24 1.068-5.551 2.206-5.551 5.928m17.926-8.43l3.18 2.502c2.24 1.068 5.55 2.206 5.55 5.928" stroke="#4F5661" stroke-width="1.632" stroke-linecap="round" stroke-linejoin="round"/>
  <path d="M20.87 14.996A2.448 2.448 0 0023 16.229c.91 0 1.704-.493 2.128-1.233" stroke="#4F5661" stroke-width="1.632" stroke-linecap="round"/>
</svg>
