<svg xmlns="http://www.w3.org/2000/svg" fill="none" viewBox="0 0 600 600">
  <path d="M436 440h69V172h-69v268" fill="#53C27C" fill-rule="evenodd" clip-rule="evenodd"/>
  <path d="M436 440h69V172h-69v268" stroke="#53C27C" stroke-linecap="round" stroke-linejoin="round" stroke-width="18" clip-rule="evenodd"/>
  <path d="M344 440h54V272h-54v168" fill="#CFE6F0" fill-rule="evenodd" clip-rule="evenodd"/>
  <path d="M344 440h54V272h-54v168" stroke="#CFE6F0" stroke-linejoin="round" stroke-width="18" clip-rule="evenodd"/>
  <path d="M253 440h53v-92h-53v92" fill="#CFE6F0" fill-rule="evenodd" clip-rule="evenodd"/>
  <path d="M253 440h53v-92h-53v92" stroke="#CFE6F0" stroke-linejoin="round" stroke-width="18" clip-rule="evenodd"/>
  <path d="M472 59a9 9 0 011 12 611 611 0 01-186 149 559 559 0 01-66 30 383 383 0 01-20 6 230 230 0 01-7 1l-2-8 2 9a9 9 0 01-4-18h1a216 216 0 0023-8 540 540 0 0065-28A624 624 0 00460 60a9 9 0 0113-1" fill="#4F5661" fill-rule="evenodd" clip-rule="evenodd"/>
  <path d="M404 58a9 9 0 0110-10h60a9 9 0 0110 10v61a9 9 0 01-19 0V67h-52a9 9 0 01-9-10zM224 486a9 9 0 019-10h317a9 9 0 110 19H233a9 9 0 01-10-10" fill="#4F5661" fill-rule="evenodd" clip-rule="evenodd"/>
  <path d="M162 440h53v-61h-53v60" fill="#CFE6F0" fill-rule="evenodd" clip-rule="evenodd"/>
  <path d="M162 440h53v-61h-53v60" stroke="#CFE6F0" stroke-linejoin="round" stroke-width="18" clip-rule="evenodd"/>
  <path d="M192 478a76 76 0 11-153 0 76 76 0 01153 0" fill="#53C27C" fill-rule="evenodd" clip-rule="evenodd"/>
  <path d="M192 478a76 76 0 11-153 0 76 76 0 01153 0" stroke="#53C27C" stroke-linecap="round" stroke-linejoin="round" stroke-width="18" clip-rule="evenodd"/>
  <path d="M146 496c0-14-15-20-28-25-10-4-16-7-16-13 0-3 4-7 12-7s18 5 19 6c1 0 3 0 5-2l5-6-1-4a54 54 0 00-20-7v-10a3 3 0 00-3-4h-7a3 3 0 00-3 4v10c-17 2-24 12-24 22 0 13 12 20 25 24 11 4 17 8 17 14 0 4-5 8-12 8-9 0-20-6-20-7l-5 1-5 7v3c3 2 10 7 24 9v10c0 2 1 3 3 3h7c2 0 3-1 3-3v-10c15-3 24-12 24-22" fill="#fff" fill-rule="evenodd" clip-rule="evenodd"/>
  <path d="M108 118a9 9 0 019 9v233a9 9 0 01-18 0V127a9 9 0 019-10" fill="#4F5661" fill-rule="evenodd" clip-rule="evenodd"/>
</svg>
