<svg xmlns="http://www.w3.org/2000/svg" fill="none" viewBox="0 0 440 480">
  <path d="M368 370l-13-42a90 90 0 00-85-60h-11v13c-9 19-39 47-39 47s-30-29-39-47v-13h-10a90 90 0 00-86 60l-13 43 4 3a210 210 0 00144 58l30-2 94 40-18-67s27-18 38-29c2 0 3-2 4-3" fill="#5BBF89" fill-rule="evenodd" clip-rule="evenodd"/>
  <path d="M302 73c-12-37-40-64-82-64-52 0-87 40-87 90 0 0 15 10 43-18a146 146 0 0048 23c41 10 68 0 83-5" fill="#D3E5EF" fill-rule="evenodd" clip-rule="evenodd"/>
  <path d="M220 200c-14 0-26-7-33-19a10 10 0 1116-10c4 7 10 10 17 10a20 20 0 0017-10 10 10 0 0113-3 10 10 0 013 13 38 38 0 01-33 20" fill="#4F5661" fill-rule="evenodd" clip-rule="evenodd"/>
  <path d="M326 391c-7 5-10 8-10 14a10 10 0 001 2l13 47-77-33a10 10 0 00-5 0 198 198 0 01-28 1c-50 0-100-19-137-54l11-36a81 81 0 0176-54h2v3a10 10 0 000 4c10 20 40 48 41 50a10 10 0 0014 0c0-2 31-30 40-50a10 10 0 001-4v-3h2c34 0 64 22 76 53l11 37-30 23zM220 251c9 0 19-2 30-7v36c-7 10-20 26-30 35-10-10-23-24-30-35v-35c10 5 21 7 30 7zM336 44a10 10 0 002 14 203 203 0 0183 162 200 200 0 01-49 130l-8-26a100 100 0 00-94-64h-2v-25c26-18 48-47 48-82v-53a10 10 0 00-12-10l-2 1c-15 5-40 13-76 4a136 136 0 01-44-21 10 10 0 00-12 0c-13 13-22 16-27 17a75 75 0 0177-71c35 0 61 20 73 57a10 10 0 0012 6 10 10 0 005-13c-14-44-48-70-91-70a96 96 0 00-96 100 10 10 0 004 8c2 0 20 10 50-14a157 157 0 0043 20c34 8 60 4 76-1v39c0 43-47 80-77 80s-77-37-77-80v-26a10 10 0 10-20 0v26c0 35 23 64 49 82v25h-1a100 100 0 00-94 66l-8 27a200 200 0 01-49-131 202 202 0 0185-165 10 10 0 002-13 10 10 0 00-13-3A222 222 0 000 220a220 220 0 0064 156l2 1 3 3a219 219 0 00151 60c9 0 18 0 28-2l93 40a10 10 0 0010-1 10 10 0 003-10l-17-60a3 3 0 010-1 338 338 0 0037-29l-1-2 2 2a10 10 0 002-3l2-2a220 220 0 0061-151c0-70-34-137-90-179a10 10 0 00-14 2" fill="#4F5661" fill-rule="evenodd" clip-rule="evenodd"/>
</svg>
