<svg fill="none" xmlns="http://www.w3.org/2000/svg" viewBox="0 0 44 48">
  <path fill-rule="evenodd" clip-rule="evenodd" d="M36.797 37.093l-1.3-4.262a9.061 9.061 0 00-8.514-5.981h-1.11v1.258C25.014 29.93 22 32.763 22 32.763s-3.013-2.831-3.874-4.655V26.85h-1.11a9.06 9.06 0 00-8.513 5.98l-1.3 4.263c.115.114.229.23.354.336A20.925 20.925 0 0022 43.19c1 0 1.974-.093 2.936-.228l9.498 4.068s-1.796-6.691-1.853-6.706c-.06-.014 2.693-1.787 3.862-2.894.126-.107.24-.222.354-.336z" fill="#5BBF89"/>
  <path fill-rule="evenodd" clip-rule="evenodd" d="M30.2 7.288c-1.172-3.682-3.995-6.34-8.23-6.34-5.188 0-8.636 4.031-8.636 8.99 0 0 1.485.902 4.303-1.79a14.61 14.61 0 004.726 2.232c4.139 1.105 6.857.06 8.3-.432" fill="#D3E5EF"/>
  <path fill-rule="evenodd" clip-rule="evenodd" d="M21.999 20.036c-1.37 0-2.646-.74-3.328-1.93a.958.958 0 111.659-.958c.347.606.972.968 1.669.968.697 0 1.322-.362 1.668-.968a.955.955 0 011.306-.354.962.962 0 01.354 1.31 3.844 3.844 0 01-3.328 1.932z" fill="#4F5661"/>
  <path fill-rule="evenodd" clip-rule="evenodd" d="M32.63 39.108c-.78.538-1.103.761-.992 1.384a1 1 0 00.07.227c.13.393.734 2.602 1.288 4.65l-7.684-3.291a.957.957 0 00-.51-.068 19.79 19.79 0 01-2.802.219c-5.095 0-9.945-1.913-13.709-5.423l1.11-3.647a8.128 8.128 0 017.616-5.35h.153v.298a.97.97 0 00.092.411c.927 1.967 3.956 4.825 4.084 4.946a.956.956 0 001.308 0c.128-.121 3.157-2.979 4.085-4.946a.983.983 0 00.092-.41v-.299h.153c3.394 0 6.455 2.15 7.598 5.303l1.126 3.692c-.786.72-2.269 1.744-3.078 2.304zM22 25.109c.892 0 1.9-.245 2.918-.683v3.454c-.58 1.072-1.973 2.59-2.918 3.543-.946-.952-2.338-2.47-2.917-3.543v-1.03l-.001-.003v-2.419c1.017.437 2.024.682 2.917.682zM33.597 4.416a.963.963 0 00.21 1.342 20.26 20.26 0 018.28 16.31c0 4.86-1.735 9.47-4.87 13.126l-.822-2.692c-1.434-3.955-5.216-6.613-9.412-6.613h-.152v-2.52c2.58-1.76 4.788-4.711 4.788-8.198V9.96a.959.959 0 00-1.264-.91l-.188.065c-1.447.499-3.87 1.334-7.56.348a13.649 13.649 0 01-4.414-2.084.953.953 0 00-1.216.084c-1.265 1.208-2.149 1.56-2.652 1.652.362-4.216 3.465-7.194 7.644-7.194 3.504 0 6.172 2.067 7.32 5.671a.952.952 0 001.202.621.96.96 0 00.62-1.206C29.714 2.62 26.296 0 21.97 0c-5.468 0-9.592 4.277-9.592 9.948a.96.96 0 00.46.82c.204.123 1.971 1.07 4.88-1.395a15.669 15.669 0 004.399 1.946c3.402.907 5.927.452 7.59-.036v3.888c0 4.349-4.735 8.018-7.708 8.018s-7.708-3.67-7.708-8.018v-2.605a.957.957 0 10-1.913 0v2.605c0 3.488 2.21 6.44 4.79 8.2v2.519h-.151c-4.197 0-7.98 2.657-9.429 6.659l-.808 2.652a20.046 20.046 0 01-4.867-13.132A20.23 20.23 0 0110.39 5.615a.962.962 0 00.226-1.338.955.955 0 00-1.334-.227A22.16 22.16 0 000 22.069c0 5.897 2.288 11.442 6.443 15.613.014.013.031.017.044.029.024.03.043.064.07.092.124.123.249.245.344.325a21.87 21.87 0 0015.1 6.02c.867 0 1.763-.063 2.802-.2l9.256 3.964a.953.953 0 001.004-.158.964.964 0 00.296-.975c-.879-3.274-1.361-5.069-1.681-6.064a.268.268 0 01.037-.026c.879-.607 2.514-1.738 3.345-2.526.134-.115.259-.237.382-.36l-.163-.18c.011-.001.023-.006.034-.007l.158.158a.954.954 0 00.184-.27c.08-.046.163-.09.23-.16A22.02 22.02 0 0044 22.07c0-7.038-3.389-13.716-9.066-17.863a.955.955 0 00-1.336.21z" fill="#4F5661"/>
</svg>
