<svg xmlns="http://www.w3.org/2000/svg" fill="none" viewBox="0 0 820 480">
  <path d="M650 365H158c-9 0-16-8-16-17V82c0-10 7-18 16-18h492c10 0 16 8 16 18v268c0 10-7 16-16 16" fill="#D3E5EE" fill-rule="evenodd" clip-rule="evenodd"/>
  <path d="M49 480h715a48 48 0 0049-49v-7a8 8 0 00-8-8h-77V8a8 8 0 00-8-8H90a8 8 0 00-7 8v408H8c-4 0-8 3-8 8v7a50 50 0 0049 49zM99 15h615v400H99V15zM15 431h784c0 19-15 34-34 34H49a35 35 0 01-34-34" fill="#505762"/>
  <path d="M618 47H448v175l43-38h124l4-12-1-125zM458 344l-70-35-2-37 19-20 10-32v-53s1-3-12-33c-13-29-54-30-57-30s-44 1-57 30c-14 30-12 33-12 33v53l10 32 20 20-4 37-70 35-51 52h326l-50-52" fill="#fff" fill-rule="evenodd" clip-rule="evenodd"/>
  <path d="M302 309l-32 9 44 73 25-12m50-70l32 9-46 73-26-12 40-70" fill="#D3E5EE"/>
  <path d="M345 258c-10 0-21-7-26-15-2-4-1-8 2-10 4-2 8 0 10 3 3 5 8 8 14 8a17 17 0 0014-8c2-4 6-5 10-3 3 2 4 6 2 10-6 8-15 15-26 15zm100-23h-2a7 7 0 01-4-7V57c0-10 7-17 17-17h164c3 0 7 4 7 7v129c0 9-8 17-18 17H493l-43 40a5 5 0 01-4 2zm11-180c-2 0-3 0-3 2v153l33-30a7 7 0 015-2h117c2 0 3-1 3-3V54H456" fill="#505762"/>
  <path d="M518 85l-7-7-23 24-12-10-6 7 15 14 3 3 30-31" fill="#5BBD7C"/>
  <path d="M584 103h-48c-4 0-7-4-7-7s3-7 7-7h48c4 0 7 3 7 7a7 7 0 01-7 7" fill="#D3E5EE"/>
  <path d="M518 121l-7-7-23 24-12-10-6 6 15 15 3 2 30-30" fill="#5BBD7C"/>
  <path d="M570 145h-34c-4 0-7-4-7-7s3-7 7-7h34c4 0 7 3 7 7a7 7 0 01-7 7" fill="#D3E5EE"/>
  <path d="M500 395h20c-27-28-60-60-70-67l-56-26-4-2-3 15c4 2 40 20 56 26 8 5 38 35 57 54" fill="#505762"/>
  <path d="M296 275v25l2 15 40 68v13h14v-13l40-68 2-15v-24a76 76 0 0026-56v-42c0-2-1-4-3-5-2 0-4-2-6 0h-1c-11 4-30 10-60 3a110 110 0 01-36-17 7 7 0 00-9 0c-10 11-18 14-22 14 3-34 28-60 62-60 28 0 50 18 60 47 0 3 4 5 8 4 3 0 5-5 4-9a75 75 0 00-147 22c0 3 1 5 4 7 1 0 16 7 38-12a118 118 0 0096 16v30c0 36-37 65-62 65s-63-29-63-64v-19c0-3-3-7-7-7-3 0-7 4-7 7v20c0 23 13 42 28 56zm15 10a70 70 0 0034 12 70 70 0 0034-11v21l-34 60-34-60v-21" fill="#505762" fill-rule="evenodd" clip-rule="evenodd"/>
  <path d="M192 395c20-20 49-50 58-53l55-26-6-13-55 26c-12 5-45 38-72 67h20" fill="#505762"/>
</svg>
