<svg fill="none" xmlns="http://www.w3.org/2000/svg" viewBox="0 0 82 48">
  <path fill-rule="evenodd" clip-rule="evenodd" d="M65.03 36.53H15.793c-.882 0-1.588-.795-1.588-1.765V8.205c0-.97.706-1.764 1.588-1.764h49.235c.883 0 1.589.794 1.589 1.765v26.647c0 .97-.706 1.676-1.589 1.676z" fill="#D3E5EE"/>
  <path d="M4.853 48h71.559a4.839 4.839 0 004.853-4.853v-.794a.79.79 0 00-.794-.794h-7.677V.794A.79.79 0 0072 0H9.088a.79.79 0 00-.794.794v40.853h-7.5c-.441-.088-.794.265-.794.706v.706C0 45.794 2.206 48 4.853 48zm5.03-46.5h61.5v40.059h-61.5V1.5zM1.5 43.147h78.353c0 1.853-1.5 3.353-3.353 3.353H4.853C3 46.412 1.5 44.912 1.5 43.147z" fill="#505762"/>
  <path fill-rule="evenodd" clip-rule="evenodd" d="M61.765 4.706H44.824v17.47l4.235-3.794 12.441.088.441-1.235-.176-12.53zM45.794 34.412l-6.97-3.53-.265-3.705 1.94-1.942.971-3.264v-5.294s.177-.265-1.146-3.265c-1.324-2.912-5.471-3-5.736-3-.264 0-4.412.088-5.735 3-1.324 3-1.147 3.265-1.147 3.265v5.294l.97 3.264 1.942 1.942-.353 3.706-6.971 3.529-5.118 5.206h32.647l-5.029-5.206z" fill="#fff"/>
  <path d="M30.177 30.882L27 31.765l4.412 7.323 2.47-1.235m5.03-6.971l3.176.883-4.588 7.323-2.647-1.235 4.059-6.97z" fill="#D3E5EE"/>
  <path d="M34.5 25.765c-1.059 0-2.118-.618-2.647-1.5-.177-.353-.088-.794.265-.971.352-.176.794-.088.97.265.265.53.794.794 1.412.794a1.67 1.67 0 001.412-.794c.176-.353.617-.441.97-.265.353.177.442.618.265.97-.618.883-1.588 1.5-2.647 1.5zM44.559 23.5c-.088 0-.177 0-.265-.088a.664.664 0 01-.441-.618V5.676c0-.882.794-1.676 1.765-1.676h16.235c.353 0 .706.353.706.706v12.882c0 .883-.794 1.677-1.765 1.677h-11.47L45 23.235a.485.485 0 01-.441.265zm1.059-18.088c-.177 0-.353.088-.353.264v15.442l3.353-3.089a.674.674 0 01.44-.176h11.736c.177 0 .353-.088.353-.265V5.412h-15.53z" fill="#505762"/>
  <path d="M51.794 8.5l-.706-.706-2.294 2.383-1.147-1.06-.618.795 1.5 1.412.265.264 3-3.088z" fill="#5BBD7C"/>
  <path d="M58.412 10.265h-4.853c-.353 0-.706-.353-.706-.706s.353-.706.706-.706h4.853c.353 0 .706.353.706.706a.696.696 0 01-.706.706z" fill="#D3E5EE"/>
  <path d="M51.794 12.118l-.706-.706-2.294 2.382-1.147-1.059-.618.706 1.5 1.5.265.177 3-3z" fill="#5BBD7C"/>
  <path d="M57 14.5h-3.441c-.353 0-.706-.353-.706-.706s.353-.706.706-.706H57c.353 0 .706.353.706.706A.696.696 0 0157 14.5z" fill="#D3E5EE"/>
  <path d="M50.03 39.53h2.029c-2.735-2.824-6-6.089-7.147-6.706-1.324-.618-4.412-2.118-5.559-2.647-.177-.089-.265-.177-.353-.177l-.265 1.5c.353.177 3.97 1.941 5.56 2.647.793.441 3.793 3.441 5.734 5.382z" fill="#505762"/>
  <path fill-rule="evenodd" clip-rule="evenodd" d="M29.647 27.53v2.382l.177 1.5 3.97 6.794v1.323h1.412v-1.323l3.97-6.794.177-1.5v-2.383c1.588-1.411 2.735-3.353 2.735-5.647v-4.147c0-.264-.088-.44-.264-.53-.177-.087-.442-.176-.618-.087l-.177.088c-1.147.441-3.088 1.059-6.088.265-1.588-.442-2.823-1.148-3.53-1.677a.679.679 0 00-.882.088c-1.058 1.06-1.852 1.324-2.205 1.324.264-3.441 2.735-5.912 6.176-5.912 2.824 0 5.03 1.677 5.912 4.588.088.353.53.53.882.441.353-.088.53-.529.441-.882C40.588 12 37.941 9.882 34.5 9.882c-4.323 0-7.588 3.353-7.588 7.853 0 .265.088.441.353.618.176.088 1.588.794 3.882-1.147.794.53 2.03 1.147 3.53 1.588 2.735.706 4.764.353 6.088-.088v3.176c0 3.53-3.794 6.441-6.265 6.441-2.47 0-6.265-2.911-6.265-6.44v-1.765c0-.353-.353-.706-.706-.706-.352 0-.705.353-.705.706v1.764c0 2.294 1.235 4.236 2.823 5.647zm1.412 1.058c1.147.706 2.382 1.147 3.441 1.147 1.059 0 2.294-.44 3.441-1.147v2.118l-3.44 5.912-3.442-5.912v-2.118z" fill="#505762"/>
  <path d="M19.235 39.53c1.942-1.942 4.853-4.942 5.736-5.295 1.588-.706 5.117-2.47 5.558-2.647l-.617-1.323c-.441.176-3.97 1.94-5.559 2.647-1.147.53-4.412 3.794-7.147 6.706h2.03v-.089z" fill="#505762"/>
</svg>
