<svg fill="none" xmlns="http://www.w3.org/2000/svg" viewBox="0 0 325 56">
  <path fill-rule="evenodd" clip-rule="evenodd" d="M137.651 29.891c2.114-1.981 4.354-3.31 7.394-3.31 6.778 0 11.918 5.306 11.918 12.616 0 7.423-5.202 12.81-12.063 12.81-3.088 0-6.066-1.622-7.564-4.08h-.1v3.403h-6.356V13.993h6.646v15.898h.125zm54.583-9.36h6.55v6.727h5.808v5.314h-5.808v10.546c0 2.003.689 3.365 2.63 3.365a9.232 9.232 0 002.913-.495l.162 5.201c-1.048.4-2.811.683-4.206.683-7.144 0-8.049-4.994-8.049-8.705V32.572h-4.065v-5.314h4.065V20.53zm-19.149 6.05c-7.563 0-13.052 5.306-13.052 12.616 0 7.566 5.611 12.875 13.052 12.875s13.052-5.36 13.052-12.875c0-7.31-5.489-12.616-13.052-12.616zm46.309 0c-3.824 0-7.711 1.544-10.312 3.953l3.409 3.815c1.566-1.567 4.257-2.558 6.419-2.558 2.371 0 4.787 1.186 4.787 4.018v.422c-6.983.036-15.855.877-15.855 8.048 0 5.272 4.586 7.632 9.132 7.632 2.841 0 5.291-1.617 6.789-3.37h.149v2.789h6.259V36.777c0-3.808-1.4-10.196-10.777-10.196zm4.42 14.552c0 3.57-2.017 5.808-5.679 5.808-1.362 0-3.795-.41-3.795-2.573 0-2.324 2.908-3.755 8.587-3.755h.887v.52zm-57.037-1.936c0 3.435 1.974 7.132 6.309 7.132 4.334 0 6.308-3.697 6.308-7.132 0-3.388-1.974-7.035-6.308-7.035-4.335 0-6.309 3.647-6.309 7.035zm-23.038 7.132c-4.01 0-6.406-3.577-6.406-7.035 0-3.43 2.449-7.132 6.406-7.132 4.301 0 6.44 3.647 6.44 7.035 0 3.544-2.331 7.132-6.44 7.132zm106.071-7.762l8.645-11.309h-7.742l-4.959 6.906-4.82-6.906h-8.04l8.696 11.31-9.758 12.762h7.936l5.882-8.17 5.837 8.17h8.133l-9.81-12.763zM94.76 46.33c3.436 0 5.28-3.045 5.28-5.873V27.258h6.647V51.33h-6.356v-3.602h-.099c-1.32 1.817-3.941 4.28-7.069 4.28-6.633 0-9.114-4.839-9.114-9.81v-14.94h6.647v13.295c0 3.887 1.415 5.776 4.064 5.776zm-21.285-25.8h-6.55v6.728h-4.066v5.314h4.066v10.595c0 3.711.904 8.705 8.048 8.705 1.396 0 3.158-.284 4.207-.683l-.162-5.202a9.234 9.234 0 01-2.913.496c-1.941 0-2.63-1.362-2.63-3.365V32.572h5.808v-5.314h-5.808V20.53zm45.262 10.442h.098c1.508-2.247 3.741-4.391 6.356-4.391.403 0 1.439.082 1.906.199v6.072a9.317 9.317 0 00-2.064-.26c-5.758 0-6.054 5.82-6.054 5.879V51.33h-6.647V27.258h6.405v3.714z" fill="#000"/>
  <path d="M0 28C0 12.535 12.536 0 28 0s28 12.535 28 28c0 15.464-12.536 28-28 28S0 43.464 0 28z" fill="#D52B1E"/>
  <path d="M21.75 38.267a119.21 119.21 0 01-9.27-7.422 85.216 85.216 0 00-2.932 7.334c4.723 4.007 11.035 8.596 15.37 11.178C30.539 34.81 39.303 25.322 47.695 18.7a21.818 21.818 0 00-4.301-6.105A78.413 78.413 0 0021.75 38.267z" fill="#fff"/>
  <path fill-rule="evenodd" clip-rule="evenodd" d="M324.4 51.33V20.222h-58.402V51.33h19.352v-4.59h-14.645V24.812h48.988V46.74h-28.067l-4.707 4.59H324.4zm-40.017-12.428v2.45h-7.521V29.714h2.9v9.187h4.621zm2.476 2.45h2.9V29.714h-2.9V41.35zm17.012-11.637h-3.186l-2.749 8.25h-.068l-2.765-8.25h-3.237l4.519 11.636h2.883l4.603-11.636zm10.48 11.636v-2.4h-5.548v-2.415h4.957v-2.252h-4.957v-2.186h5.244v-2.383h-8.027v11.636h8.331z" fill="#D52B1E"/>
</svg>
