<svg xmlns="http://www.w3.org/2000/svg" fill="none" viewBox="0 0 60 60">
  <path d="M9.86 9.72a3.86 3.86 0 100-7.72 3.86 3.86 0 000 7.72z" fill="#CFE6F0"/>
  <path d="M9.86 10.72a4.86 4.86 0 114.86-4.86 4.87 4.87 0 01-4.86 4.86zm0-7.72a2.86 2.86 0 102.86 2.86A2.87 2.87 0 009.86 3z" fill="#4F5661"/>
  <path d="M11.5 10.5v26H19c2 0 11.5 1.667 16 2.5 11.6-.8 17.5-4.333 19-6V7.5C45 12 35 12 33 12S19 9.5 17.5 9.5c-1.2 0-4.5.667-6 1z" fill="#fff"/>
  <path d="M35.85 39.68H35c-.65 0-1.32 0-2-.11a75.175 75.175 0 01-8-1.15c-1.27-.23-2.51-.46-3.73-.64a21.529 21.529 0 00-9.2.22 1 1 0 01-1.28-.96V10.26a1 1 0 01.72-1A23.26 23.26 0 0121.6 9h.19c1.15.17 2.36.39 3.61.62 5.41 1 11.54 2.1 19 .18a39.563 39.563 0 008-3.08l.15-.07a1.84 1.84 0 011.84 0c.547.33.88.922.88 1.56v23.73c0 1.81-.7 2.38-2 3.32-2.32 1.63-5.5 2.53-8.56 3.31a35.012 35.012 0 01-8.86 1.11zm-.67-2c3.031.078 6.06-.258 9-1 2.13-.54 5.69-1.45 7.91-3 1.14-.8 1.19-.86 1.19-1.68V8.56a41.537 41.537 0 01-8.4 3.22c-7.86 2-14.22.87-19.83-.15-1.22-.22-2.42-.44-3.59-.62h-.2a22.398 22.398 0 00-8.47-.01v24.79c2.91-.523 5.89-.523 8.8 0 1.24.18 2.5.41 3.79.65a73.89 73.89 0 007.73 1.11c.72.06 1.37.09 2 .1l.07.03z" fill="#4F5661"/>
  <path d="M24.17 24.53a8.69 8.69 0 1117.38 0 8.69 8.69 0 01-17.38 0z" fill="#E43834"/>
  <path fill-rule="evenodd" clip-rule="evenodd" d="M30.92 27.72c-1-.72-1.96-1.487-2.88-2.3-.34.74-.643 1.5-.91 2.28a40.376 40.376 0 004.77 3.47 21.93 21.93 0 017.1-9.52 6.78 6.78 0 00-1.34-1.89 24.34 24.34 0 00-6.72 8" fill="#fff"/>
  <path fill="#fff" d="M8 10h4v48H8z"/>
  <path d="M11.79 59H7.93a1 1 0 01-1-1V9.2a1 1 0 012 0V57h1.86V9.2a1 1 0 112 0V58a1 1 0 01-1 1z" fill="#4F5661"/>
</svg>
