<svg xmlns="http://www.w3.org/2000/svg" fill="none" viewBox="0 0 54 47">
  <path clip-rule="evenodd" d="M53 1.6H8v7H4a3 3 0 00-3 3v26a3 3 0 003 3h46a3 3 0 003-3v-26z" fill="#fff" fill-rule="evenodd"/>
  <path clip-rule="evenodd" d="M14.4 13.53h32.4V7.214H14.4z" fill="#cfe6f0" fill-rule="evenodd"/>
  <g fill="#4f5661">
    <path d="M14.4 14.431a.9.9 0 01-.9-.902V7.215c0-.498.403-.902.9-.902h32.4c.497 0 .9.404.9.902v6.314a.9.9 0 01-.9.902zm31.5-1.804v-4.51H15.3v4.51zm-31.5 8.118h9.9a.901.901 0 000-1.804h-9.9a.901.901 0 000 1.804zm0 4.51h8.1a.9.9 0 000-1.804h-8.1a.9.9 0 000 1.804zm0 4.51h9a.9.9 0 000-1.804h-9a.9.9 0 000 1.804zm24.3-9.02h8.1a.901.901 0 000-1.804h-8.1a.901.901 0 000 1.804zm2.7 4.51h5.4a.9.9 0 000-1.804h-5.4a.9.9 0 000 1.804zm0 4.51h5.4a.9.9 0 000-1.804h-5.4a.9.9 0 000 1.804z"/>
    <path d="M4.5 36.078a.901.901 0 01-.9-.902V10.825a.901.901 0 10-1.8 0v26.001c0 1.465 1.066 2.718 2.432 2.848A2.703 2.703 0 007.2 36.98v-.902zm2.7-1.804V1.805c0-.498.403-.902.9-.902h45c.497 0 .9.404.9.902V36.98a4.505 4.505 0 01-4.5 4.51H27.9a.9.9 0 010-1.804h21.6c1.491 0 2.7-1.211 2.7-2.706V2.706H9V36.98a4.504 4.504 0 01-4.939 4.489C1.746 41.249 0 39.197 0 36.825V10.823C0 9.33 1.21 8.119 2.7 8.119s2.7 1.212 2.7 2.706v23.45z"/>
    <path clip-rule="evenodd" d="M3.6 40.588a.9.9 0 01.9-.9h8.213a.9.9 0 010 1.8H4.5a.9.9 0 01-.9-.9zM1.8 9.02a.9.9 0 01.9-.9h5.4a.9.9 0 010 1.8H2.7a.9.9 0 01-.9-.9z" fill-rule="evenodd"/>
  </g>
  <path clip-rule="evenodd" d="M39.928 31.897a8.088 8.088 0 01-11.456 0 8.131 8.131 0 010-11.48c3.163-3.17 8.292-3.17 11.456 0s3.163 8.31 0 11.48z" fill="#cfe6f0" fill-rule="evenodd"/>
  <path d="M39.291 31.259a7.226 7.226 0 000-10.205 7.19 7.19 0 00-10.183 0 7.228 7.228 0 000 10.205 7.19 7.19 0 0010.183 0zm1.273 1.276a8.987 8.987 0 01-12.729 0c-3.514-3.523-3.514-9.233 0-12.756a8.987 8.987 0 0112.73 0c3.514 3.522 3.514 9.233 0 12.755z" fill="#4f5661"/>
  <path clip-rule="evenodd" d="M37.383 22.968a4.522 4.522 0 01-.001 6.378c-.85.852-1.98 1.321-3.182 1.321s-2.333-.47-3.182-1.32a7.731 7.731 0 004.082-2.024c1.768-1.688 2.177-3.7 2.282-4.355z" fill="#fff" fill-rule="evenodd"/>
  <path d="M25.453 36.2l3.108-3.117a.903.903 0 000-1.275.899.899 0 00-1.273 0l-3.109 3.116a.903.903 0 000 1.276.899.899 0 001.274 0z" fill="#4f5661"/>
  <path d="M21.067 44.13a3.39 3.39 0 01-4.801 0 3.405 3.405 0 010-4.811s4.801-4.812 7.202-5.615l3.201 3.209s-2.4 4.009-5.602 7.217z" fill-rule="evenodd" clip-rule="evenodd" fill="#53c27c" stroke="#53c27c" stroke-width="1.8" stroke-linecap="round" stroke-linejoin="round"/>
</svg>
