<svg xmlns="http://www.w3.org/2000/svg" fill="none" viewBox="0 0 540 470">
  <path d="M530 16H80v70H40a30 30 0 00-30 30v260a30 30 0 0030 30h460a30 30 0 0030-30V116" fill="#fff" fill-rule="evenodd" clip-rule="evenodd"/>
  <path d="M144 135h324V72H144" fill="#cfe6f0" fill-rule="evenodd" clip-rule="evenodd"/>
  <g fill="#4f5661">
    <path d="M144 144a9 9 0 01-9-9V72c0-5 4-9 9-9h324c5 0 9 4 9 10v62a9 9 0 01-9 10zm315-18V81H153v45zm-315 81h99a10 10 0 000-18h-99a10 10 0 000 18zm0 46h81a9 9 0 000-18h-81a9 9 0 000 18zm0 45h90a9 9 0 000-18h-90a9 9 0 000 18zm243-90h81a10 10 0 000-19h-81a10 10 0 000 18zm27 45h54a9 9 0 000-18h-54a9 9 0 000 18zm0 45h54a9 9 0 000-18h-54a9 9 0 000 18"/>
    <path d="M45 360a10 10 0 01-9-8V108a10 10 0 10-18 0v260c0 15 10 27 24 29a27 27 0 0030-27v-10zm27-17V18c0-5 4-9 9-9h450c5 0 9 4 9 10v350a45 45 0 01-45 46H279a9 9 0 010-18h216c15 0 27-12 27-27V27H90v343a45 45 0 01-50 45c-23-3-40-23-40-47V108a27 27 0 1154 0v235"/>
    <path d="M36 406a9 9 0 019-10h82a9 9 0 010 19H45a9 9 0 01-9-10zM18 90a9 9 0 019-9h54a9 9 0 010 18H27a9 9 0 01-9-9" fill-rule="evenodd" clip-rule="evenodd"/>
  </g>
  <path d="M400 319a80 80 0 01-115 0 81 81 0 010-115c31-32 83-32 114 0s32 83 0 115" fill="#cfe6f0" fill-rule="evenodd" clip-rule="evenodd"/>
  <path d="M393 313a72 72 0 000-102 72 72 0 00-103-1 72 72 0 000 102 72 72 0 00102 0zm13 12a90 90 0 01-128 0 90 90 0 010-127 90 90 0 01128 0 90 90 0 010 127" fill="#4f5661"/>
  <path d="M374 230a45 45 0 010 63 45 45 0 01-64 0 77 77 0 0041-20 78 78 0 0023-43" fill="#fff" fill-rule="evenodd" clip-rule="evenodd"/>
  <path d="M255 362l30-31a10 10 0 000-13 9 9 0 00-12 0l-31 32a10 10 0 000 13 9 9 0 0013 0" fill="#4f5661"/>
  <path d="M210 441a34 34 0 01-47 0 34 34 0 010-48s48-48 72-56l32 32s-24 40-56 72" fill="#53c27c" fill-rule="evenodd" stroke="#53c27c" stroke-linecap="round" stroke-linejoin="round" stroke-width="18" clip-rule="evenodd"/>
</svg>
